M48
INCH,TZ
T1C0.020
T2C0.033
%
G90
G05
T1
X29626Y-30413
X30350Y-30453
X30354Y-26280
X30965Y-34429
X31354Y-34110
X31445Y-30723
X31752Y-34429
X32165Y-34114
X32362Y-26929
X32559Y-34429
X32735Y-30713
X32953Y-34134
X33169Y-28038
X33400Y-33895
X33417Y-26448
X33552Y-33440
X34154Y-34449
X35305Y-34449
X35337Y-27659
X35686Y-29995
X35768Y-31398
X35792Y-26736
X36063Y-32657
X36102Y-34449
X36486Y-34154
X36949Y-26673
X37667Y-34449
X38091Y-30530
X38455Y-34449
X38848Y-34173
X39016Y-25571
X39016Y-27776
X39636Y-34449
X39724Y-26181
X39855Y-30466
X40029Y-34173
X40422Y-34450
X40811Y-34169
X40892Y-30720
X41200Y-34449
X41654Y-33780
X41791Y-26811
X41998Y-34449
X42179Y-30697
X42618Y-27913
X42776Y-34449
X42854Y-26339
X43967Y-34449
X44739Y-27534
X45135Y-29897
X45138Y-34449
X45280Y-26637
X45295Y-31299
X45591Y-32559
X46319Y-34449
X46358Y-26575
X47510Y-34449
X47539Y-30432
X48297Y-34449
X48386Y-27874
X48691Y-34173
X48819Y-25866
X48917Y-27854
X49478Y-34469
X49685Y-30512
X50197Y-32087
X51063Y-31969
X51163Y-29374
X51260Y-28386
X51447Y-34449
X51772Y-32087
X52067Y-29429
X52628Y-34449
X53425Y-32480
X53583Y-27913
X53898Y-29409
X54370Y-33307
X54990Y-34449
X55118Y-32126
X55787Y-25773
X55945Y-29409
X57174Y-32334
X57352Y-34449
X57559Y-33661
X57795Y-30000
X57815Y-34134
X58346Y-29291
X58504Y-33228
X59173Y-30709
X59321Y-34449
X59449Y-25866
X59567Y-28780
X59606Y-33819
X60098Y-33346
X60155Y-32598
X60354Y-29291
X60984Y-26378
X61142Y-34272
X62067Y-34473
X62165Y-31063
X62362Y-31732
X62470Y-34134
X63228Y-34154
X64646Y-30591
X64705Y-28740
X64809Y-34464
X64941Y-25354
X64941Y-26535
X64946Y-27708
X65622Y-30701
X66102Y-30689
X66801Y-34154
X67195Y-34470
X67421Y-26673
X67520Y-28248
X67677Y-31772
X67982Y-34154
X68376Y-34469
X68504Y-32559
X68622Y-27520
X68770Y-34154
X69322Y-27067
X69390Y-32087
X69567Y-28819
X69577Y-29930
X69951Y-34469
X70344Y-34154
X70748Y-34469
X70906Y-27480
X71132Y-34134
X71417Y-31220
X71919Y-34469
X71969Y-32205
X73819Y-30591
X73829Y-28758
X73881Y-34486
X73966Y-26465
X74134Y-27677
X74140Y-25323
X74800Y-30682
X75315Y-30669
X76240Y-34213
X76644Y-34495
X76654Y-28307
X76673Y-26673
X76693Y-29882
X76850Y-31772
X76970Y-32969
X77034Y-34214
X77430Y-34489
X77795Y-27520
X77824Y-34215
X78219Y-34488
X78346Y-32087
X78440Y-27067
X78504Y-25748
X78622Y-34193
X78780Y-28937
X78785Y-29921
X79006Y-34488
X79134Y-26969
X79389Y-34193
X79409Y-31772
X80059Y-34213
T2
X62402Y-26969
X63386Y-26969
X63976Y-32677
X64961Y-32677
X65945Y-32677
X66929Y-32677
X71752Y-26969
X72539Y-26969
X73130Y-32677
X74114Y-32677
X75098Y-32677
X76083Y-32677
T0
M30
