G04 #@! TF.FileFunction,Legend,Top*
%FSLAX46Y46*%
G04 Gerber Fmt 4.6, Leading zero omitted, Abs format (unit mm)*
G04 Created by KiCad (PCBNEW (2015-11-11 BZR 6310, Git 8f79b4f)-product) date 2016-01-24 11:52:22 AM*
%MOMM*%
G01*
G04 APERTURE LIST*
%ADD10C,0.100000*%
%ADD11C,0.152400*%
%ADD12C,0.200000*%
%ADD13C,0.127000*%
%ADD14C,0.254000*%
%ADD15C,0.066040*%
%ADD16C,0.203200*%
%ADD17C,0.150000*%
%ADD18C,0.381000*%
%ADD19C,0.149860*%
%ADD20R,1.543000X1.797000*%
%ADD21R,1.212800X1.543000*%
%ADD22R,1.543000X1.212800*%
%ADD23R,1.101040X1.400760*%
%ADD24R,1.400760X1.101040*%
%ADD25R,1.197560X0.798780*%
%ADD26R,0.798780X1.197560*%
%ADD27R,1.850000X0.850000*%
%ADD28R,0.850000X1.850000*%
%ADD29R,0.699720X1.700480*%
%ADD30R,2.398980X0.999440*%
%ADD31R,1.700480X0.699720*%
%ADD32R,0.850000X1.900000*%
%ADD33R,2.599640X0.999440*%
%ADD34R,1.200000X2.700000*%
%ADD35C,1.600000*%
%ADD36C,1.900000*%
G04 APERTURE END LIST*
D10*
D11*
X112001772Y-63525771D02*
X111798572Y-63235486D01*
X111653429Y-63525771D02*
X111653429Y-62916171D01*
X111885657Y-62916171D01*
X111943715Y-62945200D01*
X111972743Y-62974229D01*
X112001772Y-63032286D01*
X112001772Y-63119371D01*
X111972743Y-63177429D01*
X111943715Y-63206457D01*
X111885657Y-63235486D01*
X111653429Y-63235486D01*
X112234000Y-63351600D02*
X112524286Y-63351600D01*
X112175943Y-63525771D02*
X112379143Y-62916171D01*
X112582343Y-63525771D01*
X112785543Y-63525771D02*
X112785543Y-62916171D01*
X112988743Y-63351600D01*
X113191943Y-62916171D01*
X113191943Y-63525771D01*
X113482229Y-63525771D02*
X113482229Y-62916171D01*
X113714457Y-62916171D01*
X113772515Y-62945200D01*
X113801543Y-62974229D01*
X113830572Y-63032286D01*
X113830572Y-63119371D01*
X113801543Y-63177429D01*
X113772515Y-63206457D01*
X113714457Y-63235486D01*
X113482229Y-63235486D01*
X114527257Y-62974229D02*
X114556286Y-62945200D01*
X114614343Y-62916171D01*
X114759486Y-62916171D01*
X114817543Y-62945200D01*
X114846572Y-62974229D01*
X114875600Y-63032286D01*
X114875600Y-63090343D01*
X114846572Y-63177429D01*
X114498229Y-63525771D01*
X114875600Y-63525771D01*
X87751772Y-63525771D02*
X87548572Y-63235486D01*
X87403429Y-63525771D02*
X87403429Y-62916171D01*
X87635657Y-62916171D01*
X87693715Y-62945200D01*
X87722743Y-62974229D01*
X87751772Y-63032286D01*
X87751772Y-63119371D01*
X87722743Y-63177429D01*
X87693715Y-63206457D01*
X87635657Y-63235486D01*
X87403429Y-63235486D01*
X87984000Y-63351600D02*
X88274286Y-63351600D01*
X87925943Y-63525771D02*
X88129143Y-62916171D01*
X88332343Y-63525771D01*
X88535543Y-63525771D02*
X88535543Y-62916171D01*
X88738743Y-63351600D01*
X88941943Y-62916171D01*
X88941943Y-63525771D01*
X89232229Y-63525771D02*
X89232229Y-62916171D01*
X89464457Y-62916171D01*
X89522515Y-62945200D01*
X89551543Y-62974229D01*
X89580572Y-63032286D01*
X89580572Y-63119371D01*
X89551543Y-63177429D01*
X89522515Y-63206457D01*
X89464457Y-63235486D01*
X89232229Y-63235486D01*
X90625600Y-63525771D02*
X90277257Y-63525771D01*
X90451429Y-63525771D02*
X90451429Y-62916171D01*
X90393372Y-63003257D01*
X90335314Y-63061314D01*
X90277257Y-63090343D01*
D12*
X195750000Y-83750000D02*
G75*
G03X195750000Y-83750000I-353553J0D01*
G01*
X186603553Y-70250000D02*
G75*
G03X186603553Y-70250000I-353553J0D01*
G01*
X163353553Y-70250000D02*
G75*
G03X163353553Y-70250000I-353553J0D01*
G01*
X172603553Y-83750000D02*
G75*
G03X172603553Y-83750000I-353553J0D01*
G01*
X80353553Y-76000000D02*
G75*
G03X80353553Y-76000000I-353553J0D01*
G01*
X104353553Y-76000000D02*
G75*
G03X104353553Y-76000000I-353553J0D01*
G01*
D13*
X91788800Y-74762000D02*
X90772800Y-74762000D01*
X90772800Y-74762000D02*
X90772800Y-73238000D01*
X90772800Y-73238000D02*
X91788800Y-73238000D01*
X93211200Y-73238000D02*
X94227200Y-73238000D01*
X94227200Y-73238000D02*
X94227200Y-74762000D01*
X94227200Y-74762000D02*
X93211200Y-74762000D01*
D14*
X89299100Y-82600000D02*
X86499100Y-82600000D01*
X86499100Y-82600000D02*
X86499100Y-84400000D01*
X86499100Y-84400000D02*
X89299100Y-84400000D01*
X89299100Y-84400000D02*
X89299100Y-82600000D01*
X180650000Y-73850000D02*
X177850000Y-73850000D01*
X177850000Y-73850000D02*
X177850000Y-75650000D01*
X177850000Y-75650000D02*
X180650000Y-75650000D01*
X180650000Y-75650000D02*
X180650000Y-73850000D01*
X95749100Y-82150000D02*
X98549100Y-82150000D01*
X98549100Y-82150000D02*
X98549100Y-80350000D01*
X98549100Y-80350000D02*
X95749100Y-80350000D01*
X95749100Y-80350000D02*
X95749100Y-82150000D01*
X174150000Y-72150000D02*
X174150000Y-69350000D01*
X174150000Y-69350000D02*
X172350000Y-69350000D01*
X172350000Y-69350000D02*
X172350000Y-72150000D01*
X172350000Y-72150000D02*
X174150000Y-72150000D01*
X168600000Y-72350000D02*
X168600000Y-75150000D01*
X168600000Y-75150000D02*
X170400000Y-75150000D01*
X170400000Y-75150000D02*
X170400000Y-72350000D01*
X170400000Y-72350000D02*
X168600000Y-72350000D01*
X89400000Y-73350000D02*
X86600000Y-73350000D01*
X86600000Y-73350000D02*
X86600000Y-75150000D01*
X86600000Y-75150000D02*
X89400000Y-75150000D01*
X89400000Y-75150000D02*
X89400000Y-73350000D01*
X96400000Y-68600000D02*
X93600000Y-68600000D01*
X93600000Y-68600000D02*
X93600000Y-70400000D01*
X93600000Y-70400000D02*
X96400000Y-70400000D01*
X96400000Y-70400000D02*
X96400000Y-68600000D01*
X99650000Y-68600000D02*
X96850000Y-68600000D01*
X96850000Y-68600000D02*
X96850000Y-70400000D01*
X96850000Y-70400000D02*
X99650000Y-70400000D01*
X99650000Y-70400000D02*
X99650000Y-68600000D01*
X158350000Y-77150000D02*
X161150000Y-77150000D01*
X161150000Y-77150000D02*
X161150000Y-75350000D01*
X161150000Y-75350000D02*
X158350000Y-75350000D01*
X158350000Y-75350000D02*
X158350000Y-77150000D01*
D13*
X115788800Y-74512000D02*
X114772800Y-74512000D01*
X114772800Y-74512000D02*
X114772800Y-72988000D01*
X114772800Y-72988000D02*
X115788800Y-72988000D01*
X117211200Y-72988000D02*
X118227200Y-72988000D01*
X118227200Y-72988000D02*
X118227200Y-74512000D01*
X118227200Y-74512000D02*
X117211200Y-74512000D01*
D14*
X113650000Y-82350000D02*
X110850000Y-82350000D01*
X110850000Y-82350000D02*
X110850000Y-84150000D01*
X110850000Y-84150000D02*
X113650000Y-84150000D01*
X113650000Y-84150000D02*
X113650000Y-82350000D01*
X120100000Y-81900000D02*
X122900000Y-81900000D01*
X122900000Y-81900000D02*
X122900000Y-80100000D01*
X122900000Y-80100000D02*
X120100000Y-80100000D01*
X120100000Y-80100000D02*
X120100000Y-81900000D01*
X113400000Y-73100000D02*
X110600000Y-73100000D01*
X110600000Y-73100000D02*
X110600000Y-74900000D01*
X110600000Y-74900000D02*
X113400000Y-74900000D01*
X113400000Y-74900000D02*
X113400000Y-73100000D01*
X120400000Y-68350000D02*
X117600000Y-68350000D01*
X117600000Y-68350000D02*
X117600000Y-70150000D01*
X117600000Y-70150000D02*
X120400000Y-70150000D01*
X120400000Y-70150000D02*
X120400000Y-68350000D01*
X203900000Y-73850000D02*
X201100000Y-73850000D01*
X201100000Y-73850000D02*
X201100000Y-75650000D01*
X201100000Y-75650000D02*
X203900000Y-75650000D01*
X203900000Y-75650000D02*
X203900000Y-73850000D01*
X123650000Y-68350000D02*
X120850000Y-68350000D01*
X120850000Y-68350000D02*
X120850000Y-70150000D01*
X120850000Y-70150000D02*
X123650000Y-70150000D01*
X123650000Y-70150000D02*
X123650000Y-68350000D01*
X197400000Y-72150000D02*
X197400000Y-69350000D01*
X197400000Y-69350000D02*
X195600000Y-69350000D01*
X195600000Y-69350000D02*
X195600000Y-72150000D01*
X195600000Y-72150000D02*
X197400000Y-72150000D01*
X191850000Y-72350000D02*
X191850000Y-75150000D01*
X191850000Y-75150000D02*
X193650000Y-75150000D01*
X193650000Y-75150000D02*
X193650000Y-72350000D01*
X193650000Y-72350000D02*
X191850000Y-72350000D01*
X181600000Y-77150000D02*
X184400000Y-77150000D01*
X184400000Y-77150000D02*
X184400000Y-75350000D01*
X184400000Y-75350000D02*
X181600000Y-75350000D01*
X181600000Y-75350000D02*
X181600000Y-77150000D01*
X125350000Y-74100000D02*
X125350000Y-76900000D01*
X125350000Y-76900000D02*
X127150000Y-76900000D01*
X127150000Y-76900000D02*
X127150000Y-74100000D01*
X127150000Y-74100000D02*
X125350000Y-74100000D01*
X130350000Y-78350000D02*
X130350000Y-81150000D01*
X130350000Y-81150000D02*
X132150000Y-81150000D01*
X132150000Y-81150000D02*
X132150000Y-78350000D01*
X132150000Y-78350000D02*
X130350000Y-78350000D01*
X139100000Y-78350000D02*
X139100000Y-81150000D01*
X139100000Y-81150000D02*
X140900000Y-81150000D01*
X140900000Y-81150000D02*
X140900000Y-78350000D01*
X140900000Y-78350000D02*
X139100000Y-78350000D01*
X144850000Y-72850000D02*
X144850000Y-75650000D01*
X144850000Y-75650000D02*
X146650000Y-75650000D01*
X146650000Y-75650000D02*
X146650000Y-72850000D01*
X146650000Y-72850000D02*
X144850000Y-72850000D01*
X151150000Y-81150000D02*
X151150000Y-78350000D01*
X151150000Y-78350000D02*
X149350000Y-78350000D01*
X149350000Y-78350000D02*
X149350000Y-81150000D01*
X149350000Y-81150000D02*
X151150000Y-81150000D01*
X156850000Y-81350000D02*
X156850000Y-84150000D01*
X156850000Y-84150000D02*
X158650000Y-84150000D01*
X158650000Y-84150000D02*
X158650000Y-81350000D01*
X158650000Y-81350000D02*
X156850000Y-81350000D01*
D13*
X82770000Y-74012000D02*
X80166500Y-74012000D01*
X80166500Y-74012000D02*
X80166500Y-72488000D01*
X80166500Y-72488000D02*
X82770000Y-72488000D01*
X82770000Y-72488000D02*
X82770000Y-74012000D01*
X106770000Y-73762000D02*
X104166500Y-73762000D01*
X104166500Y-73762000D02*
X104166500Y-72238000D01*
X104166500Y-72238000D02*
X106770000Y-72238000D01*
X106770000Y-72238000D02*
X106770000Y-73762000D01*
X93770000Y-72012000D02*
X91166500Y-72012000D01*
X91166500Y-72012000D02*
X91166500Y-70488000D01*
X91166500Y-70488000D02*
X93770000Y-70488000D01*
X93770000Y-70488000D02*
X93770000Y-72012000D01*
X179762000Y-77980000D02*
X179762000Y-80583500D01*
X179762000Y-80583500D02*
X178238000Y-80583500D01*
X178238000Y-80583500D02*
X178238000Y-77980000D01*
X178238000Y-77980000D02*
X179762000Y-77980000D01*
D15*
X93599820Y-76797560D02*
X93599820Y-76497840D01*
X93599820Y-76497840D02*
X93099440Y-76497840D01*
X93099440Y-76797560D02*
X93099440Y-76497840D01*
X93599820Y-76797560D02*
X93099440Y-76797560D01*
X93599820Y-76149860D02*
X93599820Y-75850140D01*
X93599820Y-75850140D02*
X93099440Y-75850140D01*
X93099440Y-76149860D02*
X93099440Y-75850140D01*
X93599820Y-76149860D02*
X93099440Y-76149860D01*
X93599820Y-75502160D02*
X93599820Y-75202440D01*
X93599820Y-75202440D02*
X93099440Y-75202440D01*
X93099440Y-75502160D02*
X93099440Y-75202440D01*
X93599820Y-75502160D02*
X93099440Y-75502160D01*
X91900560Y-75502160D02*
X91900560Y-75202440D01*
X91900560Y-75202440D02*
X91400180Y-75202440D01*
X91400180Y-75502160D02*
X91400180Y-75202440D01*
X91900560Y-75502160D02*
X91400180Y-75502160D01*
X91900560Y-76149860D02*
X91900560Y-75850140D01*
X91900560Y-75850140D02*
X91400180Y-75850140D01*
X91400180Y-76149860D02*
X91400180Y-75850140D01*
X91900560Y-76149860D02*
X91400180Y-76149860D01*
X91900560Y-76797560D02*
X91900560Y-76497840D01*
X91900560Y-76497840D02*
X91400180Y-76497840D01*
X91400180Y-76797560D02*
X91400180Y-76497840D01*
X91900560Y-76797560D02*
X91400180Y-76797560D01*
D16*
X91951360Y-76998220D02*
X91951360Y-75001780D01*
X91951360Y-75001780D02*
X93048640Y-75001780D01*
X93048640Y-75001780D02*
X93048640Y-76998220D01*
X93048640Y-76998220D02*
X91951360Y-76998220D01*
D11*
X92853091Y-76698500D02*
G75*
G03X92853091Y-76698500I-104171J0D01*
G01*
D15*
X161952440Y-77099820D02*
X162252160Y-77099820D01*
X162252160Y-77099820D02*
X162252160Y-76599440D01*
X161952440Y-76599440D02*
X162252160Y-76599440D01*
X161952440Y-77099820D02*
X161952440Y-76599440D01*
X162600140Y-77099820D02*
X162899860Y-77099820D01*
X162899860Y-77099820D02*
X162899860Y-76599440D01*
X162600140Y-76599440D02*
X162899860Y-76599440D01*
X162600140Y-77099820D02*
X162600140Y-76599440D01*
X163247840Y-77099820D02*
X163547560Y-77099820D01*
X163547560Y-77099820D02*
X163547560Y-76599440D01*
X163247840Y-76599440D02*
X163547560Y-76599440D01*
X163247840Y-77099820D02*
X163247840Y-76599440D01*
X163247840Y-75400560D02*
X163547560Y-75400560D01*
X163547560Y-75400560D02*
X163547560Y-74900180D01*
X163247840Y-74900180D02*
X163547560Y-74900180D01*
X163247840Y-75400560D02*
X163247840Y-74900180D01*
X162600140Y-75400560D02*
X162899860Y-75400560D01*
X162899860Y-75400560D02*
X162899860Y-74900180D01*
X162600140Y-74900180D02*
X162899860Y-74900180D01*
X162600140Y-75400560D02*
X162600140Y-74900180D01*
X161952440Y-75400560D02*
X162252160Y-75400560D01*
X162252160Y-75400560D02*
X162252160Y-74900180D01*
X161952440Y-74900180D02*
X162252160Y-74900180D01*
X161952440Y-75400560D02*
X161952440Y-74900180D01*
D16*
X161751780Y-75451360D02*
X163748220Y-75451360D01*
X163748220Y-75451360D02*
X163748220Y-76548640D01*
X163748220Y-76548640D02*
X161751780Y-76548640D01*
X161751780Y-76548640D02*
X161751780Y-75451360D01*
D11*
X162155671Y-76248920D02*
G75*
G03X162155671Y-76248920I-104171J0D01*
G01*
D15*
X164952440Y-77099820D02*
X165252160Y-77099820D01*
X165252160Y-77099820D02*
X165252160Y-76599440D01*
X164952440Y-76599440D02*
X165252160Y-76599440D01*
X164952440Y-77099820D02*
X164952440Y-76599440D01*
X165600140Y-77099820D02*
X165899860Y-77099820D01*
X165899860Y-77099820D02*
X165899860Y-76599440D01*
X165600140Y-76599440D02*
X165899860Y-76599440D01*
X165600140Y-77099820D02*
X165600140Y-76599440D01*
X166247840Y-77099820D02*
X166547560Y-77099820D01*
X166547560Y-77099820D02*
X166547560Y-76599440D01*
X166247840Y-76599440D02*
X166547560Y-76599440D01*
X166247840Y-77099820D02*
X166247840Y-76599440D01*
X166247840Y-75400560D02*
X166547560Y-75400560D01*
X166547560Y-75400560D02*
X166547560Y-74900180D01*
X166247840Y-74900180D02*
X166547560Y-74900180D01*
X166247840Y-75400560D02*
X166247840Y-74900180D01*
X165600140Y-75400560D02*
X165899860Y-75400560D01*
X165899860Y-75400560D02*
X165899860Y-74900180D01*
X165600140Y-74900180D02*
X165899860Y-74900180D01*
X165600140Y-75400560D02*
X165600140Y-74900180D01*
X164952440Y-75400560D02*
X165252160Y-75400560D01*
X165252160Y-75400560D02*
X165252160Y-74900180D01*
X164952440Y-74900180D02*
X165252160Y-74900180D01*
X164952440Y-75400560D02*
X164952440Y-74900180D01*
D16*
X164751780Y-75451360D02*
X166748220Y-75451360D01*
X166748220Y-75451360D02*
X166748220Y-76548640D01*
X166748220Y-76548640D02*
X164751780Y-76548640D01*
X164751780Y-76548640D02*
X164751780Y-75451360D01*
D11*
X165155671Y-76248920D02*
G75*
G03X165155671Y-76248920I-104171J0D01*
G01*
D13*
X117770000Y-71762000D02*
X115166500Y-71762000D01*
X115166500Y-71762000D02*
X115166500Y-70238000D01*
X115166500Y-70238000D02*
X117770000Y-70238000D01*
X117770000Y-70238000D02*
X117770000Y-71762000D01*
D15*
X117599820Y-76547560D02*
X117599820Y-76247840D01*
X117599820Y-76247840D02*
X117099440Y-76247840D01*
X117099440Y-76547560D02*
X117099440Y-76247840D01*
X117599820Y-76547560D02*
X117099440Y-76547560D01*
X117599820Y-75899860D02*
X117599820Y-75600140D01*
X117599820Y-75600140D02*
X117099440Y-75600140D01*
X117099440Y-75899860D02*
X117099440Y-75600140D01*
X117599820Y-75899860D02*
X117099440Y-75899860D01*
X117599820Y-75252160D02*
X117599820Y-74952440D01*
X117599820Y-74952440D02*
X117099440Y-74952440D01*
X117099440Y-75252160D02*
X117099440Y-74952440D01*
X117599820Y-75252160D02*
X117099440Y-75252160D01*
X115900560Y-75252160D02*
X115900560Y-74952440D01*
X115900560Y-74952440D02*
X115400180Y-74952440D01*
X115400180Y-75252160D02*
X115400180Y-74952440D01*
X115900560Y-75252160D02*
X115400180Y-75252160D01*
X115900560Y-75899860D02*
X115900560Y-75600140D01*
X115900560Y-75600140D02*
X115400180Y-75600140D01*
X115400180Y-75899860D02*
X115400180Y-75600140D01*
X115900560Y-75899860D02*
X115400180Y-75899860D01*
X115900560Y-76547560D02*
X115900560Y-76247840D01*
X115900560Y-76247840D02*
X115400180Y-76247840D01*
X115400180Y-76547560D02*
X115400180Y-76247840D01*
X115900560Y-76547560D02*
X115400180Y-76547560D01*
D16*
X115951360Y-76748220D02*
X115951360Y-74751780D01*
X115951360Y-74751780D02*
X117048640Y-74751780D01*
X117048640Y-74751780D02*
X117048640Y-76748220D01*
X117048640Y-76748220D02*
X115951360Y-76748220D01*
D11*
X116853091Y-76448500D02*
G75*
G03X116853091Y-76448500I-104171J0D01*
G01*
D13*
X203012000Y-77980000D02*
X203012000Y-80583500D01*
X203012000Y-80583500D02*
X201488000Y-80583500D01*
X201488000Y-80583500D02*
X201488000Y-77980000D01*
X201488000Y-77980000D02*
X203012000Y-77980000D01*
D15*
X185202440Y-77099820D02*
X185502160Y-77099820D01*
X185502160Y-77099820D02*
X185502160Y-76599440D01*
X185202440Y-76599440D02*
X185502160Y-76599440D01*
X185202440Y-77099820D02*
X185202440Y-76599440D01*
X185850140Y-77099820D02*
X186149860Y-77099820D01*
X186149860Y-77099820D02*
X186149860Y-76599440D01*
X185850140Y-76599440D02*
X186149860Y-76599440D01*
X185850140Y-77099820D02*
X185850140Y-76599440D01*
X186497840Y-77099820D02*
X186797560Y-77099820D01*
X186797560Y-77099820D02*
X186797560Y-76599440D01*
X186497840Y-76599440D02*
X186797560Y-76599440D01*
X186497840Y-77099820D02*
X186497840Y-76599440D01*
X186497840Y-75400560D02*
X186797560Y-75400560D01*
X186797560Y-75400560D02*
X186797560Y-74900180D01*
X186497840Y-74900180D02*
X186797560Y-74900180D01*
X186497840Y-75400560D02*
X186497840Y-74900180D01*
X185850140Y-75400560D02*
X186149860Y-75400560D01*
X186149860Y-75400560D02*
X186149860Y-74900180D01*
X185850140Y-74900180D02*
X186149860Y-74900180D01*
X185850140Y-75400560D02*
X185850140Y-74900180D01*
X185202440Y-75400560D02*
X185502160Y-75400560D01*
X185502160Y-75400560D02*
X185502160Y-74900180D01*
X185202440Y-74900180D02*
X185502160Y-74900180D01*
X185202440Y-75400560D02*
X185202440Y-74900180D01*
D16*
X185001780Y-75451360D02*
X186998220Y-75451360D01*
X186998220Y-75451360D02*
X186998220Y-76548640D01*
X186998220Y-76548640D02*
X185001780Y-76548640D01*
X185001780Y-76548640D02*
X185001780Y-75451360D01*
D11*
X185405671Y-76248920D02*
G75*
G03X185405671Y-76248920I-104171J0D01*
G01*
D15*
X188202440Y-77099820D02*
X188502160Y-77099820D01*
X188502160Y-77099820D02*
X188502160Y-76599440D01*
X188202440Y-76599440D02*
X188502160Y-76599440D01*
X188202440Y-77099820D02*
X188202440Y-76599440D01*
X188850140Y-77099820D02*
X189149860Y-77099820D01*
X189149860Y-77099820D02*
X189149860Y-76599440D01*
X188850140Y-76599440D02*
X189149860Y-76599440D01*
X188850140Y-77099820D02*
X188850140Y-76599440D01*
X189497840Y-77099820D02*
X189797560Y-77099820D01*
X189797560Y-77099820D02*
X189797560Y-76599440D01*
X189497840Y-76599440D02*
X189797560Y-76599440D01*
X189497840Y-77099820D02*
X189497840Y-76599440D01*
X189497840Y-75400560D02*
X189797560Y-75400560D01*
X189797560Y-75400560D02*
X189797560Y-74900180D01*
X189497840Y-74900180D02*
X189797560Y-74900180D01*
X189497840Y-75400560D02*
X189497840Y-74900180D01*
X188850140Y-75400560D02*
X189149860Y-75400560D01*
X189149860Y-75400560D02*
X189149860Y-74900180D01*
X188850140Y-74900180D02*
X189149860Y-74900180D01*
X188850140Y-75400560D02*
X188850140Y-74900180D01*
X188202440Y-75400560D02*
X188502160Y-75400560D01*
X188502160Y-75400560D02*
X188502160Y-74900180D01*
X188202440Y-74900180D02*
X188502160Y-74900180D01*
X188202440Y-75400560D02*
X188202440Y-74900180D01*
D16*
X188001780Y-75451360D02*
X189998220Y-75451360D01*
X189998220Y-75451360D02*
X189998220Y-76548640D01*
X189998220Y-76548640D02*
X188001780Y-76548640D01*
X188001780Y-76548640D02*
X188001780Y-75451360D01*
D11*
X188405671Y-76248920D02*
G75*
G03X188405671Y-76248920I-104171J0D01*
G01*
D15*
X155150180Y-84452440D02*
X155150180Y-84752160D01*
X155150180Y-84752160D02*
X155650560Y-84752160D01*
X155650560Y-84452440D02*
X155650560Y-84752160D01*
X155150180Y-84452440D02*
X155650560Y-84452440D01*
X155150180Y-85100140D02*
X155150180Y-85399860D01*
X155150180Y-85399860D02*
X155650560Y-85399860D01*
X155650560Y-85100140D02*
X155650560Y-85399860D01*
X155150180Y-85100140D02*
X155650560Y-85100140D01*
X155150180Y-85747840D02*
X155150180Y-86047560D01*
X155150180Y-86047560D02*
X155650560Y-86047560D01*
X155650560Y-85747840D02*
X155650560Y-86047560D01*
X155150180Y-85747840D02*
X155650560Y-85747840D01*
X156849440Y-85747840D02*
X156849440Y-86047560D01*
X156849440Y-86047560D02*
X157349820Y-86047560D01*
X157349820Y-85747840D02*
X157349820Y-86047560D01*
X156849440Y-85747840D02*
X157349820Y-85747840D01*
X156849440Y-85100140D02*
X156849440Y-85399860D01*
X156849440Y-85399860D02*
X157349820Y-85399860D01*
X157349820Y-85100140D02*
X157349820Y-85399860D01*
X156849440Y-85100140D02*
X157349820Y-85100140D01*
X156849440Y-84452440D02*
X156849440Y-84752160D01*
X156849440Y-84752160D02*
X157349820Y-84752160D01*
X157349820Y-84452440D02*
X157349820Y-84752160D01*
X156849440Y-84452440D02*
X157349820Y-84452440D01*
D16*
X156798640Y-84251780D02*
X156798640Y-86248220D01*
X156798640Y-86248220D02*
X155701360Y-86248220D01*
X155701360Y-86248220D02*
X155701360Y-84251780D01*
X155701360Y-84251780D02*
X156798640Y-84251780D01*
D11*
X156105251Y-84551500D02*
G75*
G03X156105251Y-84551500I-104171J0D01*
G01*
D14*
X167850000Y-67900000D02*
X170650000Y-67900000D01*
X170650000Y-67900000D02*
X170650000Y-66100000D01*
X170650000Y-66100000D02*
X167850000Y-66100000D01*
X167850000Y-66100000D02*
X167850000Y-67900000D01*
X82900000Y-82600000D02*
X80100000Y-82600000D01*
X80100000Y-82600000D02*
X80100000Y-84400000D01*
X80100000Y-84400000D02*
X82900000Y-84400000D01*
X82900000Y-84400000D02*
X82900000Y-82600000D01*
X82950900Y-84400000D02*
X85750900Y-84400000D01*
X85750900Y-84400000D02*
X85750900Y-82600000D01*
X85750900Y-82600000D02*
X82950900Y-82600000D01*
X82950900Y-82600000D02*
X82950900Y-84400000D01*
X80100000Y-82650000D02*
X82900000Y-82650000D01*
X82900000Y-82650000D02*
X82900000Y-80850000D01*
X82900000Y-80850000D02*
X80100000Y-80850000D01*
X80100000Y-80850000D02*
X80100000Y-82650000D01*
X170650000Y-67850000D02*
X167850000Y-67850000D01*
X167850000Y-67850000D02*
X167850000Y-69650000D01*
X167850000Y-69650000D02*
X170650000Y-69650000D01*
X170650000Y-69650000D02*
X170650000Y-67850000D01*
X95350000Y-75150000D02*
X98150000Y-75150000D01*
X98150000Y-75150000D02*
X98150000Y-73350000D01*
X98150000Y-73350000D02*
X95350000Y-73350000D01*
X95350000Y-73350000D02*
X95350000Y-75150000D01*
X172100000Y-64850000D02*
X172100000Y-67650000D01*
X172100000Y-67650000D02*
X173900000Y-67650000D01*
X173900000Y-67650000D02*
X173900000Y-64850000D01*
X173900000Y-64850000D02*
X172100000Y-64850000D01*
X180650000Y-75600000D02*
X177850000Y-75600000D01*
X177850000Y-75600000D02*
X177850000Y-77400000D01*
X177850000Y-77400000D02*
X180650000Y-77400000D01*
X180650000Y-77400000D02*
X180650000Y-75600000D01*
X76600000Y-75150000D02*
X79400000Y-75150000D01*
X79400000Y-75150000D02*
X79400000Y-73350000D01*
X79400000Y-73350000D02*
X76600000Y-73350000D01*
X76600000Y-73350000D02*
X76600000Y-75150000D01*
X79400000Y-71600000D02*
X76600000Y-71600000D01*
X76600000Y-71600000D02*
X76600000Y-73400000D01*
X76600000Y-73400000D02*
X79400000Y-73400000D01*
X79400000Y-73400000D02*
X79400000Y-71600000D01*
X79150000Y-84150000D02*
X79150000Y-81350000D01*
X79150000Y-81350000D02*
X77350000Y-81350000D01*
X77350000Y-81350000D02*
X77350000Y-84150000D01*
X77350000Y-84150000D02*
X79150000Y-84150000D01*
X180650000Y-71850000D02*
X177850000Y-71850000D01*
X177850000Y-71850000D02*
X177850000Y-73650000D01*
X177850000Y-73650000D02*
X180650000Y-73650000D01*
X180650000Y-73650000D02*
X180650000Y-71850000D01*
X89400000Y-75100000D02*
X86600000Y-75100000D01*
X86600000Y-75100000D02*
X86600000Y-76900000D01*
X86600000Y-76900000D02*
X89400000Y-76900000D01*
X89400000Y-76900000D02*
X89400000Y-75100000D01*
X173850000Y-64850000D02*
X173850000Y-67650000D01*
X173850000Y-67650000D02*
X175650000Y-67650000D01*
X175650000Y-67650000D02*
X175650000Y-64850000D01*
X175650000Y-64850000D02*
X173850000Y-64850000D01*
X89299100Y-80850000D02*
X86499100Y-80850000D01*
X86499100Y-80850000D02*
X86499100Y-82650000D01*
X86499100Y-82650000D02*
X89299100Y-82650000D01*
X89299100Y-82650000D02*
X89299100Y-80850000D01*
X92850000Y-84400000D02*
X95650000Y-84400000D01*
X95650000Y-84400000D02*
X95650000Y-82600000D01*
X95650000Y-82600000D02*
X92850000Y-82600000D01*
X92850000Y-82600000D02*
X92850000Y-84400000D01*
X83600000Y-75150000D02*
X86400000Y-75150000D01*
X86400000Y-75150000D02*
X86400000Y-73350000D01*
X86400000Y-73350000D02*
X83600000Y-73350000D01*
X83600000Y-73350000D02*
X83600000Y-75150000D01*
X79400000Y-67850000D02*
X76600000Y-67850000D01*
X76600000Y-67850000D02*
X76600000Y-69650000D01*
X76600000Y-69650000D02*
X79400000Y-69650000D01*
X79400000Y-69650000D02*
X79400000Y-67850000D01*
X177850000Y-84400000D02*
X180650000Y-84400000D01*
X180650000Y-84400000D02*
X180650000Y-82600000D01*
X180650000Y-82600000D02*
X177850000Y-82600000D01*
X177850000Y-82600000D02*
X177850000Y-84400000D01*
X95650000Y-80350000D02*
X92850000Y-80350000D01*
X92850000Y-80350000D02*
X92850000Y-82150000D01*
X92850000Y-82150000D02*
X95650000Y-82150000D01*
X95650000Y-82150000D02*
X95650000Y-80350000D01*
X177850000Y-71900000D02*
X180650000Y-71900000D01*
X180650000Y-71900000D02*
X180650000Y-70100000D01*
X180650000Y-70100000D02*
X177850000Y-70100000D01*
X177850000Y-70100000D02*
X177850000Y-71900000D01*
X86400000Y-71600000D02*
X83600000Y-71600000D01*
X83600000Y-71600000D02*
X83600000Y-73400000D01*
X83600000Y-73400000D02*
X86400000Y-73400000D01*
X86400000Y-73400000D02*
X86400000Y-71600000D01*
X92150000Y-80850000D02*
X89350000Y-80850000D01*
X89350000Y-80850000D02*
X89350000Y-82650000D01*
X89350000Y-82650000D02*
X92150000Y-82650000D01*
X92150000Y-82650000D02*
X92150000Y-80850000D01*
X180650000Y-84350000D02*
X177850000Y-84350000D01*
X177850000Y-84350000D02*
X177850000Y-86150000D01*
X177850000Y-86150000D02*
X180650000Y-86150000D01*
X180650000Y-86150000D02*
X180650000Y-84350000D01*
X177850000Y-82650000D02*
X180650000Y-82650000D01*
X180650000Y-82650000D02*
X180650000Y-80850000D01*
X180650000Y-80850000D02*
X177850000Y-80850000D01*
X177850000Y-80850000D02*
X177850000Y-82650000D01*
X95350000Y-72400000D02*
X98150000Y-72400000D01*
X98150000Y-72400000D02*
X98150000Y-70600000D01*
X98150000Y-70600000D02*
X95350000Y-70600000D01*
X95350000Y-70600000D02*
X95350000Y-72400000D01*
X76600000Y-66650000D02*
X79400000Y-66650000D01*
X79400000Y-66650000D02*
X79400000Y-64850000D01*
X79400000Y-64850000D02*
X76600000Y-64850000D01*
X76600000Y-64850000D02*
X76600000Y-66650000D01*
X79400000Y-69600000D02*
X76600000Y-69600000D01*
X76600000Y-69600000D02*
X76600000Y-71400000D01*
X76600000Y-71400000D02*
X79400000Y-71400000D01*
X79400000Y-71400000D02*
X79400000Y-69600000D01*
X86600000Y-73400000D02*
X89400000Y-73400000D01*
X89400000Y-73400000D02*
X89400000Y-71600000D01*
X89400000Y-71600000D02*
X86600000Y-71600000D01*
X86600000Y-71600000D02*
X86600000Y-73400000D01*
X165150000Y-84350000D02*
X162350000Y-84350000D01*
X162350000Y-84350000D02*
X162350000Y-86150000D01*
X162350000Y-86150000D02*
X165150000Y-86150000D01*
X165150000Y-86150000D02*
X165150000Y-84350000D01*
X163900000Y-81150000D02*
X163900000Y-78350000D01*
X163900000Y-78350000D02*
X162100000Y-78350000D01*
X162100000Y-78350000D02*
X162100000Y-81150000D01*
X162100000Y-81150000D02*
X163900000Y-81150000D01*
X162150000Y-81150000D02*
X162150000Y-78350000D01*
X162150000Y-78350000D02*
X160350000Y-78350000D01*
X160350000Y-78350000D02*
X160350000Y-81150000D01*
X160350000Y-81150000D02*
X162150000Y-81150000D01*
X160400000Y-81150000D02*
X160400000Y-78350000D01*
X160400000Y-78350000D02*
X158600000Y-78350000D01*
X158600000Y-78350000D02*
X158600000Y-81150000D01*
X158600000Y-81150000D02*
X160400000Y-81150000D01*
X88600000Y-70400000D02*
X91400000Y-70400000D01*
X91400000Y-70400000D02*
X91400000Y-68600000D01*
X91400000Y-68600000D02*
X88600000Y-68600000D01*
X88600000Y-68600000D02*
X88600000Y-70400000D01*
X96850000Y-66900000D02*
X99650000Y-66900000D01*
X99650000Y-66900000D02*
X99650000Y-65100000D01*
X99650000Y-65100000D02*
X96850000Y-65100000D01*
X96850000Y-65100000D02*
X96850000Y-66900000D01*
X158350000Y-75400000D02*
X161150000Y-75400000D01*
X161150000Y-75400000D02*
X161150000Y-73600000D01*
X161150000Y-73600000D02*
X158350000Y-73600000D01*
X158350000Y-73600000D02*
X158350000Y-75400000D01*
X99650000Y-66850000D02*
X96850000Y-66850000D01*
X96850000Y-66850000D02*
X96850000Y-68650000D01*
X96850000Y-68650000D02*
X99650000Y-68650000D01*
X99650000Y-68650000D02*
X99650000Y-66850000D01*
X171150000Y-84350000D02*
X168350000Y-84350000D01*
X168350000Y-84350000D02*
X168350000Y-86150000D01*
X168350000Y-86150000D02*
X171150000Y-86150000D01*
X171150000Y-86150000D02*
X171150000Y-84350000D01*
X168600000Y-78350000D02*
X168600000Y-81150000D01*
X168600000Y-81150000D02*
X170400000Y-81150000D01*
X170400000Y-81150000D02*
X170400000Y-78350000D01*
X170400000Y-78350000D02*
X168600000Y-78350000D01*
X161150000Y-65100000D02*
X158350000Y-65100000D01*
X158350000Y-65100000D02*
X158350000Y-66900000D01*
X158350000Y-66900000D02*
X161150000Y-66900000D01*
X161150000Y-66900000D02*
X161150000Y-65100000D01*
X166850000Y-78350000D02*
X166850000Y-81150000D01*
X166850000Y-81150000D02*
X168650000Y-81150000D01*
X168650000Y-81150000D02*
X168650000Y-78350000D01*
X168650000Y-78350000D02*
X166850000Y-78350000D01*
X165100000Y-78350000D02*
X165100000Y-81150000D01*
X165100000Y-81150000D02*
X166900000Y-81150000D01*
X166900000Y-81150000D02*
X166900000Y-78350000D01*
X166900000Y-78350000D02*
X165100000Y-78350000D01*
X167850000Y-71400000D02*
X170650000Y-71400000D01*
X170650000Y-71400000D02*
X170650000Y-69600000D01*
X170650000Y-69600000D02*
X167850000Y-69600000D01*
X167850000Y-69600000D02*
X167850000Y-71400000D01*
X158350000Y-71900000D02*
X161150000Y-71900000D01*
X161150000Y-71900000D02*
X161150000Y-70100000D01*
X161150000Y-70100000D02*
X158350000Y-70100000D01*
X158350000Y-70100000D02*
X158350000Y-71900000D01*
X170400000Y-78150000D02*
X170400000Y-75350000D01*
X170400000Y-75350000D02*
X168600000Y-75350000D01*
X168600000Y-75350000D02*
X168600000Y-78150000D01*
X168600000Y-78150000D02*
X170400000Y-78150000D01*
X170600000Y-72350000D02*
X170600000Y-75150000D01*
X170600000Y-75150000D02*
X172400000Y-75150000D01*
X172400000Y-75150000D02*
X172400000Y-72350000D01*
X172400000Y-72350000D02*
X170600000Y-72350000D01*
X106900000Y-82350000D02*
X104100000Y-82350000D01*
X104100000Y-82350000D02*
X104100000Y-84150000D01*
X104100000Y-84150000D02*
X106900000Y-84150000D01*
X106900000Y-84150000D02*
X106900000Y-82350000D01*
X174150000Y-75150000D02*
X174150000Y-72350000D01*
X174150000Y-72350000D02*
X172350000Y-72350000D01*
X172350000Y-72350000D02*
X172350000Y-75150000D01*
X172350000Y-75150000D02*
X174150000Y-75150000D01*
X106850000Y-84150000D02*
X109650000Y-84150000D01*
X109650000Y-84150000D02*
X109650000Y-82350000D01*
X109650000Y-82350000D02*
X106850000Y-82350000D01*
X106850000Y-82350000D02*
X106850000Y-84150000D01*
X104100000Y-82400000D02*
X106900000Y-82400000D01*
X106900000Y-82400000D02*
X106900000Y-80600000D01*
X106900000Y-80600000D02*
X104100000Y-80600000D01*
X104100000Y-80600000D02*
X104100000Y-82400000D01*
X119350000Y-74650000D02*
X122150000Y-74650000D01*
X122150000Y-74650000D02*
X122150000Y-72850000D01*
X122150000Y-72850000D02*
X119350000Y-72850000D01*
X119350000Y-72850000D02*
X119350000Y-74650000D01*
X100350000Y-74900000D02*
X103150000Y-74900000D01*
X103150000Y-74900000D02*
X103150000Y-73100000D01*
X103150000Y-73100000D02*
X100350000Y-73100000D01*
X100350000Y-73100000D02*
X100350000Y-74900000D01*
X103150000Y-71350000D02*
X100350000Y-71350000D01*
X100350000Y-71350000D02*
X100350000Y-73150000D01*
X100350000Y-73150000D02*
X103150000Y-73150000D01*
X103150000Y-73150000D02*
X103150000Y-71350000D01*
X100100000Y-82400000D02*
X102900000Y-82400000D01*
X102900000Y-82400000D02*
X102900000Y-80600000D01*
X102900000Y-80600000D02*
X100100000Y-80600000D01*
X100100000Y-80600000D02*
X100100000Y-82400000D01*
X113400000Y-74850000D02*
X110600000Y-74850000D01*
X110600000Y-74850000D02*
X110600000Y-76650000D01*
X110600000Y-76650000D02*
X113400000Y-76650000D01*
X113400000Y-76650000D02*
X113400000Y-74850000D01*
X113650000Y-80600000D02*
X110850000Y-80600000D01*
X110850000Y-80600000D02*
X110850000Y-82400000D01*
X110850000Y-82400000D02*
X113650000Y-82400000D01*
X113650000Y-82400000D02*
X113650000Y-80600000D01*
X117100000Y-84150000D02*
X119900000Y-84150000D01*
X119900000Y-84150000D02*
X119900000Y-82350000D01*
X119900000Y-82350000D02*
X117100000Y-82350000D01*
X117100000Y-82350000D02*
X117100000Y-84150000D01*
X107600000Y-74900000D02*
X110400000Y-74900000D01*
X110400000Y-74900000D02*
X110400000Y-73100000D01*
X110400000Y-73100000D02*
X107600000Y-73100000D01*
X107600000Y-73100000D02*
X107600000Y-74900000D01*
X103150000Y-67600000D02*
X100350000Y-67600000D01*
X100350000Y-67600000D02*
X100350000Y-69400000D01*
X100350000Y-69400000D02*
X103150000Y-69400000D01*
X103150000Y-69400000D02*
X103150000Y-67600000D01*
X191100000Y-67900000D02*
X193900000Y-67900000D01*
X193900000Y-67900000D02*
X193900000Y-66100000D01*
X193900000Y-66100000D02*
X191100000Y-66100000D01*
X191100000Y-66100000D02*
X191100000Y-67900000D01*
X119900000Y-80100000D02*
X117100000Y-80100000D01*
X117100000Y-80100000D02*
X117100000Y-81900000D01*
X117100000Y-81900000D02*
X119900000Y-81900000D01*
X119900000Y-81900000D02*
X119900000Y-80100000D01*
X110400000Y-71350000D02*
X107600000Y-71350000D01*
X107600000Y-71350000D02*
X107600000Y-73150000D01*
X107600000Y-73150000D02*
X110400000Y-73150000D01*
X110400000Y-73150000D02*
X110400000Y-71350000D01*
X116400000Y-80600000D02*
X113600000Y-80600000D01*
X113600000Y-80600000D02*
X113600000Y-82400000D01*
X113600000Y-82400000D02*
X116400000Y-82400000D01*
X116400000Y-82400000D02*
X116400000Y-80600000D01*
X119350000Y-72150000D02*
X122150000Y-72150000D01*
X122150000Y-72150000D02*
X122150000Y-70350000D01*
X122150000Y-70350000D02*
X119350000Y-70350000D01*
X119350000Y-70350000D02*
X119350000Y-72150000D01*
X100350000Y-66400000D02*
X103150000Y-66400000D01*
X103150000Y-66400000D02*
X103150000Y-64600000D01*
X103150000Y-64600000D02*
X100350000Y-64600000D01*
X100350000Y-64600000D02*
X100350000Y-66400000D01*
X103150000Y-69350000D02*
X100350000Y-69350000D01*
X100350000Y-69350000D02*
X100350000Y-71150000D01*
X100350000Y-71150000D02*
X103150000Y-71150000D01*
X103150000Y-71150000D02*
X103150000Y-69350000D01*
X193900000Y-67850000D02*
X191100000Y-67850000D01*
X191100000Y-67850000D02*
X191100000Y-69650000D01*
X191100000Y-69650000D02*
X193900000Y-69650000D01*
X193900000Y-69650000D02*
X193900000Y-67850000D01*
X110600000Y-73150000D02*
X113400000Y-73150000D01*
X113400000Y-73150000D02*
X113400000Y-71350000D01*
X113400000Y-71350000D02*
X110600000Y-71350000D01*
X110600000Y-71350000D02*
X110600000Y-73150000D01*
X195350000Y-64850000D02*
X195350000Y-67650000D01*
X195350000Y-67650000D02*
X197150000Y-67650000D01*
X197150000Y-67650000D02*
X197150000Y-64850000D01*
X197150000Y-64850000D02*
X195350000Y-64850000D01*
X203900000Y-75600000D02*
X201100000Y-75600000D01*
X201100000Y-75600000D02*
X201100000Y-77400000D01*
X201100000Y-77400000D02*
X203900000Y-77400000D01*
X203900000Y-77400000D02*
X203900000Y-75600000D01*
X203900000Y-71850000D02*
X201100000Y-71850000D01*
X201100000Y-71850000D02*
X201100000Y-73650000D01*
X201100000Y-73650000D02*
X203900000Y-73650000D01*
X203900000Y-73650000D02*
X203900000Y-71850000D01*
X197100000Y-64850000D02*
X197100000Y-67650000D01*
X197100000Y-67650000D02*
X198900000Y-67650000D01*
X198900000Y-67650000D02*
X198900000Y-64850000D01*
X198900000Y-64850000D02*
X197100000Y-64850000D01*
X112600000Y-70150000D02*
X115400000Y-70150000D01*
X115400000Y-70150000D02*
X115400000Y-68350000D01*
X115400000Y-68350000D02*
X112600000Y-68350000D01*
X112600000Y-68350000D02*
X112600000Y-70150000D01*
X120850000Y-66650000D02*
X123650000Y-66650000D01*
X123650000Y-66650000D02*
X123650000Y-64850000D01*
X123650000Y-64850000D02*
X120850000Y-64850000D01*
X120850000Y-64850000D02*
X120850000Y-66650000D01*
X203900000Y-82600000D02*
X201100000Y-82600000D01*
X201100000Y-82600000D02*
X201100000Y-84400000D01*
X201100000Y-84400000D02*
X203900000Y-84400000D01*
X203900000Y-84400000D02*
X203900000Y-82600000D01*
X201100000Y-71900000D02*
X203900000Y-71900000D01*
X203900000Y-71900000D02*
X203900000Y-70100000D01*
X203900000Y-70100000D02*
X201100000Y-70100000D01*
X201100000Y-70100000D02*
X201100000Y-71900000D01*
X201100000Y-86150000D02*
X203900000Y-86150000D01*
X203900000Y-86150000D02*
X203900000Y-84350000D01*
X203900000Y-84350000D02*
X201100000Y-84350000D01*
X201100000Y-84350000D02*
X201100000Y-86150000D01*
X203900000Y-80850000D02*
X201100000Y-80850000D01*
X201100000Y-80850000D02*
X201100000Y-82650000D01*
X201100000Y-82650000D02*
X203900000Y-82650000D01*
X203900000Y-82650000D02*
X203900000Y-80850000D01*
X123650000Y-66600000D02*
X120850000Y-66600000D01*
X120850000Y-66600000D02*
X120850000Y-68400000D01*
X120850000Y-68400000D02*
X123650000Y-68400000D01*
X123650000Y-68400000D02*
X123650000Y-66600000D01*
X188400000Y-84350000D02*
X185600000Y-84350000D01*
X185600000Y-84350000D02*
X185600000Y-86150000D01*
X185600000Y-86150000D02*
X188400000Y-86150000D01*
X188400000Y-86150000D02*
X188400000Y-84350000D01*
X187150000Y-81150000D02*
X187150000Y-78350000D01*
X187150000Y-78350000D02*
X185350000Y-78350000D01*
X185350000Y-78350000D02*
X185350000Y-81150000D01*
X185350000Y-81150000D02*
X187150000Y-81150000D01*
X185400000Y-81150000D02*
X185400000Y-78350000D01*
X185400000Y-78350000D02*
X183600000Y-78350000D01*
X183600000Y-78350000D02*
X183600000Y-81150000D01*
X183600000Y-81150000D02*
X185400000Y-81150000D01*
X183650000Y-81150000D02*
X183650000Y-78350000D01*
X183650000Y-78350000D02*
X181850000Y-78350000D01*
X181850000Y-78350000D02*
X181850000Y-81150000D01*
X181850000Y-81150000D02*
X183650000Y-81150000D01*
X181600000Y-75400000D02*
X184400000Y-75400000D01*
X184400000Y-75400000D02*
X184400000Y-73600000D01*
X184400000Y-73600000D02*
X181600000Y-73600000D01*
X181600000Y-73600000D02*
X181600000Y-75400000D01*
X194400000Y-84350000D02*
X191600000Y-84350000D01*
X191600000Y-84350000D02*
X191600000Y-86150000D01*
X191600000Y-86150000D02*
X194400000Y-86150000D01*
X194400000Y-86150000D02*
X194400000Y-84350000D01*
X191850000Y-78350000D02*
X191850000Y-81150000D01*
X191850000Y-81150000D02*
X193650000Y-81150000D01*
X193650000Y-81150000D02*
X193650000Y-78350000D01*
X193650000Y-78350000D02*
X191850000Y-78350000D01*
X184400000Y-65100000D02*
X181600000Y-65100000D01*
X181600000Y-65100000D02*
X181600000Y-66900000D01*
X181600000Y-66900000D02*
X184400000Y-66900000D01*
X184400000Y-66900000D02*
X184400000Y-65100000D01*
X190100000Y-78350000D02*
X190100000Y-81150000D01*
X190100000Y-81150000D02*
X191900000Y-81150000D01*
X191900000Y-81150000D02*
X191900000Y-78350000D01*
X191900000Y-78350000D02*
X190100000Y-78350000D01*
X188350000Y-78350000D02*
X188350000Y-81150000D01*
X188350000Y-81150000D02*
X190150000Y-81150000D01*
X190150000Y-81150000D02*
X190150000Y-78350000D01*
X190150000Y-78350000D02*
X188350000Y-78350000D01*
X191100000Y-71400000D02*
X193900000Y-71400000D01*
X193900000Y-71400000D02*
X193900000Y-69600000D01*
X193900000Y-69600000D02*
X191100000Y-69600000D01*
X191100000Y-69600000D02*
X191100000Y-71400000D01*
X181600000Y-71900000D02*
X184400000Y-71900000D01*
X184400000Y-71900000D02*
X184400000Y-70100000D01*
X184400000Y-70100000D02*
X181600000Y-70100000D01*
X181600000Y-70100000D02*
X181600000Y-71900000D01*
X193650000Y-78150000D02*
X193650000Y-75350000D01*
X193650000Y-75350000D02*
X191850000Y-75350000D01*
X191850000Y-75350000D02*
X191850000Y-78150000D01*
X191850000Y-78150000D02*
X193650000Y-78150000D01*
X193850000Y-72350000D02*
X193850000Y-75150000D01*
X193850000Y-75150000D02*
X195650000Y-75150000D01*
X195650000Y-75150000D02*
X195650000Y-72350000D01*
X195650000Y-72350000D02*
X193850000Y-72350000D01*
X197400000Y-75150000D02*
X197400000Y-72350000D01*
X197400000Y-72350000D02*
X195600000Y-72350000D01*
X195600000Y-72350000D02*
X195600000Y-75150000D01*
X195600000Y-75150000D02*
X197400000Y-75150000D01*
X144850000Y-66850000D02*
X144850000Y-69650000D01*
X144850000Y-69650000D02*
X146650000Y-69650000D01*
X146650000Y-69650000D02*
X146650000Y-66850000D01*
X146650000Y-66850000D02*
X144850000Y-66850000D01*
X124350000Y-67900000D02*
X127150000Y-67900000D01*
X127150000Y-67900000D02*
X127150000Y-66100000D01*
X127150000Y-66100000D02*
X124350000Y-66100000D01*
X124350000Y-66100000D02*
X124350000Y-67900000D01*
X128100000Y-67400000D02*
X130900000Y-67400000D01*
X130900000Y-67400000D02*
X130900000Y-65600000D01*
X130900000Y-65600000D02*
X128100000Y-65600000D01*
X128100000Y-65600000D02*
X128100000Y-67400000D01*
X134150000Y-65600000D02*
X131350000Y-65600000D01*
X131350000Y-65600000D02*
X131350000Y-67400000D01*
X131350000Y-67400000D02*
X134150000Y-67400000D01*
X134150000Y-67400000D02*
X134150000Y-65600000D01*
X137850000Y-67400000D02*
X140650000Y-67400000D01*
X140650000Y-67400000D02*
X140650000Y-65600000D01*
X140650000Y-65600000D02*
X137850000Y-65600000D01*
X137850000Y-65600000D02*
X137850000Y-67400000D01*
X143900000Y-65600000D02*
X141100000Y-65600000D01*
X141100000Y-65600000D02*
X141100000Y-67400000D01*
X141100000Y-67400000D02*
X143900000Y-67400000D01*
X143900000Y-67400000D02*
X143900000Y-65600000D01*
X127150000Y-70900000D02*
X127150000Y-68100000D01*
X127150000Y-68100000D02*
X125350000Y-68100000D01*
X125350000Y-68100000D02*
X125350000Y-70900000D01*
X125350000Y-70900000D02*
X127150000Y-70900000D01*
X144850000Y-69600000D02*
X144850000Y-72400000D01*
X144850000Y-72400000D02*
X146650000Y-72400000D01*
X146650000Y-72400000D02*
X146650000Y-69600000D01*
X146650000Y-69600000D02*
X144850000Y-69600000D01*
X123350000Y-71100000D02*
X123350000Y-73900000D01*
X123350000Y-73900000D02*
X125150000Y-73900000D01*
X125150000Y-73900000D02*
X125150000Y-71100000D01*
X125150000Y-71100000D02*
X123350000Y-71100000D01*
X124850000Y-78350000D02*
X124850000Y-81150000D01*
X124850000Y-81150000D02*
X126650000Y-81150000D01*
X126650000Y-81150000D02*
X126650000Y-78350000D01*
X126650000Y-78350000D02*
X124850000Y-78350000D01*
X134850000Y-78350000D02*
X134850000Y-81150000D01*
X134850000Y-81150000D02*
X136650000Y-81150000D01*
X136650000Y-81150000D02*
X136650000Y-78350000D01*
X136650000Y-78350000D02*
X134850000Y-78350000D01*
X143100000Y-78350000D02*
X143100000Y-81150000D01*
X143100000Y-81150000D02*
X144900000Y-81150000D01*
X144900000Y-81150000D02*
X144900000Y-78350000D01*
X144900000Y-78350000D02*
X143100000Y-78350000D01*
X142400000Y-84600000D02*
X139600000Y-84600000D01*
X139600000Y-84600000D02*
X139600000Y-86400000D01*
X139600000Y-86400000D02*
X142400000Y-86400000D01*
X142400000Y-86400000D02*
X142400000Y-84600000D01*
X145400000Y-84600000D02*
X142600000Y-84600000D01*
X142600000Y-84600000D02*
X142600000Y-86400000D01*
X142600000Y-86400000D02*
X145400000Y-86400000D01*
X145400000Y-86400000D02*
X145400000Y-84600000D01*
X125350000Y-71100000D02*
X125350000Y-73900000D01*
X125350000Y-73900000D02*
X127150000Y-73900000D01*
X127150000Y-73900000D02*
X127150000Y-71100000D01*
X127150000Y-71100000D02*
X125350000Y-71100000D01*
X128400000Y-81150000D02*
X128400000Y-78350000D01*
X128400000Y-78350000D02*
X126600000Y-78350000D01*
X126600000Y-78350000D02*
X126600000Y-81150000D01*
X126600000Y-81150000D02*
X128400000Y-81150000D01*
X138400000Y-81150000D02*
X138400000Y-78350000D01*
X138400000Y-78350000D02*
X136600000Y-78350000D01*
X136600000Y-78350000D02*
X136600000Y-81150000D01*
X136600000Y-81150000D02*
X138400000Y-81150000D01*
X144850000Y-75600000D02*
X144850000Y-78400000D01*
X144850000Y-78400000D02*
X146650000Y-78400000D01*
X146650000Y-78400000D02*
X146650000Y-75600000D01*
X146650000Y-75600000D02*
X144850000Y-75600000D01*
X125150000Y-76900000D02*
X125150000Y-74100000D01*
X125150000Y-74100000D02*
X123350000Y-74100000D01*
X123350000Y-74100000D02*
X123350000Y-76900000D01*
X123350000Y-76900000D02*
X125150000Y-76900000D01*
X134150000Y-81150000D02*
X134150000Y-78350000D01*
X134150000Y-78350000D02*
X132350000Y-78350000D01*
X132350000Y-78350000D02*
X132350000Y-81150000D01*
X132350000Y-81150000D02*
X134150000Y-81150000D01*
X143150000Y-81150000D02*
X143150000Y-78350000D01*
X143150000Y-78350000D02*
X141350000Y-78350000D01*
X141350000Y-78350000D02*
X141350000Y-81150000D01*
X141350000Y-81150000D02*
X143150000Y-81150000D01*
X146650000Y-81150000D02*
X146650000Y-78350000D01*
X146650000Y-78350000D02*
X144850000Y-78350000D01*
X144850000Y-78350000D02*
X144850000Y-81150000D01*
X144850000Y-81150000D02*
X146650000Y-81150000D01*
D13*
X158788800Y-86012000D02*
X157772800Y-86012000D01*
X157772800Y-86012000D02*
X157772800Y-84488000D01*
X157772800Y-84488000D02*
X158788800Y-84488000D01*
X160211200Y-84488000D02*
X161227200Y-84488000D01*
X161227200Y-84488000D02*
X161227200Y-86012000D01*
X161227200Y-86012000D02*
X160211200Y-86012000D01*
D14*
X152100000Y-78350000D02*
X152100000Y-81150000D01*
X152100000Y-81150000D02*
X153900000Y-81150000D01*
X153900000Y-81150000D02*
X153900000Y-78350000D01*
X153900000Y-78350000D02*
X152100000Y-78350000D01*
X156900000Y-84150000D02*
X156900000Y-81350000D01*
X156900000Y-81350000D02*
X155100000Y-81350000D01*
X155100000Y-81350000D02*
X155100000Y-84150000D01*
X155100000Y-84150000D02*
X156900000Y-84150000D01*
X149400000Y-81150000D02*
X149400000Y-78350000D01*
X149400000Y-78350000D02*
X147600000Y-78350000D01*
X147600000Y-78350000D02*
X147600000Y-81150000D01*
X147600000Y-81150000D02*
X149400000Y-81150000D01*
X155600000Y-78350000D02*
X155600000Y-81150000D01*
X155600000Y-81150000D02*
X157400000Y-81150000D01*
X157400000Y-81150000D02*
X157400000Y-78350000D01*
X157400000Y-78350000D02*
X155600000Y-78350000D01*
X153850000Y-78350000D02*
X153850000Y-81150000D01*
X153850000Y-81150000D02*
X155650000Y-81150000D01*
X155650000Y-81150000D02*
X155650000Y-78350000D01*
X155650000Y-78350000D02*
X153850000Y-78350000D01*
X160400000Y-84150000D02*
X160400000Y-81350000D01*
X160400000Y-81350000D02*
X158600000Y-81350000D01*
X158600000Y-81350000D02*
X158600000Y-84150000D01*
X158600000Y-84150000D02*
X160400000Y-84150000D01*
D13*
X96461200Y-75238000D02*
X97477200Y-75238000D01*
X97477200Y-75238000D02*
X97477200Y-76762000D01*
X97477200Y-76762000D02*
X96461200Y-76762000D01*
X95038800Y-76762000D02*
X94022800Y-76762000D01*
X94022800Y-76762000D02*
X94022800Y-75238000D01*
X94022800Y-75238000D02*
X95038800Y-75238000D01*
X120461200Y-74988000D02*
X121477200Y-74988000D01*
X121477200Y-74988000D02*
X121477200Y-76512000D01*
X121477200Y-76512000D02*
X120461200Y-76512000D01*
X119038800Y-76512000D02*
X118022800Y-76512000D01*
X118022800Y-76512000D02*
X118022800Y-74988000D01*
X118022800Y-74988000D02*
X119038800Y-74988000D01*
D17*
X79175000Y-75375000D02*
X79175000Y-75600000D01*
X83825000Y-75375000D02*
X83825000Y-75600000D01*
X83825000Y-80625000D02*
X83825000Y-80400000D01*
X79175000Y-80625000D02*
X79175000Y-80400000D01*
X79175000Y-75375000D02*
X83825000Y-75375000D01*
X79175000Y-80625000D02*
X83825000Y-80625000D01*
X79175000Y-75600000D02*
X77825000Y-75600000D01*
X162375000Y-71075000D02*
X162600000Y-71075000D01*
X162375000Y-66425000D02*
X162600000Y-66425000D01*
X167625000Y-66425000D02*
X167400000Y-66425000D01*
X167625000Y-71075000D02*
X167400000Y-71075000D01*
X162375000Y-71075000D02*
X162375000Y-66425000D01*
X167625000Y-71075000D02*
X167625000Y-66425000D01*
X162600000Y-71075000D02*
X162600000Y-72425000D01*
D12*
X174320000Y-72600000D02*
X177180000Y-72600000D01*
X177180000Y-72600000D02*
X177180000Y-76200000D01*
X177180000Y-76200000D02*
X174320000Y-76200000D01*
X174312000Y-76178000D02*
X174312000Y-72622000D01*
X175328000Y-75543000D02*
G75*
G03X175328000Y-75543000I-381000J0D01*
G01*
D13*
X81518800Y-70163000D02*
X85481200Y-70163000D01*
X85481200Y-70163000D02*
X85481200Y-65337000D01*
X85481200Y-65337000D02*
X81518800Y-65337000D01*
X81518800Y-65337000D02*
X81518800Y-70163000D01*
X81518800Y-69655000D02*
X80426600Y-69655000D01*
X81518800Y-68385000D02*
X80426600Y-68385000D01*
X81518800Y-67115000D02*
X80426600Y-67115000D01*
X80426600Y-65845000D02*
X81518800Y-65845000D01*
X85481200Y-65845000D02*
X86573400Y-65845000D01*
X86573400Y-67115000D02*
X85481200Y-67115000D01*
X86573400Y-68385000D02*
X85481200Y-68385000D01*
X86573400Y-69655000D02*
X85481200Y-69655000D01*
X85217067Y-69426400D02*
G75*
G03X85217067Y-69426400I-472467J0D01*
G01*
D12*
X90600000Y-80180000D02*
X90600000Y-77320000D01*
X90600000Y-77320000D02*
X94200000Y-77320000D01*
X94200000Y-77320000D02*
X94200000Y-80180000D01*
X94178000Y-80188000D02*
X90622000Y-80188000D01*
X93924000Y-79553000D02*
G75*
G03X93924000Y-79553000I-381000J0D01*
G01*
X90600000Y-68180000D02*
X90600000Y-65320000D01*
X90600000Y-65320000D02*
X94200000Y-65320000D01*
X94200000Y-65320000D02*
X94200000Y-68180000D01*
X94178000Y-68188000D02*
X90622000Y-68188000D01*
X93924000Y-67553000D02*
G75*
G03X93924000Y-67553000I-381000J0D01*
G01*
D17*
X176975000Y-84450000D02*
X176975000Y-80050000D01*
X171525000Y-86025000D02*
X171525000Y-80050000D01*
X103175000Y-75375000D02*
X103175000Y-75600000D01*
X107825000Y-75375000D02*
X107825000Y-75600000D01*
X107825000Y-80625000D02*
X107825000Y-80400000D01*
X103175000Y-80625000D02*
X103175000Y-80400000D01*
X103175000Y-75375000D02*
X107825000Y-75375000D01*
X103175000Y-80625000D02*
X107825000Y-80625000D01*
X103175000Y-75600000D02*
X101825000Y-75600000D01*
D13*
X105518800Y-69913000D02*
X109481200Y-69913000D01*
X109481200Y-69913000D02*
X109481200Y-65087000D01*
X109481200Y-65087000D02*
X105518800Y-65087000D01*
X105518800Y-65087000D02*
X105518800Y-69913000D01*
X105518800Y-69405000D02*
X104426600Y-69405000D01*
X105518800Y-68135000D02*
X104426600Y-68135000D01*
X105518800Y-66865000D02*
X104426600Y-66865000D01*
X104426600Y-65595000D02*
X105518800Y-65595000D01*
X109481200Y-65595000D02*
X110573400Y-65595000D01*
X110573400Y-66865000D02*
X109481200Y-66865000D01*
X110573400Y-68135000D02*
X109481200Y-68135000D01*
X110573400Y-69405000D02*
X109481200Y-69405000D01*
X109217067Y-69176400D02*
G75*
G03X109217067Y-69176400I-472467J0D01*
G01*
D12*
X114850000Y-79930000D02*
X114850000Y-77070000D01*
X114850000Y-77070000D02*
X118450000Y-77070000D01*
X118450000Y-77070000D02*
X118450000Y-79930000D01*
X118428000Y-79938000D02*
X114872000Y-79938000D01*
X118174000Y-79303000D02*
G75*
G03X118174000Y-79303000I-381000J0D01*
G01*
D17*
X185625000Y-71075000D02*
X185850000Y-71075000D01*
X185625000Y-66425000D02*
X185850000Y-66425000D01*
X190875000Y-66425000D02*
X190650000Y-66425000D01*
X190875000Y-71075000D02*
X190650000Y-71075000D01*
X185625000Y-71075000D02*
X185625000Y-66425000D01*
X190875000Y-71075000D02*
X190875000Y-66425000D01*
X185850000Y-71075000D02*
X185850000Y-72425000D01*
D12*
X197570000Y-72600000D02*
X200430000Y-72600000D01*
X200430000Y-72600000D02*
X200430000Y-76200000D01*
X200430000Y-76200000D02*
X197570000Y-76200000D01*
X197562000Y-76178000D02*
X197562000Y-72622000D01*
X198578000Y-75543000D02*
G75*
G03X198578000Y-75543000I-381000J0D01*
G01*
X114600000Y-67930000D02*
X114600000Y-65070000D01*
X114600000Y-65070000D02*
X118200000Y-65070000D01*
X118200000Y-65070000D02*
X118200000Y-67930000D01*
X118178000Y-67938000D02*
X114622000Y-67938000D01*
X117924000Y-67303000D02*
G75*
G03X117924000Y-67303000I-381000J0D01*
G01*
D17*
X200225000Y-84450000D02*
X200225000Y-80050000D01*
X194775000Y-86025000D02*
X194775000Y-80050000D01*
D12*
X125600000Y-84430000D02*
X125600000Y-81570000D01*
X125600000Y-81570000D02*
X129200000Y-81570000D01*
X129200000Y-81570000D02*
X129200000Y-84430000D01*
X129178000Y-84438000D02*
X125622000Y-84438000D01*
X128924000Y-83803000D02*
G75*
G03X128924000Y-83803000I-381000J0D01*
G01*
X139100000Y-84430000D02*
X139100000Y-81570000D01*
X139100000Y-81570000D02*
X142700000Y-81570000D01*
X142700000Y-81570000D02*
X142700000Y-84430000D01*
X142678000Y-84438000D02*
X139122000Y-84438000D01*
X142424000Y-83803000D02*
G75*
G03X142424000Y-83803000I-381000J0D01*
G01*
D18*
X130891421Y-68450000D02*
G75*
G03X130891421Y-68450000I-141421J0D01*
G01*
D15*
X128151200Y-68061160D02*
X128151200Y-68551380D01*
X128151200Y-68551380D02*
X129251020Y-68551380D01*
X129251020Y-68061160D02*
X129251020Y-68551380D01*
X128151200Y-68061160D02*
X129251020Y-68061160D01*
X128151200Y-69331160D02*
X128151200Y-69821380D01*
X128151200Y-69821380D02*
X129251020Y-69821380D01*
X129251020Y-69331160D02*
X129251020Y-69821380D01*
X128151200Y-69331160D02*
X129251020Y-69331160D01*
X128151200Y-70601160D02*
X128151200Y-71091380D01*
X128151200Y-71091380D02*
X129251020Y-71091380D01*
X129251020Y-70601160D02*
X129251020Y-71091380D01*
X128151200Y-70601160D02*
X129251020Y-70601160D01*
X128151200Y-71871160D02*
X128151200Y-72361380D01*
X128151200Y-72361380D02*
X129251020Y-72361380D01*
X129251020Y-71871160D02*
X129251020Y-72361380D01*
X128151200Y-71871160D02*
X129251020Y-71871160D01*
X133248980Y-74408620D02*
X133248980Y-74898840D01*
X133248980Y-74898840D02*
X134348800Y-74898840D01*
X134348800Y-74408620D02*
X134348800Y-74898840D01*
X133248980Y-74408620D02*
X134348800Y-74408620D01*
X133248980Y-73138620D02*
X133248980Y-73628840D01*
X133248980Y-73628840D02*
X134348800Y-73628840D01*
X134348800Y-73138620D02*
X134348800Y-73628840D01*
X133248980Y-73138620D02*
X134348800Y-73138620D01*
X133248980Y-71871160D02*
X133248980Y-72361380D01*
X133248980Y-72361380D02*
X134348800Y-72361380D01*
X134348800Y-71871160D02*
X134348800Y-72361380D01*
X133248980Y-71871160D02*
X134348800Y-71871160D01*
X133248980Y-70601160D02*
X133248980Y-71091380D01*
X133248980Y-71091380D02*
X134348800Y-71091380D01*
X134348800Y-70601160D02*
X134348800Y-71091380D01*
X133248980Y-70601160D02*
X134348800Y-70601160D01*
X128151200Y-73138620D02*
X128151200Y-73628840D01*
X128151200Y-73628840D02*
X129251020Y-73628840D01*
X129251020Y-73138620D02*
X129251020Y-73628840D01*
X128151200Y-73138620D02*
X129251020Y-73138620D01*
X128151200Y-74408620D02*
X128151200Y-74898840D01*
X128151200Y-74898840D02*
X129251020Y-74898840D01*
X129251020Y-74408620D02*
X129251020Y-74898840D01*
X128151200Y-74408620D02*
X129251020Y-74408620D01*
X128151200Y-75678620D02*
X128151200Y-76168840D01*
X128151200Y-76168840D02*
X129251020Y-76168840D01*
X129251020Y-75678620D02*
X129251020Y-76168840D01*
X128151200Y-75678620D02*
X129251020Y-75678620D01*
X128151200Y-76948620D02*
X128151200Y-77438840D01*
X128151200Y-77438840D02*
X129251020Y-77438840D01*
X129251020Y-76948620D02*
X129251020Y-77438840D01*
X128151200Y-76948620D02*
X129251020Y-76948620D01*
X133248980Y-76948620D02*
X133248980Y-77438840D01*
X133248980Y-77438840D02*
X134348800Y-77438840D01*
X134348800Y-76948620D02*
X134348800Y-77438840D01*
X133248980Y-76948620D02*
X134348800Y-76948620D01*
X133248980Y-75678620D02*
X133248980Y-76168840D01*
X133248980Y-76168840D02*
X134348800Y-76168840D01*
X134348800Y-75678620D02*
X134348800Y-76168840D01*
X133248980Y-75678620D02*
X134348800Y-75678620D01*
X133248980Y-69331160D02*
X133248980Y-69821380D01*
X133248980Y-69821380D02*
X134348800Y-69821380D01*
X134348800Y-69331160D02*
X134348800Y-69821380D01*
X133248980Y-69331160D02*
X134348800Y-69331160D01*
X133248980Y-68061160D02*
X133248980Y-68551380D01*
X133248980Y-68551380D02*
X134348800Y-68551380D01*
X134348800Y-68061160D02*
X134348800Y-68551380D01*
X133248980Y-68061160D02*
X134348800Y-68061160D01*
D16*
X129350080Y-77687760D02*
X129350080Y-67812240D01*
X129350080Y-67812240D02*
X129850460Y-67812240D01*
X129850460Y-67812240D02*
X133149920Y-67812240D01*
X133149920Y-67812240D02*
X133149920Y-77687760D01*
X130100460Y-77687760D02*
X130100460Y-67812240D01*
X133149920Y-77687760D02*
X129850460Y-77687760D01*
X129850460Y-77687760D02*
X129350080Y-77687760D01*
D18*
X140641421Y-68450000D02*
G75*
G03X140641421Y-68450000I-141421J0D01*
G01*
D15*
X137901200Y-68061160D02*
X137901200Y-68551380D01*
X137901200Y-68551380D02*
X139001020Y-68551380D01*
X139001020Y-68061160D02*
X139001020Y-68551380D01*
X137901200Y-68061160D02*
X139001020Y-68061160D01*
X137901200Y-69331160D02*
X137901200Y-69821380D01*
X137901200Y-69821380D02*
X139001020Y-69821380D01*
X139001020Y-69331160D02*
X139001020Y-69821380D01*
X137901200Y-69331160D02*
X139001020Y-69331160D01*
X137901200Y-70601160D02*
X137901200Y-71091380D01*
X137901200Y-71091380D02*
X139001020Y-71091380D01*
X139001020Y-70601160D02*
X139001020Y-71091380D01*
X137901200Y-70601160D02*
X139001020Y-70601160D01*
X137901200Y-71871160D02*
X137901200Y-72361380D01*
X137901200Y-72361380D02*
X139001020Y-72361380D01*
X139001020Y-71871160D02*
X139001020Y-72361380D01*
X137901200Y-71871160D02*
X139001020Y-71871160D01*
X142998980Y-74408620D02*
X142998980Y-74898840D01*
X142998980Y-74898840D02*
X144098800Y-74898840D01*
X144098800Y-74408620D02*
X144098800Y-74898840D01*
X142998980Y-74408620D02*
X144098800Y-74408620D01*
X142998980Y-73138620D02*
X142998980Y-73628840D01*
X142998980Y-73628840D02*
X144098800Y-73628840D01*
X144098800Y-73138620D02*
X144098800Y-73628840D01*
X142998980Y-73138620D02*
X144098800Y-73138620D01*
X142998980Y-71871160D02*
X142998980Y-72361380D01*
X142998980Y-72361380D02*
X144098800Y-72361380D01*
X144098800Y-71871160D02*
X144098800Y-72361380D01*
X142998980Y-71871160D02*
X144098800Y-71871160D01*
X142998980Y-70601160D02*
X142998980Y-71091380D01*
X142998980Y-71091380D02*
X144098800Y-71091380D01*
X144098800Y-70601160D02*
X144098800Y-71091380D01*
X142998980Y-70601160D02*
X144098800Y-70601160D01*
X137901200Y-73138620D02*
X137901200Y-73628840D01*
X137901200Y-73628840D02*
X139001020Y-73628840D01*
X139001020Y-73138620D02*
X139001020Y-73628840D01*
X137901200Y-73138620D02*
X139001020Y-73138620D01*
X137901200Y-74408620D02*
X137901200Y-74898840D01*
X137901200Y-74898840D02*
X139001020Y-74898840D01*
X139001020Y-74408620D02*
X139001020Y-74898840D01*
X137901200Y-74408620D02*
X139001020Y-74408620D01*
X137901200Y-75678620D02*
X137901200Y-76168840D01*
X137901200Y-76168840D02*
X139001020Y-76168840D01*
X139001020Y-75678620D02*
X139001020Y-76168840D01*
X137901200Y-75678620D02*
X139001020Y-75678620D01*
X137901200Y-76948620D02*
X137901200Y-77438840D01*
X137901200Y-77438840D02*
X139001020Y-77438840D01*
X139001020Y-76948620D02*
X139001020Y-77438840D01*
X137901200Y-76948620D02*
X139001020Y-76948620D01*
X142998980Y-76948620D02*
X142998980Y-77438840D01*
X142998980Y-77438840D02*
X144098800Y-77438840D01*
X144098800Y-76948620D02*
X144098800Y-77438840D01*
X142998980Y-76948620D02*
X144098800Y-76948620D01*
X142998980Y-75678620D02*
X142998980Y-76168840D01*
X142998980Y-76168840D02*
X144098800Y-76168840D01*
X144098800Y-75678620D02*
X144098800Y-76168840D01*
X142998980Y-75678620D02*
X144098800Y-75678620D01*
X142998980Y-69331160D02*
X142998980Y-69821380D01*
X142998980Y-69821380D02*
X144098800Y-69821380D01*
X144098800Y-69331160D02*
X144098800Y-69821380D01*
X142998980Y-69331160D02*
X144098800Y-69331160D01*
X142998980Y-68061160D02*
X142998980Y-68551380D01*
X142998980Y-68551380D02*
X144098800Y-68551380D01*
X144098800Y-68061160D02*
X144098800Y-68551380D01*
X142998980Y-68061160D02*
X144098800Y-68061160D01*
D16*
X139100080Y-77687760D02*
X139100080Y-67812240D01*
X139100080Y-67812240D02*
X139600460Y-67812240D01*
X139600460Y-67812240D02*
X142899920Y-67812240D01*
X142899920Y-67812240D02*
X142899920Y-77687760D01*
X139850460Y-77687760D02*
X139850460Y-67812240D01*
X142899920Y-77687760D02*
X139600460Y-77687760D01*
X139600460Y-77687760D02*
X139100080Y-77687760D01*
D18*
X151891421Y-68200000D02*
G75*
G03X151891421Y-68200000I-141421J0D01*
G01*
D15*
X149151200Y-67811160D02*
X149151200Y-68301380D01*
X149151200Y-68301380D02*
X150251020Y-68301380D01*
X150251020Y-67811160D02*
X150251020Y-68301380D01*
X149151200Y-67811160D02*
X150251020Y-67811160D01*
X149151200Y-69081160D02*
X149151200Y-69571380D01*
X149151200Y-69571380D02*
X150251020Y-69571380D01*
X150251020Y-69081160D02*
X150251020Y-69571380D01*
X149151200Y-69081160D02*
X150251020Y-69081160D01*
X149151200Y-70351160D02*
X149151200Y-70841380D01*
X149151200Y-70841380D02*
X150251020Y-70841380D01*
X150251020Y-70351160D02*
X150251020Y-70841380D01*
X149151200Y-70351160D02*
X150251020Y-70351160D01*
X149151200Y-71621160D02*
X149151200Y-72111380D01*
X149151200Y-72111380D02*
X150251020Y-72111380D01*
X150251020Y-71621160D02*
X150251020Y-72111380D01*
X149151200Y-71621160D02*
X150251020Y-71621160D01*
X154248980Y-74158620D02*
X154248980Y-74648840D01*
X154248980Y-74648840D02*
X155348800Y-74648840D01*
X155348800Y-74158620D02*
X155348800Y-74648840D01*
X154248980Y-74158620D02*
X155348800Y-74158620D01*
X154248980Y-72888620D02*
X154248980Y-73378840D01*
X154248980Y-73378840D02*
X155348800Y-73378840D01*
X155348800Y-72888620D02*
X155348800Y-73378840D01*
X154248980Y-72888620D02*
X155348800Y-72888620D01*
X154248980Y-71621160D02*
X154248980Y-72111380D01*
X154248980Y-72111380D02*
X155348800Y-72111380D01*
X155348800Y-71621160D02*
X155348800Y-72111380D01*
X154248980Y-71621160D02*
X155348800Y-71621160D01*
X154248980Y-70351160D02*
X154248980Y-70841380D01*
X154248980Y-70841380D02*
X155348800Y-70841380D01*
X155348800Y-70351160D02*
X155348800Y-70841380D01*
X154248980Y-70351160D02*
X155348800Y-70351160D01*
X149151200Y-72888620D02*
X149151200Y-73378840D01*
X149151200Y-73378840D02*
X150251020Y-73378840D01*
X150251020Y-72888620D02*
X150251020Y-73378840D01*
X149151200Y-72888620D02*
X150251020Y-72888620D01*
X149151200Y-74158620D02*
X149151200Y-74648840D01*
X149151200Y-74648840D02*
X150251020Y-74648840D01*
X150251020Y-74158620D02*
X150251020Y-74648840D01*
X149151200Y-74158620D02*
X150251020Y-74158620D01*
X149151200Y-75428620D02*
X149151200Y-75918840D01*
X149151200Y-75918840D02*
X150251020Y-75918840D01*
X150251020Y-75428620D02*
X150251020Y-75918840D01*
X149151200Y-75428620D02*
X150251020Y-75428620D01*
X149151200Y-76698620D02*
X149151200Y-77188840D01*
X149151200Y-77188840D02*
X150251020Y-77188840D01*
X150251020Y-76698620D02*
X150251020Y-77188840D01*
X149151200Y-76698620D02*
X150251020Y-76698620D01*
X154248980Y-76698620D02*
X154248980Y-77188840D01*
X154248980Y-77188840D02*
X155348800Y-77188840D01*
X155348800Y-76698620D02*
X155348800Y-77188840D01*
X154248980Y-76698620D02*
X155348800Y-76698620D01*
X154248980Y-75428620D02*
X154248980Y-75918840D01*
X154248980Y-75918840D02*
X155348800Y-75918840D01*
X155348800Y-75428620D02*
X155348800Y-75918840D01*
X154248980Y-75428620D02*
X155348800Y-75428620D01*
X154248980Y-69081160D02*
X154248980Y-69571380D01*
X154248980Y-69571380D02*
X155348800Y-69571380D01*
X155348800Y-69081160D02*
X155348800Y-69571380D01*
X154248980Y-69081160D02*
X155348800Y-69081160D01*
X154248980Y-67811160D02*
X154248980Y-68301380D01*
X154248980Y-68301380D02*
X155348800Y-68301380D01*
X155348800Y-67811160D02*
X155348800Y-68301380D01*
X154248980Y-67811160D02*
X155348800Y-67811160D01*
D16*
X150350080Y-77437760D02*
X150350080Y-67562240D01*
X150350080Y-67562240D02*
X150850460Y-67562240D01*
X150850460Y-67562240D02*
X154149920Y-67562240D01*
X154149920Y-67562240D02*
X154149920Y-77437760D01*
X151100460Y-77437760D02*
X151100460Y-67562240D01*
X154149920Y-77437760D02*
X150850460Y-77437760D01*
X150850460Y-77437760D02*
X150350080Y-77437760D01*
D12*
X153150000Y-81320000D02*
X153150000Y-84180000D01*
X153150000Y-84180000D02*
X149550000Y-84180000D01*
X149550000Y-84180000D02*
X149550000Y-81320000D01*
X149572000Y-81312000D02*
X153128000Y-81312000D01*
X150588000Y-81947000D02*
G75*
G03X150588000Y-81947000I-381000J0D01*
G01*
D17*
X128925000Y-90500000D02*
X140175000Y-90500000D01*
X127425000Y-90500000D02*
X73500000Y-90500000D01*
X140175000Y-90500000D02*
X206850000Y-90500000D01*
X128925000Y-90500000D02*
X128925000Y-87450000D01*
X127425000Y-90500000D02*
X127425000Y-87450000D01*
X128175000Y-86700000D02*
G75*
G03X127425000Y-87450000I0J-750000D01*
G01*
X128925000Y-87450000D02*
G75*
G03X128175000Y-86700000I-750000J0D01*
G01*
X185050000Y-68500000D02*
G75*
G03X185050000Y-68500000I-800000J0D01*
G01*
X183050000Y-68500000D02*
G75*
G03X183050000Y-68500000I-800000J0D01*
G01*
X191550000Y-83000000D02*
G75*
G03X191550000Y-83000000I-800000J0D01*
G01*
X194050000Y-83000000D02*
G75*
G03X194050000Y-83000000I-800000J0D01*
G01*
X189050000Y-83000000D02*
G75*
G03X189050000Y-83000000I-800000J0D01*
G01*
X186550000Y-83000000D02*
G75*
G03X186550000Y-83000000I-800000J0D01*
G01*
X161800000Y-68500000D02*
G75*
G03X161800000Y-68500000I-800000J0D01*
G01*
X159300000Y-68500000D02*
G75*
G03X159300000Y-68500000I-800000J0D01*
G01*
X168300000Y-83000000D02*
G75*
G03X168300000Y-83000000I-800000J0D01*
G01*
X170800000Y-83000000D02*
G75*
G03X170800000Y-83000000I-800000J0D01*
G01*
X165800000Y-83000000D02*
G75*
G03X165800000Y-83000000I-800000J0D01*
G01*
X163300000Y-83000000D02*
G75*
G03X163300000Y-83000000I-800000J0D01*
G01*
D11*
X86898401Y-85217714D02*
X86869372Y-85246743D01*
X86782286Y-85275771D01*
X86724229Y-85275771D01*
X86637144Y-85246743D01*
X86579086Y-85188686D01*
X86550058Y-85130629D01*
X86521029Y-85014514D01*
X86521029Y-84927429D01*
X86550058Y-84811314D01*
X86579086Y-84753257D01*
X86637144Y-84695200D01*
X86724229Y-84666171D01*
X86782286Y-84666171D01*
X86869372Y-84695200D01*
X86898401Y-84724229D01*
X87420915Y-84869371D02*
X87420915Y-85275771D01*
X87275772Y-84637143D02*
X87130629Y-85072571D01*
X87508001Y-85072571D01*
X97898401Y-82967714D02*
X97869372Y-82996743D01*
X97782286Y-83025771D01*
X97724229Y-83025771D01*
X97637144Y-82996743D01*
X97579086Y-82938686D01*
X97550058Y-82880629D01*
X97521029Y-82764514D01*
X97521029Y-82677429D01*
X97550058Y-82561314D01*
X97579086Y-82503257D01*
X97637144Y-82445200D01*
X97724229Y-82416171D01*
X97782286Y-82416171D01*
X97869372Y-82445200D01*
X97898401Y-82474229D01*
X98420915Y-82416171D02*
X98304801Y-82416171D01*
X98246744Y-82445200D01*
X98217715Y-82474229D01*
X98159658Y-82561314D01*
X98130629Y-82677429D01*
X98130629Y-82909657D01*
X98159658Y-82967714D01*
X98188686Y-82996743D01*
X98246744Y-83025771D01*
X98362858Y-83025771D01*
X98420915Y-82996743D01*
X98449944Y-82967714D01*
X98478972Y-82909657D01*
X98478972Y-82764514D01*
X98449944Y-82706457D01*
X98420915Y-82677429D01*
X98362858Y-82648400D01*
X98246744Y-82648400D01*
X98188686Y-82677429D01*
X98159658Y-82706457D01*
X98130629Y-82764514D01*
X173148401Y-68967714D02*
X173119372Y-68996743D01*
X173032286Y-69025771D01*
X172974229Y-69025771D01*
X172887144Y-68996743D01*
X172829086Y-68938686D01*
X172800058Y-68880629D01*
X172771029Y-68764514D01*
X172771029Y-68677429D01*
X172800058Y-68561314D01*
X172829086Y-68503257D01*
X172887144Y-68445200D01*
X172974229Y-68416171D01*
X173032286Y-68416171D01*
X173119372Y-68445200D01*
X173148401Y-68474229D01*
X173351601Y-68416171D02*
X173758001Y-68416171D01*
X173496744Y-69025771D01*
X168217714Y-73851599D02*
X168246743Y-73880628D01*
X168275771Y-73967714D01*
X168275771Y-74025771D01*
X168246743Y-74112856D01*
X168188686Y-74170914D01*
X168130629Y-74199942D01*
X168014514Y-74228971D01*
X167927429Y-74228971D01*
X167811314Y-74199942D01*
X167753257Y-74170914D01*
X167695200Y-74112856D01*
X167666171Y-74025771D01*
X167666171Y-73967714D01*
X167695200Y-73880628D01*
X167724229Y-73851599D01*
X167927429Y-73503256D02*
X167898400Y-73561314D01*
X167869371Y-73590342D01*
X167811314Y-73619371D01*
X167782286Y-73619371D01*
X167724229Y-73590342D01*
X167695200Y-73561314D01*
X167666171Y-73503256D01*
X167666171Y-73387142D01*
X167695200Y-73329085D01*
X167724229Y-73300056D01*
X167782286Y-73271028D01*
X167811314Y-73271028D01*
X167869371Y-73300056D01*
X167898400Y-73329085D01*
X167927429Y-73387142D01*
X167927429Y-73503256D01*
X167956457Y-73561314D01*
X167985486Y-73590342D01*
X168043543Y-73619371D01*
X168159657Y-73619371D01*
X168217714Y-73590342D01*
X168246743Y-73561314D01*
X168275771Y-73503256D01*
X168275771Y-73387142D01*
X168246743Y-73329085D01*
X168217714Y-73300056D01*
X168159657Y-73271028D01*
X168043543Y-73271028D01*
X167985486Y-73300056D01*
X167956457Y-73329085D01*
X167927429Y-73387142D01*
X157967714Y-76641885D02*
X157996743Y-76670914D01*
X158025771Y-76758000D01*
X158025771Y-76816057D01*
X157996743Y-76903142D01*
X157938686Y-76961200D01*
X157880629Y-76990228D01*
X157764514Y-77019257D01*
X157677429Y-77019257D01*
X157561314Y-76990228D01*
X157503257Y-76961200D01*
X157445200Y-76903142D01*
X157416171Y-76816057D01*
X157416171Y-76758000D01*
X157445200Y-76670914D01*
X157474229Y-76641885D01*
X158025771Y-76061314D02*
X158025771Y-76409657D01*
X158025771Y-76235485D02*
X157416171Y-76235485D01*
X157503257Y-76293542D01*
X157561314Y-76351600D01*
X157590343Y-76409657D01*
X157619371Y-75538800D02*
X158025771Y-75538800D01*
X157387143Y-75683943D02*
X157822571Y-75829086D01*
X157822571Y-75451714D01*
X111358115Y-84967714D02*
X111329086Y-84996743D01*
X111242000Y-85025771D01*
X111183943Y-85025771D01*
X111096858Y-84996743D01*
X111038800Y-84938686D01*
X111009772Y-84880629D01*
X110980743Y-84764514D01*
X110980743Y-84677429D01*
X111009772Y-84561314D01*
X111038800Y-84503257D01*
X111096858Y-84445200D01*
X111183943Y-84416171D01*
X111242000Y-84416171D01*
X111329086Y-84445200D01*
X111358115Y-84474229D01*
X111938686Y-85025771D02*
X111590343Y-85025771D01*
X111764515Y-85025771D02*
X111764515Y-84416171D01*
X111706458Y-84503257D01*
X111648400Y-84561314D01*
X111590343Y-84590343D01*
X112461200Y-84416171D02*
X112345086Y-84416171D01*
X112287029Y-84445200D01*
X112258000Y-84474229D01*
X112199943Y-84561314D01*
X112170914Y-84677429D01*
X112170914Y-84909657D01*
X112199943Y-84967714D01*
X112228971Y-84996743D01*
X112287029Y-85025771D01*
X112403143Y-85025771D01*
X112461200Y-84996743D01*
X112490229Y-84967714D01*
X112519257Y-84909657D01*
X112519257Y-84764514D01*
X112490229Y-84706457D01*
X112461200Y-84677429D01*
X112403143Y-84648400D01*
X112287029Y-84648400D01*
X112228971Y-84677429D01*
X112199943Y-84706457D01*
X112170914Y-84764514D01*
X120608115Y-82717714D02*
X120579086Y-82746743D01*
X120492000Y-82775771D01*
X120433943Y-82775771D01*
X120346858Y-82746743D01*
X120288800Y-82688686D01*
X120259772Y-82630629D01*
X120230743Y-82514514D01*
X120230743Y-82427429D01*
X120259772Y-82311314D01*
X120288800Y-82253257D01*
X120346858Y-82195200D01*
X120433943Y-82166171D01*
X120492000Y-82166171D01*
X120579086Y-82195200D01*
X120608115Y-82224229D01*
X121188686Y-82775771D02*
X120840343Y-82775771D01*
X121014515Y-82775771D02*
X121014515Y-82166171D01*
X120956458Y-82253257D01*
X120898400Y-82311314D01*
X120840343Y-82340343D01*
X121391886Y-82166171D02*
X121798286Y-82166171D01*
X121537029Y-82775771D01*
X196608115Y-68967714D02*
X196579086Y-68996743D01*
X196492000Y-69025771D01*
X196433943Y-69025771D01*
X196346858Y-68996743D01*
X196288800Y-68938686D01*
X196259772Y-68880629D01*
X196230743Y-68764514D01*
X196230743Y-68677429D01*
X196259772Y-68561314D01*
X196288800Y-68503257D01*
X196346858Y-68445200D01*
X196433943Y-68416171D01*
X196492000Y-68416171D01*
X196579086Y-68445200D01*
X196608115Y-68474229D01*
X196840343Y-68474229D02*
X196869372Y-68445200D01*
X196927429Y-68416171D01*
X197072572Y-68416171D01*
X197130629Y-68445200D01*
X197159658Y-68474229D01*
X197188686Y-68532286D01*
X197188686Y-68590343D01*
X197159658Y-68677429D01*
X196811315Y-69025771D01*
X197188686Y-69025771D01*
X197711200Y-68416171D02*
X197595086Y-68416171D01*
X197537029Y-68445200D01*
X197508000Y-68474229D01*
X197449943Y-68561314D01*
X197420914Y-68677429D01*
X197420914Y-68909657D01*
X197449943Y-68967714D01*
X197478971Y-68996743D01*
X197537029Y-69025771D01*
X197653143Y-69025771D01*
X197711200Y-68996743D01*
X197740229Y-68967714D01*
X197769257Y-68909657D01*
X197769257Y-68764514D01*
X197740229Y-68706457D01*
X197711200Y-68677429D01*
X197653143Y-68648400D01*
X197537029Y-68648400D01*
X197478971Y-68677429D01*
X197449943Y-68706457D01*
X197420914Y-68764514D01*
X191467714Y-74141885D02*
X191496743Y-74170914D01*
X191525771Y-74258000D01*
X191525771Y-74316057D01*
X191496743Y-74403142D01*
X191438686Y-74461200D01*
X191380629Y-74490228D01*
X191264514Y-74519257D01*
X191177429Y-74519257D01*
X191061314Y-74490228D01*
X191003257Y-74461200D01*
X190945200Y-74403142D01*
X190916171Y-74316057D01*
X190916171Y-74258000D01*
X190945200Y-74170914D01*
X190974229Y-74141885D01*
X190974229Y-73909657D02*
X190945200Y-73880628D01*
X190916171Y-73822571D01*
X190916171Y-73677428D01*
X190945200Y-73619371D01*
X190974229Y-73590342D01*
X191032286Y-73561314D01*
X191090343Y-73561314D01*
X191177429Y-73590342D01*
X191525771Y-73938685D01*
X191525771Y-73561314D01*
X190916171Y-73358114D02*
X190916171Y-72951714D01*
X191525771Y-73212971D01*
X130067714Y-80191885D02*
X130096743Y-80220914D01*
X130125771Y-80308000D01*
X130125771Y-80366057D01*
X130096743Y-80453142D01*
X130038686Y-80511200D01*
X129980629Y-80540228D01*
X129864514Y-80569257D01*
X129777429Y-80569257D01*
X129661314Y-80540228D01*
X129603257Y-80511200D01*
X129545200Y-80453142D01*
X129516171Y-80366057D01*
X129516171Y-80308000D01*
X129545200Y-80220914D01*
X129574229Y-80191885D01*
X129516171Y-79988685D02*
X129516171Y-79611314D01*
X129748400Y-79814514D01*
X129748400Y-79727428D01*
X129777429Y-79669371D01*
X129806457Y-79640342D01*
X129864514Y-79611314D01*
X130009657Y-79611314D01*
X130067714Y-79640342D01*
X130096743Y-79669371D01*
X130125771Y-79727428D01*
X130125771Y-79901600D01*
X130096743Y-79959657D01*
X130067714Y-79988685D01*
X129516171Y-79233943D02*
X129516171Y-79175886D01*
X129545200Y-79117829D01*
X129574229Y-79088800D01*
X129632286Y-79059771D01*
X129748400Y-79030743D01*
X129893543Y-79030743D01*
X130009657Y-79059771D01*
X130067714Y-79088800D01*
X130096743Y-79117829D01*
X130125771Y-79175886D01*
X130125771Y-79233943D01*
X130096743Y-79292000D01*
X130067714Y-79321029D01*
X130009657Y-79350057D01*
X129893543Y-79379086D01*
X129748400Y-79379086D01*
X129632286Y-79350057D01*
X129574229Y-79321029D01*
X129545200Y-79292000D01*
X129516171Y-79233943D01*
X147467714Y-74641885D02*
X147496743Y-74670914D01*
X147525771Y-74758000D01*
X147525771Y-74816057D01*
X147496743Y-74903142D01*
X147438686Y-74961200D01*
X147380629Y-74990228D01*
X147264514Y-75019257D01*
X147177429Y-75019257D01*
X147061314Y-74990228D01*
X147003257Y-74961200D01*
X146945200Y-74903142D01*
X146916171Y-74816057D01*
X146916171Y-74758000D01*
X146945200Y-74670914D01*
X146974229Y-74641885D01*
X146916171Y-74438685D02*
X146916171Y-74061314D01*
X147148400Y-74264514D01*
X147148400Y-74177428D01*
X147177429Y-74119371D01*
X147206457Y-74090342D01*
X147264514Y-74061314D01*
X147409657Y-74061314D01*
X147467714Y-74090342D01*
X147496743Y-74119371D01*
X147525771Y-74177428D01*
X147525771Y-74351600D01*
X147496743Y-74409657D01*
X147467714Y-74438685D01*
X146974229Y-73829086D02*
X146945200Y-73800057D01*
X146916171Y-73742000D01*
X146916171Y-73596857D01*
X146945200Y-73538800D01*
X146974229Y-73509771D01*
X147032286Y-73480743D01*
X147090343Y-73480743D01*
X147177429Y-73509771D01*
X147525771Y-73858114D01*
X147525771Y-73480743D01*
X80050058Y-72275771D02*
X80050058Y-71666171D01*
X80195201Y-71666171D01*
X80282286Y-71695200D01*
X80340344Y-71753257D01*
X80369372Y-71811314D01*
X80398401Y-71927429D01*
X80398401Y-72014514D01*
X80369372Y-72130629D01*
X80340344Y-72188686D01*
X80282286Y-72246743D01*
X80195201Y-72275771D01*
X80050058Y-72275771D01*
X80978972Y-72275771D02*
X80630629Y-72275771D01*
X80804801Y-72275771D02*
X80804801Y-71666171D01*
X80746744Y-71753257D01*
X80688686Y-71811314D01*
X80630629Y-71840343D01*
X103800058Y-72025771D02*
X103800058Y-71416171D01*
X103945201Y-71416171D01*
X104032286Y-71445200D01*
X104090344Y-71503257D01*
X104119372Y-71561314D01*
X104148401Y-71677429D01*
X104148401Y-71764514D01*
X104119372Y-71880629D01*
X104090344Y-71938686D01*
X104032286Y-71996743D01*
X103945201Y-72025771D01*
X103800058Y-72025771D01*
X104380629Y-71474229D02*
X104409658Y-71445200D01*
X104467715Y-71416171D01*
X104612858Y-71416171D01*
X104670915Y-71445200D01*
X104699944Y-71474229D01*
X104728972Y-71532286D01*
X104728972Y-71590343D01*
X104699944Y-71677429D01*
X104351601Y-72025771D01*
X104728972Y-72025771D01*
X92441943Y-71583829D02*
X92383886Y-71554800D01*
X92325829Y-71496743D01*
X92238743Y-71409657D01*
X92180686Y-71380629D01*
X92122629Y-71380629D01*
X92151657Y-71525771D02*
X92093600Y-71496743D01*
X92035543Y-71438686D01*
X92006514Y-71322571D01*
X92006514Y-71119371D01*
X92035543Y-71003257D01*
X92093600Y-70945200D01*
X92151657Y-70916171D01*
X92267771Y-70916171D01*
X92325829Y-70945200D01*
X92383886Y-71003257D01*
X92412914Y-71119371D01*
X92412914Y-71322571D01*
X92383886Y-71438686D01*
X92325829Y-71496743D01*
X92267771Y-71525771D01*
X92151657Y-71525771D01*
X92993486Y-71525771D02*
X92645143Y-71525771D01*
X92819315Y-71525771D02*
X92819315Y-70916171D01*
X92761258Y-71003257D01*
X92703200Y-71061314D01*
X92645143Y-71090343D01*
X179333829Y-79308057D02*
X179304800Y-79366114D01*
X179246743Y-79424171D01*
X179159657Y-79511257D01*
X179130629Y-79569314D01*
X179130629Y-79627371D01*
X179275771Y-79598343D02*
X179246743Y-79656400D01*
X179188686Y-79714457D01*
X179072571Y-79743486D01*
X178869371Y-79743486D01*
X178753257Y-79714457D01*
X178695200Y-79656400D01*
X178666171Y-79598343D01*
X178666171Y-79482229D01*
X178695200Y-79424171D01*
X178753257Y-79366114D01*
X178869371Y-79337086D01*
X179072571Y-79337086D01*
X179188686Y-79366114D01*
X179246743Y-79424171D01*
X179275771Y-79482229D01*
X179275771Y-79598343D01*
X178724229Y-79104857D02*
X178695200Y-79075828D01*
X178666171Y-79017771D01*
X178666171Y-78872628D01*
X178695200Y-78814571D01*
X178724229Y-78785542D01*
X178782286Y-78756514D01*
X178840343Y-78756514D01*
X178927429Y-78785542D01*
X179275771Y-79133885D01*
X179275771Y-78756514D01*
X162191943Y-74333829D02*
X162133886Y-74304800D01*
X162075829Y-74246743D01*
X161988743Y-74159657D01*
X161930686Y-74130629D01*
X161872629Y-74130629D01*
X161901657Y-74275771D02*
X161843600Y-74246743D01*
X161785543Y-74188686D01*
X161756514Y-74072571D01*
X161756514Y-73869371D01*
X161785543Y-73753257D01*
X161843600Y-73695200D01*
X161901657Y-73666171D01*
X162017771Y-73666171D01*
X162075829Y-73695200D01*
X162133886Y-73753257D01*
X162162914Y-73869371D01*
X162162914Y-74072571D01*
X162133886Y-74188686D01*
X162075829Y-74246743D01*
X162017771Y-74275771D01*
X161901657Y-74275771D01*
X162685429Y-73869371D02*
X162685429Y-74275771D01*
X162540286Y-73637143D02*
X162395143Y-74072571D01*
X162772515Y-74072571D01*
X165191943Y-74333829D02*
X165133886Y-74304800D01*
X165075829Y-74246743D01*
X164988743Y-74159657D01*
X164930686Y-74130629D01*
X164872629Y-74130629D01*
X164901657Y-74275771D02*
X164843600Y-74246743D01*
X164785543Y-74188686D01*
X164756514Y-74072571D01*
X164756514Y-73869371D01*
X164785543Y-73753257D01*
X164843600Y-73695200D01*
X164901657Y-73666171D01*
X165017771Y-73666171D01*
X165075829Y-73695200D01*
X165133886Y-73753257D01*
X165162914Y-73869371D01*
X165162914Y-74072571D01*
X165133886Y-74188686D01*
X165075829Y-74246743D01*
X165017771Y-74275771D01*
X164901657Y-74275771D01*
X165714458Y-73666171D02*
X165424172Y-73666171D01*
X165395143Y-73956457D01*
X165424172Y-73927429D01*
X165482229Y-73898400D01*
X165627372Y-73898400D01*
X165685429Y-73927429D01*
X165714458Y-73956457D01*
X165743486Y-74014514D01*
X165743486Y-74159657D01*
X165714458Y-74217714D01*
X165685429Y-74246743D01*
X165627372Y-74275771D01*
X165482229Y-74275771D01*
X165424172Y-74246743D01*
X165395143Y-74217714D01*
X116441943Y-71333829D02*
X116383886Y-71304800D01*
X116325829Y-71246743D01*
X116238743Y-71159657D01*
X116180686Y-71130629D01*
X116122629Y-71130629D01*
X116151657Y-71275771D02*
X116093600Y-71246743D01*
X116035543Y-71188686D01*
X116006514Y-71072571D01*
X116006514Y-70869371D01*
X116035543Y-70753257D01*
X116093600Y-70695200D01*
X116151657Y-70666171D01*
X116267771Y-70666171D01*
X116325829Y-70695200D01*
X116383886Y-70753257D01*
X116412914Y-70869371D01*
X116412914Y-71072571D01*
X116383886Y-71188686D01*
X116325829Y-71246743D01*
X116267771Y-71275771D01*
X116151657Y-71275771D01*
X116935429Y-70666171D02*
X116819315Y-70666171D01*
X116761258Y-70695200D01*
X116732229Y-70724229D01*
X116674172Y-70811314D01*
X116645143Y-70927429D01*
X116645143Y-71159657D01*
X116674172Y-71217714D01*
X116703200Y-71246743D01*
X116761258Y-71275771D01*
X116877372Y-71275771D01*
X116935429Y-71246743D01*
X116964458Y-71217714D01*
X116993486Y-71159657D01*
X116993486Y-71014514D01*
X116964458Y-70956457D01*
X116935429Y-70927429D01*
X116877372Y-70898400D01*
X116761258Y-70898400D01*
X116703200Y-70927429D01*
X116674172Y-70956457D01*
X116645143Y-71014514D01*
X202583829Y-79308057D02*
X202554800Y-79366114D01*
X202496743Y-79424171D01*
X202409657Y-79511257D01*
X202380629Y-79569314D01*
X202380629Y-79627371D01*
X202525771Y-79598343D02*
X202496743Y-79656400D01*
X202438686Y-79714457D01*
X202322571Y-79743486D01*
X202119371Y-79743486D01*
X202003257Y-79714457D01*
X201945200Y-79656400D01*
X201916171Y-79598343D01*
X201916171Y-79482229D01*
X201945200Y-79424171D01*
X202003257Y-79366114D01*
X202119371Y-79337086D01*
X202322571Y-79337086D01*
X202438686Y-79366114D01*
X202496743Y-79424171D01*
X202525771Y-79482229D01*
X202525771Y-79598343D01*
X202177429Y-78988742D02*
X202148400Y-79046800D01*
X202119371Y-79075828D01*
X202061314Y-79104857D01*
X202032286Y-79104857D01*
X201974229Y-79075828D01*
X201945200Y-79046800D01*
X201916171Y-78988742D01*
X201916171Y-78872628D01*
X201945200Y-78814571D01*
X201974229Y-78785542D01*
X202032286Y-78756514D01*
X202061314Y-78756514D01*
X202119371Y-78785542D01*
X202148400Y-78814571D01*
X202177429Y-78872628D01*
X202177429Y-78988742D01*
X202206457Y-79046800D01*
X202235486Y-79075828D01*
X202293543Y-79104857D01*
X202409657Y-79104857D01*
X202467714Y-79075828D01*
X202496743Y-79046800D01*
X202525771Y-78988742D01*
X202525771Y-78872628D01*
X202496743Y-78814571D01*
X202467714Y-78785542D01*
X202409657Y-78756514D01*
X202293543Y-78756514D01*
X202235486Y-78785542D01*
X202206457Y-78814571D01*
X202177429Y-78872628D01*
X185441943Y-74301829D02*
X185383886Y-74272800D01*
X185325829Y-74214743D01*
X185238743Y-74127657D01*
X185180686Y-74098629D01*
X185122629Y-74098629D01*
X185151657Y-74243771D02*
X185093600Y-74214743D01*
X185035543Y-74156686D01*
X185006514Y-74040571D01*
X185006514Y-73837371D01*
X185035543Y-73721257D01*
X185093600Y-73663200D01*
X185151657Y-73634171D01*
X185267771Y-73634171D01*
X185325829Y-73663200D01*
X185383886Y-73721257D01*
X185412914Y-73837371D01*
X185412914Y-74040571D01*
X185383886Y-74156686D01*
X185325829Y-74214743D01*
X185267771Y-74243771D01*
X185151657Y-74243771D01*
X185703200Y-74243771D02*
X185819315Y-74243771D01*
X185877372Y-74214743D01*
X185906400Y-74185714D01*
X185964458Y-74098629D01*
X185993486Y-73982514D01*
X185993486Y-73750286D01*
X185964458Y-73692229D01*
X185935429Y-73663200D01*
X185877372Y-73634171D01*
X185761258Y-73634171D01*
X185703200Y-73663200D01*
X185674172Y-73692229D01*
X185645143Y-73750286D01*
X185645143Y-73895429D01*
X185674172Y-73953486D01*
X185703200Y-73982514D01*
X185761258Y-74011543D01*
X185877372Y-74011543D01*
X185935429Y-73982514D01*
X185964458Y-73953486D01*
X185993486Y-73895429D01*
X188151658Y-74333829D02*
X188093601Y-74304800D01*
X188035544Y-74246743D01*
X187948458Y-74159657D01*
X187890401Y-74130629D01*
X187832344Y-74130629D01*
X187861372Y-74275771D02*
X187803315Y-74246743D01*
X187745258Y-74188686D01*
X187716229Y-74072571D01*
X187716229Y-73869371D01*
X187745258Y-73753257D01*
X187803315Y-73695200D01*
X187861372Y-73666171D01*
X187977486Y-73666171D01*
X188035544Y-73695200D01*
X188093601Y-73753257D01*
X188122629Y-73869371D01*
X188122629Y-74072571D01*
X188093601Y-74188686D01*
X188035544Y-74246743D01*
X187977486Y-74275771D01*
X187861372Y-74275771D01*
X188703201Y-74275771D02*
X188354858Y-74275771D01*
X188529030Y-74275771D02*
X188529030Y-73666171D01*
X188470973Y-73753257D01*
X188412915Y-73811314D01*
X188354858Y-73840343D01*
X189080572Y-73666171D02*
X189138629Y-73666171D01*
X189196686Y-73695200D01*
X189225715Y-73724229D01*
X189254744Y-73782286D01*
X189283772Y-73898400D01*
X189283772Y-74043543D01*
X189254744Y-74159657D01*
X189225715Y-74217714D01*
X189196686Y-74246743D01*
X189138629Y-74275771D01*
X189080572Y-74275771D01*
X189022515Y-74246743D01*
X188993486Y-74217714D01*
X188964458Y-74159657D01*
X188935429Y-74043543D01*
X188935429Y-73898400D01*
X188964458Y-73782286D01*
X188993486Y-73724229D01*
X189022515Y-73695200D01*
X189080572Y-73666171D01*
X156251658Y-87133829D02*
X156193601Y-87104800D01*
X156135544Y-87046743D01*
X156048458Y-86959657D01*
X155990401Y-86930629D01*
X155932344Y-86930629D01*
X155961372Y-87075771D02*
X155903315Y-87046743D01*
X155845258Y-86988686D01*
X155816229Y-86872571D01*
X155816229Y-86669371D01*
X155845258Y-86553257D01*
X155903315Y-86495200D01*
X155961372Y-86466171D01*
X156077486Y-86466171D01*
X156135544Y-86495200D01*
X156193601Y-86553257D01*
X156222629Y-86669371D01*
X156222629Y-86872571D01*
X156193601Y-86988686D01*
X156135544Y-87046743D01*
X156077486Y-87075771D01*
X155961372Y-87075771D01*
X156803201Y-87075771D02*
X156454858Y-87075771D01*
X156629030Y-87075771D02*
X156629030Y-86466171D01*
X156570973Y-86553257D01*
X156512915Y-86611314D01*
X156454858Y-86640343D01*
X157383772Y-87075771D02*
X157035429Y-87075771D01*
X157209601Y-87075771D02*
X157209601Y-86466171D01*
X157151544Y-86553257D01*
X157093486Y-86611314D01*
X157035429Y-86640343D01*
X168398401Y-65875771D02*
X168195201Y-65585486D01*
X168050058Y-65875771D02*
X168050058Y-65266171D01*
X168282286Y-65266171D01*
X168340344Y-65295200D01*
X168369372Y-65324229D01*
X168398401Y-65382286D01*
X168398401Y-65469371D01*
X168369372Y-65527429D01*
X168340344Y-65556457D01*
X168282286Y-65585486D01*
X168050058Y-65585486D01*
X168978972Y-65875771D02*
X168630629Y-65875771D01*
X168804801Y-65875771D02*
X168804801Y-65266171D01*
X168746744Y-65353257D01*
X168688686Y-65411314D01*
X168630629Y-65440343D01*
X80398401Y-85275771D02*
X80195201Y-84985486D01*
X80050058Y-85275771D02*
X80050058Y-84666171D01*
X80282286Y-84666171D01*
X80340344Y-84695200D01*
X80369372Y-84724229D01*
X80398401Y-84782286D01*
X80398401Y-84869371D01*
X80369372Y-84927429D01*
X80340344Y-84956457D01*
X80282286Y-84985486D01*
X80050058Y-84985486D01*
X80630629Y-84724229D02*
X80659658Y-84695200D01*
X80717715Y-84666171D01*
X80862858Y-84666171D01*
X80920915Y-84695200D01*
X80949944Y-84724229D01*
X80978972Y-84782286D01*
X80978972Y-84840343D01*
X80949944Y-84927429D01*
X80601601Y-85275771D01*
X80978972Y-85275771D01*
X83648401Y-85275771D02*
X83445201Y-84985486D01*
X83300058Y-85275771D02*
X83300058Y-84666171D01*
X83532286Y-84666171D01*
X83590344Y-84695200D01*
X83619372Y-84724229D01*
X83648401Y-84782286D01*
X83648401Y-84869371D01*
X83619372Y-84927429D01*
X83590344Y-84956457D01*
X83532286Y-84985486D01*
X83300058Y-84985486D01*
X83851601Y-84666171D02*
X84228972Y-84666171D01*
X84025772Y-84898400D01*
X84112858Y-84898400D01*
X84170915Y-84927429D01*
X84199944Y-84956457D01*
X84228972Y-85014514D01*
X84228972Y-85159657D01*
X84199944Y-85217714D01*
X84170915Y-85246743D01*
X84112858Y-85275771D01*
X83938686Y-85275771D01*
X83880629Y-85246743D01*
X83851601Y-85217714D01*
X83648401Y-82025771D02*
X83445201Y-81735486D01*
X83300058Y-82025771D02*
X83300058Y-81416171D01*
X83532286Y-81416171D01*
X83590344Y-81445200D01*
X83619372Y-81474229D01*
X83648401Y-81532286D01*
X83648401Y-81619371D01*
X83619372Y-81677429D01*
X83590344Y-81706457D01*
X83532286Y-81735486D01*
X83300058Y-81735486D01*
X84170915Y-81619371D02*
X84170915Y-82025771D01*
X84025772Y-81387143D02*
X83880629Y-81822571D01*
X84258001Y-81822571D01*
X171525771Y-68851599D02*
X171235486Y-69054799D01*
X171525771Y-69199942D02*
X170916171Y-69199942D01*
X170916171Y-68967714D01*
X170945200Y-68909656D01*
X170974229Y-68880628D01*
X171032286Y-68851599D01*
X171119371Y-68851599D01*
X171177429Y-68880628D01*
X171206457Y-68909656D01*
X171235486Y-68967714D01*
X171235486Y-69199942D01*
X170916171Y-68300056D02*
X170916171Y-68590342D01*
X171206457Y-68619371D01*
X171177429Y-68590342D01*
X171148400Y-68532285D01*
X171148400Y-68387142D01*
X171177429Y-68329085D01*
X171206457Y-68300056D01*
X171264514Y-68271028D01*
X171409657Y-68271028D01*
X171467714Y-68300056D01*
X171496743Y-68329085D01*
X171525771Y-68387142D01*
X171525771Y-68532285D01*
X171496743Y-68590342D01*
X171467714Y-68619371D01*
X98898401Y-74525771D02*
X98695201Y-74235486D01*
X98550058Y-74525771D02*
X98550058Y-73916171D01*
X98782286Y-73916171D01*
X98840344Y-73945200D01*
X98869372Y-73974229D01*
X98898401Y-74032286D01*
X98898401Y-74119371D01*
X98869372Y-74177429D01*
X98840344Y-74206457D01*
X98782286Y-74235486D01*
X98550058Y-74235486D01*
X99420915Y-73916171D02*
X99304801Y-73916171D01*
X99246744Y-73945200D01*
X99217715Y-73974229D01*
X99159658Y-74061314D01*
X99130629Y-74177429D01*
X99130629Y-74409657D01*
X99159658Y-74467714D01*
X99188686Y-74496743D01*
X99246744Y-74525771D01*
X99362858Y-74525771D01*
X99420915Y-74496743D01*
X99449944Y-74467714D01*
X99478972Y-74409657D01*
X99478972Y-74264514D01*
X99449944Y-74206457D01*
X99420915Y-74177429D01*
X99362858Y-74148400D01*
X99246744Y-74148400D01*
X99188686Y-74177429D01*
X99159658Y-74206457D01*
X99130629Y-74264514D01*
X172898401Y-64525771D02*
X172695201Y-64235486D01*
X172550058Y-64525771D02*
X172550058Y-63916171D01*
X172782286Y-63916171D01*
X172840344Y-63945200D01*
X172869372Y-63974229D01*
X172898401Y-64032286D01*
X172898401Y-64119371D01*
X172869372Y-64177429D01*
X172840344Y-64206457D01*
X172782286Y-64235486D01*
X172550058Y-64235486D01*
X173101601Y-63916171D02*
X173508001Y-63916171D01*
X173246744Y-64525771D01*
X76275771Y-74351599D02*
X75985486Y-74554799D01*
X76275771Y-74699942D02*
X75666171Y-74699942D01*
X75666171Y-74467714D01*
X75695200Y-74409656D01*
X75724229Y-74380628D01*
X75782286Y-74351599D01*
X75869371Y-74351599D01*
X75927429Y-74380628D01*
X75956457Y-74409656D01*
X75985486Y-74467714D01*
X75985486Y-74699942D01*
X76275771Y-74061314D02*
X76275771Y-73945199D01*
X76246743Y-73887142D01*
X76217714Y-73858114D01*
X76130629Y-73800056D01*
X76014514Y-73771028D01*
X75782286Y-73771028D01*
X75724229Y-73800056D01*
X75695200Y-73829085D01*
X75666171Y-73887142D01*
X75666171Y-74003256D01*
X75695200Y-74061314D01*
X75724229Y-74090342D01*
X75782286Y-74119371D01*
X75927429Y-74119371D01*
X75985486Y-74090342D01*
X76014514Y-74061314D01*
X76043543Y-74003256D01*
X76043543Y-73887142D01*
X76014514Y-73829085D01*
X75985486Y-73800056D01*
X75927429Y-73771028D01*
X76275771Y-72891885D02*
X75985486Y-73095085D01*
X76275771Y-73240228D02*
X75666171Y-73240228D01*
X75666171Y-73008000D01*
X75695200Y-72949942D01*
X75724229Y-72920914D01*
X75782286Y-72891885D01*
X75869371Y-72891885D01*
X75927429Y-72920914D01*
X75956457Y-72949942D01*
X75985486Y-73008000D01*
X75985486Y-73240228D01*
X76275771Y-72311314D02*
X76275771Y-72659657D01*
X76275771Y-72485485D02*
X75666171Y-72485485D01*
X75753257Y-72543542D01*
X75811314Y-72601600D01*
X75840343Y-72659657D01*
X75666171Y-71933943D02*
X75666171Y-71875886D01*
X75695200Y-71817829D01*
X75724229Y-71788800D01*
X75782286Y-71759771D01*
X75898400Y-71730743D01*
X76043543Y-71730743D01*
X76159657Y-71759771D01*
X76217714Y-71788800D01*
X76246743Y-71817829D01*
X76275771Y-71875886D01*
X76275771Y-71933943D01*
X76246743Y-71992000D01*
X76217714Y-72021029D01*
X76159657Y-72050057D01*
X76043543Y-72079086D01*
X75898400Y-72079086D01*
X75782286Y-72050057D01*
X75724229Y-72021029D01*
X75695200Y-71992000D01*
X75666171Y-71933943D01*
X77858115Y-85025771D02*
X77654915Y-84735486D01*
X77509772Y-85025771D02*
X77509772Y-84416171D01*
X77742000Y-84416171D01*
X77800058Y-84445200D01*
X77829086Y-84474229D01*
X77858115Y-84532286D01*
X77858115Y-84619371D01*
X77829086Y-84677429D01*
X77800058Y-84706457D01*
X77742000Y-84735486D01*
X77509772Y-84735486D01*
X78438686Y-85025771D02*
X78090343Y-85025771D01*
X78264515Y-85025771D02*
X78264515Y-84416171D01*
X78206458Y-84503257D01*
X78148400Y-84561314D01*
X78090343Y-84590343D01*
X79019257Y-85025771D02*
X78670914Y-85025771D01*
X78845086Y-85025771D02*
X78845086Y-84416171D01*
X78787029Y-84503257D01*
X78728971Y-84561314D01*
X78670914Y-84590343D01*
X87608115Y-77775771D02*
X87404915Y-77485486D01*
X87259772Y-77775771D02*
X87259772Y-77166171D01*
X87492000Y-77166171D01*
X87550058Y-77195200D01*
X87579086Y-77224229D01*
X87608115Y-77282286D01*
X87608115Y-77369371D01*
X87579086Y-77427429D01*
X87550058Y-77456457D01*
X87492000Y-77485486D01*
X87259772Y-77485486D01*
X88188686Y-77775771D02*
X87840343Y-77775771D01*
X88014515Y-77775771D02*
X88014515Y-77166171D01*
X87956458Y-77253257D01*
X87898400Y-77311314D01*
X87840343Y-77340343D01*
X88391886Y-77166171D02*
X88769257Y-77166171D01*
X88566057Y-77398400D01*
X88653143Y-77398400D01*
X88711200Y-77427429D01*
X88740229Y-77456457D01*
X88769257Y-77514514D01*
X88769257Y-77659657D01*
X88740229Y-77717714D01*
X88711200Y-77746743D01*
X88653143Y-77775771D01*
X88478971Y-77775771D01*
X88420914Y-77746743D01*
X88391886Y-77717714D01*
X174358115Y-64525771D02*
X174154915Y-64235486D01*
X174009772Y-64525771D02*
X174009772Y-63916171D01*
X174242000Y-63916171D01*
X174300058Y-63945200D01*
X174329086Y-63974229D01*
X174358115Y-64032286D01*
X174358115Y-64119371D01*
X174329086Y-64177429D01*
X174300058Y-64206457D01*
X174242000Y-64235486D01*
X174009772Y-64235486D01*
X174938686Y-64525771D02*
X174590343Y-64525771D01*
X174764515Y-64525771D02*
X174764515Y-63916171D01*
X174706458Y-64003257D01*
X174648400Y-64061314D01*
X174590343Y-64090343D01*
X175461200Y-64119371D02*
X175461200Y-64525771D01*
X175316057Y-63887143D02*
X175170914Y-64322571D01*
X175548286Y-64322571D01*
X86858115Y-80525771D02*
X86654915Y-80235486D01*
X86509772Y-80525771D02*
X86509772Y-79916171D01*
X86742000Y-79916171D01*
X86800058Y-79945200D01*
X86829086Y-79974229D01*
X86858115Y-80032286D01*
X86858115Y-80119371D01*
X86829086Y-80177429D01*
X86800058Y-80206457D01*
X86742000Y-80235486D01*
X86509772Y-80235486D01*
X87438686Y-80525771D02*
X87090343Y-80525771D01*
X87264515Y-80525771D02*
X87264515Y-79916171D01*
X87206458Y-80003257D01*
X87148400Y-80061314D01*
X87090343Y-80090343D01*
X87990229Y-79916171D02*
X87699943Y-79916171D01*
X87670914Y-80206457D01*
X87699943Y-80177429D01*
X87758000Y-80148400D01*
X87903143Y-80148400D01*
X87961200Y-80177429D01*
X87990229Y-80206457D01*
X88019257Y-80264514D01*
X88019257Y-80409657D01*
X87990229Y-80467714D01*
X87961200Y-80496743D01*
X87903143Y-80525771D01*
X87758000Y-80525771D01*
X87699943Y-80496743D01*
X87670914Y-80467714D01*
X93858115Y-85275771D02*
X93654915Y-84985486D01*
X93509772Y-85275771D02*
X93509772Y-84666171D01*
X93742000Y-84666171D01*
X93800058Y-84695200D01*
X93829086Y-84724229D01*
X93858115Y-84782286D01*
X93858115Y-84869371D01*
X93829086Y-84927429D01*
X93800058Y-84956457D01*
X93742000Y-84985486D01*
X93509772Y-84985486D01*
X94438686Y-85275771D02*
X94090343Y-85275771D01*
X94264515Y-85275771D02*
X94264515Y-84666171D01*
X94206458Y-84753257D01*
X94148400Y-84811314D01*
X94090343Y-84840343D01*
X94961200Y-84666171D02*
X94845086Y-84666171D01*
X94787029Y-84695200D01*
X94758000Y-84724229D01*
X94699943Y-84811314D01*
X94670914Y-84927429D01*
X94670914Y-85159657D01*
X94699943Y-85217714D01*
X94728971Y-85246743D01*
X94787029Y-85275771D01*
X94903143Y-85275771D01*
X94961200Y-85246743D01*
X94990229Y-85217714D01*
X95019257Y-85159657D01*
X95019257Y-85014514D01*
X94990229Y-84956457D01*
X94961200Y-84927429D01*
X94903143Y-84898400D01*
X94787029Y-84898400D01*
X94728971Y-84927429D01*
X94699943Y-84956457D01*
X94670914Y-85014514D01*
X75108115Y-69025771D02*
X74904915Y-68735486D01*
X74759772Y-69025771D02*
X74759772Y-68416171D01*
X74992000Y-68416171D01*
X75050058Y-68445200D01*
X75079086Y-68474229D01*
X75108115Y-68532286D01*
X75108115Y-68619371D01*
X75079086Y-68677429D01*
X75050058Y-68706457D01*
X74992000Y-68735486D01*
X74759772Y-68735486D01*
X75688686Y-69025771D02*
X75340343Y-69025771D01*
X75514515Y-69025771D02*
X75514515Y-68416171D01*
X75456458Y-68503257D01*
X75398400Y-68561314D01*
X75340343Y-68590343D01*
X76037029Y-68677429D02*
X75978971Y-68648400D01*
X75949943Y-68619371D01*
X75920914Y-68561314D01*
X75920914Y-68532286D01*
X75949943Y-68474229D01*
X75978971Y-68445200D01*
X76037029Y-68416171D01*
X76153143Y-68416171D01*
X76211200Y-68445200D01*
X76240229Y-68474229D01*
X76269257Y-68532286D01*
X76269257Y-68561314D01*
X76240229Y-68619371D01*
X76211200Y-68648400D01*
X76153143Y-68677429D01*
X76037029Y-68677429D01*
X75978971Y-68706457D01*
X75949943Y-68735486D01*
X75920914Y-68793543D01*
X75920914Y-68909657D01*
X75949943Y-68967714D01*
X75978971Y-68996743D01*
X76037029Y-69025771D01*
X76153143Y-69025771D01*
X76211200Y-68996743D01*
X76240229Y-68967714D01*
X76269257Y-68909657D01*
X76269257Y-68793543D01*
X76240229Y-68735486D01*
X76211200Y-68706457D01*
X76153143Y-68677429D01*
X181358115Y-83775771D02*
X181154915Y-83485486D01*
X181009772Y-83775771D02*
X181009772Y-83166171D01*
X181242000Y-83166171D01*
X181300058Y-83195200D01*
X181329086Y-83224229D01*
X181358115Y-83282286D01*
X181358115Y-83369371D01*
X181329086Y-83427429D01*
X181300058Y-83456457D01*
X181242000Y-83485486D01*
X181009772Y-83485486D01*
X181938686Y-83775771D02*
X181590343Y-83775771D01*
X181764515Y-83775771D02*
X181764515Y-83166171D01*
X181706458Y-83253257D01*
X181648400Y-83311314D01*
X181590343Y-83340343D01*
X182228971Y-83775771D02*
X182345086Y-83775771D01*
X182403143Y-83746743D01*
X182432171Y-83717714D01*
X182490229Y-83630629D01*
X182519257Y-83514514D01*
X182519257Y-83282286D01*
X182490229Y-83224229D01*
X182461200Y-83195200D01*
X182403143Y-83166171D01*
X182287029Y-83166171D01*
X182228971Y-83195200D01*
X182199943Y-83224229D01*
X182170914Y-83282286D01*
X182170914Y-83427429D01*
X182199943Y-83485486D01*
X182228971Y-83514514D01*
X182287029Y-83543543D01*
X182403143Y-83543543D01*
X182461200Y-83514514D01*
X182490229Y-83485486D01*
X182519257Y-83427429D01*
X90358115Y-84025771D02*
X90154915Y-83735486D01*
X90009772Y-84025771D02*
X90009772Y-83416171D01*
X90242000Y-83416171D01*
X90300058Y-83445200D01*
X90329086Y-83474229D01*
X90358115Y-83532286D01*
X90358115Y-83619371D01*
X90329086Y-83677429D01*
X90300058Y-83706457D01*
X90242000Y-83735486D01*
X90009772Y-83735486D01*
X90590343Y-83474229D02*
X90619372Y-83445200D01*
X90677429Y-83416171D01*
X90822572Y-83416171D01*
X90880629Y-83445200D01*
X90909658Y-83474229D01*
X90938686Y-83532286D01*
X90938686Y-83590343D01*
X90909658Y-83677429D01*
X90561315Y-84025771D01*
X90938686Y-84025771D01*
X91141886Y-83416171D02*
X91519257Y-83416171D01*
X91316057Y-83648400D01*
X91403143Y-83648400D01*
X91461200Y-83677429D01*
X91490229Y-83706457D01*
X91519257Y-83764514D01*
X91519257Y-83909657D01*
X91490229Y-83967714D01*
X91461200Y-83996743D01*
X91403143Y-84025771D01*
X91228971Y-84025771D01*
X91170914Y-83996743D01*
X91141886Y-83967714D01*
X181358115Y-85525771D02*
X181154915Y-85235486D01*
X181009772Y-85525771D02*
X181009772Y-84916171D01*
X181242000Y-84916171D01*
X181300058Y-84945200D01*
X181329086Y-84974229D01*
X181358115Y-85032286D01*
X181358115Y-85119371D01*
X181329086Y-85177429D01*
X181300058Y-85206457D01*
X181242000Y-85235486D01*
X181009772Y-85235486D01*
X181590343Y-84974229D02*
X181619372Y-84945200D01*
X181677429Y-84916171D01*
X181822572Y-84916171D01*
X181880629Y-84945200D01*
X181909658Y-84974229D01*
X181938686Y-85032286D01*
X181938686Y-85090343D01*
X181909658Y-85177429D01*
X181561315Y-85525771D01*
X181938686Y-85525771D01*
X182461200Y-85119371D02*
X182461200Y-85525771D01*
X182316057Y-84887143D02*
X182170914Y-85322571D01*
X182548286Y-85322571D01*
X98858115Y-71775771D02*
X98654915Y-71485486D01*
X98509772Y-71775771D02*
X98509772Y-71166171D01*
X98742000Y-71166171D01*
X98800058Y-71195200D01*
X98829086Y-71224229D01*
X98858115Y-71282286D01*
X98858115Y-71369371D01*
X98829086Y-71427429D01*
X98800058Y-71456457D01*
X98742000Y-71485486D01*
X98509772Y-71485486D01*
X99090343Y-71224229D02*
X99119372Y-71195200D01*
X99177429Y-71166171D01*
X99322572Y-71166171D01*
X99380629Y-71195200D01*
X99409658Y-71224229D01*
X99438686Y-71282286D01*
X99438686Y-71340343D01*
X99409658Y-71427429D01*
X99061315Y-71775771D01*
X99438686Y-71775771D01*
X99961200Y-71166171D02*
X99845086Y-71166171D01*
X99787029Y-71195200D01*
X99758000Y-71224229D01*
X99699943Y-71311314D01*
X99670914Y-71427429D01*
X99670914Y-71659657D01*
X99699943Y-71717714D01*
X99728971Y-71746743D01*
X99787029Y-71775771D01*
X99903143Y-71775771D01*
X99961200Y-71746743D01*
X99990229Y-71717714D01*
X100019257Y-71659657D01*
X100019257Y-71514514D01*
X99990229Y-71456457D01*
X99961200Y-71427429D01*
X99903143Y-71398400D01*
X99787029Y-71398400D01*
X99728971Y-71427429D01*
X99699943Y-71456457D01*
X99670914Y-71514514D01*
X75108115Y-66025771D02*
X74904915Y-65735486D01*
X74759772Y-66025771D02*
X74759772Y-65416171D01*
X74992000Y-65416171D01*
X75050058Y-65445200D01*
X75079086Y-65474229D01*
X75108115Y-65532286D01*
X75108115Y-65619371D01*
X75079086Y-65677429D01*
X75050058Y-65706457D01*
X74992000Y-65735486D01*
X74759772Y-65735486D01*
X75340343Y-65474229D02*
X75369372Y-65445200D01*
X75427429Y-65416171D01*
X75572572Y-65416171D01*
X75630629Y-65445200D01*
X75659658Y-65474229D01*
X75688686Y-65532286D01*
X75688686Y-65590343D01*
X75659658Y-65677429D01*
X75311315Y-66025771D01*
X75688686Y-66025771D01*
X75891886Y-65416171D02*
X76298286Y-65416171D01*
X76037029Y-66025771D01*
X75108115Y-70775771D02*
X74904915Y-70485486D01*
X74759772Y-70775771D02*
X74759772Y-70166171D01*
X74992000Y-70166171D01*
X75050058Y-70195200D01*
X75079086Y-70224229D01*
X75108115Y-70282286D01*
X75108115Y-70369371D01*
X75079086Y-70427429D01*
X75050058Y-70456457D01*
X74992000Y-70485486D01*
X74759772Y-70485486D01*
X75340343Y-70224229D02*
X75369372Y-70195200D01*
X75427429Y-70166171D01*
X75572572Y-70166171D01*
X75630629Y-70195200D01*
X75659658Y-70224229D01*
X75688686Y-70282286D01*
X75688686Y-70340343D01*
X75659658Y-70427429D01*
X75311315Y-70775771D01*
X75688686Y-70775771D01*
X76037029Y-70427429D02*
X75978971Y-70398400D01*
X75949943Y-70369371D01*
X75920914Y-70311314D01*
X75920914Y-70282286D01*
X75949943Y-70224229D01*
X75978971Y-70195200D01*
X76037029Y-70166171D01*
X76153143Y-70166171D01*
X76211200Y-70195200D01*
X76240229Y-70224229D01*
X76269257Y-70282286D01*
X76269257Y-70311314D01*
X76240229Y-70369371D01*
X76211200Y-70398400D01*
X76153143Y-70427429D01*
X76037029Y-70427429D01*
X75978971Y-70456457D01*
X75949943Y-70485486D01*
X75920914Y-70543543D01*
X75920914Y-70659657D01*
X75949943Y-70717714D01*
X75978971Y-70746743D01*
X76037029Y-70775771D01*
X76153143Y-70775771D01*
X76211200Y-70746743D01*
X76240229Y-70717714D01*
X76269257Y-70659657D01*
X76269257Y-70543543D01*
X76240229Y-70485486D01*
X76211200Y-70456457D01*
X76153143Y-70427429D01*
X162608115Y-87025771D02*
X162404915Y-86735486D01*
X162259772Y-87025771D02*
X162259772Y-86416171D01*
X162492000Y-86416171D01*
X162550058Y-86445200D01*
X162579086Y-86474229D01*
X162608115Y-86532286D01*
X162608115Y-86619371D01*
X162579086Y-86677429D01*
X162550058Y-86706457D01*
X162492000Y-86735486D01*
X162259772Y-86735486D01*
X162811315Y-86416171D02*
X163188686Y-86416171D01*
X162985486Y-86648400D01*
X163072572Y-86648400D01*
X163130629Y-86677429D01*
X163159658Y-86706457D01*
X163188686Y-86764514D01*
X163188686Y-86909657D01*
X163159658Y-86967714D01*
X163130629Y-86996743D01*
X163072572Y-87025771D01*
X162898400Y-87025771D01*
X162840343Y-86996743D01*
X162811315Y-86967714D01*
X163566057Y-86416171D02*
X163624114Y-86416171D01*
X163682171Y-86445200D01*
X163711200Y-86474229D01*
X163740229Y-86532286D01*
X163769257Y-86648400D01*
X163769257Y-86793543D01*
X163740229Y-86909657D01*
X163711200Y-86967714D01*
X163682171Y-86996743D01*
X163624114Y-87025771D01*
X163566057Y-87025771D01*
X163508000Y-86996743D01*
X163478971Y-86967714D01*
X163449943Y-86909657D01*
X163420914Y-86793543D01*
X163420914Y-86648400D01*
X163449943Y-86532286D01*
X163478971Y-86474229D01*
X163508000Y-86445200D01*
X163566057Y-86416171D01*
X97358115Y-64775771D02*
X97154915Y-64485486D01*
X97009772Y-64775771D02*
X97009772Y-64166171D01*
X97242000Y-64166171D01*
X97300058Y-64195200D01*
X97329086Y-64224229D01*
X97358115Y-64282286D01*
X97358115Y-64369371D01*
X97329086Y-64427429D01*
X97300058Y-64456457D01*
X97242000Y-64485486D01*
X97009772Y-64485486D01*
X97561315Y-64166171D02*
X97938686Y-64166171D01*
X97735486Y-64398400D01*
X97822572Y-64398400D01*
X97880629Y-64427429D01*
X97909658Y-64456457D01*
X97938686Y-64514514D01*
X97938686Y-64659657D01*
X97909658Y-64717714D01*
X97880629Y-64746743D01*
X97822572Y-64775771D01*
X97648400Y-64775771D01*
X97590343Y-64746743D01*
X97561315Y-64717714D01*
X98461200Y-64166171D02*
X98345086Y-64166171D01*
X98287029Y-64195200D01*
X98258000Y-64224229D01*
X98199943Y-64311314D01*
X98170914Y-64427429D01*
X98170914Y-64659657D01*
X98199943Y-64717714D01*
X98228971Y-64746743D01*
X98287029Y-64775771D01*
X98403143Y-64775771D01*
X98461200Y-64746743D01*
X98490229Y-64717714D01*
X98519257Y-64659657D01*
X98519257Y-64514514D01*
X98490229Y-64456457D01*
X98461200Y-64427429D01*
X98403143Y-64398400D01*
X98287029Y-64398400D01*
X98228971Y-64427429D01*
X98199943Y-64456457D01*
X98170914Y-64514514D01*
X158025771Y-74641885D02*
X157735486Y-74845085D01*
X158025771Y-74990228D02*
X157416171Y-74990228D01*
X157416171Y-74758000D01*
X157445200Y-74699942D01*
X157474229Y-74670914D01*
X157532286Y-74641885D01*
X157619371Y-74641885D01*
X157677429Y-74670914D01*
X157706457Y-74699942D01*
X157735486Y-74758000D01*
X157735486Y-74990228D01*
X157416171Y-74438685D02*
X157416171Y-74061314D01*
X157648400Y-74264514D01*
X157648400Y-74177428D01*
X157677429Y-74119371D01*
X157706457Y-74090342D01*
X157764514Y-74061314D01*
X157909657Y-74061314D01*
X157967714Y-74090342D01*
X157996743Y-74119371D01*
X158025771Y-74177428D01*
X158025771Y-74351600D01*
X157996743Y-74409657D01*
X157967714Y-74438685D01*
X157416171Y-73858114D02*
X157416171Y-73451714D01*
X158025771Y-73712971D01*
X168608115Y-87025771D02*
X168404915Y-86735486D01*
X168259772Y-87025771D02*
X168259772Y-86416171D01*
X168492000Y-86416171D01*
X168550058Y-86445200D01*
X168579086Y-86474229D01*
X168608115Y-86532286D01*
X168608115Y-86619371D01*
X168579086Y-86677429D01*
X168550058Y-86706457D01*
X168492000Y-86735486D01*
X168259772Y-86735486D01*
X168811315Y-86416171D02*
X169188686Y-86416171D01*
X168985486Y-86648400D01*
X169072572Y-86648400D01*
X169130629Y-86677429D01*
X169159658Y-86706457D01*
X169188686Y-86764514D01*
X169188686Y-86909657D01*
X169159658Y-86967714D01*
X169130629Y-86996743D01*
X169072572Y-87025771D01*
X168898400Y-87025771D01*
X168840343Y-86996743D01*
X168811315Y-86967714D01*
X169478971Y-87025771D02*
X169595086Y-87025771D01*
X169653143Y-86996743D01*
X169682171Y-86967714D01*
X169740229Y-86880629D01*
X169769257Y-86764514D01*
X169769257Y-86532286D01*
X169740229Y-86474229D01*
X169711200Y-86445200D01*
X169653143Y-86416171D01*
X169537029Y-86416171D01*
X169478971Y-86445200D01*
X169449943Y-86474229D01*
X169420914Y-86532286D01*
X169420914Y-86677429D01*
X169449943Y-86735486D01*
X169478971Y-86764514D01*
X169537029Y-86793543D01*
X169653143Y-86793543D01*
X169711200Y-86764514D01*
X169740229Y-86735486D01*
X169769257Y-86677429D01*
X158608115Y-64775771D02*
X158404915Y-64485486D01*
X158259772Y-64775771D02*
X158259772Y-64166171D01*
X158492000Y-64166171D01*
X158550058Y-64195200D01*
X158579086Y-64224229D01*
X158608115Y-64282286D01*
X158608115Y-64369371D01*
X158579086Y-64427429D01*
X158550058Y-64456457D01*
X158492000Y-64485486D01*
X158259772Y-64485486D01*
X159130629Y-64369371D02*
X159130629Y-64775771D01*
X158985486Y-64137143D02*
X158840343Y-64572571D01*
X159217715Y-64572571D01*
X159769257Y-64775771D02*
X159420914Y-64775771D01*
X159595086Y-64775771D02*
X159595086Y-64166171D01*
X159537029Y-64253257D01*
X159478971Y-64311314D01*
X159420914Y-64340343D01*
X171525771Y-70891885D02*
X171235486Y-71095085D01*
X171525771Y-71240228D02*
X170916171Y-71240228D01*
X170916171Y-71008000D01*
X170945200Y-70949942D01*
X170974229Y-70920914D01*
X171032286Y-70891885D01*
X171119371Y-70891885D01*
X171177429Y-70920914D01*
X171206457Y-70949942D01*
X171235486Y-71008000D01*
X171235486Y-71240228D01*
X171119371Y-70369371D02*
X171525771Y-70369371D01*
X170887143Y-70514514D02*
X171322571Y-70659657D01*
X171322571Y-70282285D01*
X171119371Y-69788800D02*
X171525771Y-69788800D01*
X170887143Y-69933943D02*
X171322571Y-70079086D01*
X171322571Y-69701714D01*
X158025771Y-71391885D02*
X157735486Y-71595085D01*
X158025771Y-71740228D02*
X157416171Y-71740228D01*
X157416171Y-71508000D01*
X157445200Y-71449942D01*
X157474229Y-71420914D01*
X157532286Y-71391885D01*
X157619371Y-71391885D01*
X157677429Y-71420914D01*
X157706457Y-71449942D01*
X157735486Y-71508000D01*
X157735486Y-71740228D01*
X157619371Y-70869371D02*
X158025771Y-70869371D01*
X157387143Y-71014514D02*
X157822571Y-71159657D01*
X157822571Y-70782285D01*
X157416171Y-70259771D02*
X157416171Y-70550057D01*
X157706457Y-70579086D01*
X157677429Y-70550057D01*
X157648400Y-70492000D01*
X157648400Y-70346857D01*
X157677429Y-70288800D01*
X157706457Y-70259771D01*
X157764514Y-70230743D01*
X157909657Y-70230743D01*
X157967714Y-70259771D01*
X157996743Y-70288800D01*
X158025771Y-70346857D01*
X158025771Y-70492000D01*
X157996743Y-70550057D01*
X157967714Y-70579086D01*
X168275771Y-76641885D02*
X167985486Y-76845085D01*
X168275771Y-76990228D02*
X167666171Y-76990228D01*
X167666171Y-76758000D01*
X167695200Y-76699942D01*
X167724229Y-76670914D01*
X167782286Y-76641885D01*
X167869371Y-76641885D01*
X167927429Y-76670914D01*
X167956457Y-76699942D01*
X167985486Y-76758000D01*
X167985486Y-76990228D01*
X167869371Y-76119371D02*
X168275771Y-76119371D01*
X167637143Y-76264514D02*
X168072571Y-76409657D01*
X168072571Y-76032285D01*
X167666171Y-75538800D02*
X167666171Y-75654914D01*
X167695200Y-75712971D01*
X167724229Y-75742000D01*
X167811314Y-75800057D01*
X167927429Y-75829086D01*
X168159657Y-75829086D01*
X168217714Y-75800057D01*
X168246743Y-75771029D01*
X168275771Y-75712971D01*
X168275771Y-75596857D01*
X168246743Y-75538800D01*
X168217714Y-75509771D01*
X168159657Y-75480743D01*
X168014514Y-75480743D01*
X167956457Y-75509771D01*
X167927429Y-75538800D01*
X167898400Y-75596857D01*
X167898400Y-75712971D01*
X167927429Y-75771029D01*
X167956457Y-75800057D01*
X168014514Y-75829086D01*
X171108115Y-76025771D02*
X170904915Y-75735486D01*
X170759772Y-76025771D02*
X170759772Y-75416171D01*
X170992000Y-75416171D01*
X171050058Y-75445200D01*
X171079086Y-75474229D01*
X171108115Y-75532286D01*
X171108115Y-75619371D01*
X171079086Y-75677429D01*
X171050058Y-75706457D01*
X170992000Y-75735486D01*
X170759772Y-75735486D01*
X171630629Y-75619371D02*
X171630629Y-76025771D01*
X171485486Y-75387143D02*
X171340343Y-75822571D01*
X171717715Y-75822571D01*
X171891886Y-75416171D02*
X172298286Y-75416171D01*
X172037029Y-76025771D01*
X104608115Y-85025771D02*
X104404915Y-84735486D01*
X104259772Y-85025771D02*
X104259772Y-84416171D01*
X104492000Y-84416171D01*
X104550058Y-84445200D01*
X104579086Y-84474229D01*
X104608115Y-84532286D01*
X104608115Y-84619371D01*
X104579086Y-84677429D01*
X104550058Y-84706457D01*
X104492000Y-84735486D01*
X104259772Y-84735486D01*
X105130629Y-84619371D02*
X105130629Y-85025771D01*
X104985486Y-84387143D02*
X104840343Y-84822571D01*
X105217715Y-84822571D01*
X105537029Y-84677429D02*
X105478971Y-84648400D01*
X105449943Y-84619371D01*
X105420914Y-84561314D01*
X105420914Y-84532286D01*
X105449943Y-84474229D01*
X105478971Y-84445200D01*
X105537029Y-84416171D01*
X105653143Y-84416171D01*
X105711200Y-84445200D01*
X105740229Y-84474229D01*
X105769257Y-84532286D01*
X105769257Y-84561314D01*
X105740229Y-84619371D01*
X105711200Y-84648400D01*
X105653143Y-84677429D01*
X105537029Y-84677429D01*
X105478971Y-84706457D01*
X105449943Y-84735486D01*
X105420914Y-84793543D01*
X105420914Y-84909657D01*
X105449943Y-84967714D01*
X105478971Y-84996743D01*
X105537029Y-85025771D01*
X105653143Y-85025771D01*
X105711200Y-84996743D01*
X105740229Y-84967714D01*
X105769257Y-84909657D01*
X105769257Y-84793543D01*
X105740229Y-84735486D01*
X105711200Y-84706457D01*
X105653143Y-84677429D01*
X172858115Y-76025771D02*
X172654915Y-75735486D01*
X172509772Y-76025771D02*
X172509772Y-75416171D01*
X172742000Y-75416171D01*
X172800058Y-75445200D01*
X172829086Y-75474229D01*
X172858115Y-75532286D01*
X172858115Y-75619371D01*
X172829086Y-75677429D01*
X172800058Y-75706457D01*
X172742000Y-75735486D01*
X172509772Y-75735486D01*
X173380629Y-75619371D02*
X173380629Y-76025771D01*
X173235486Y-75387143D02*
X173090343Y-75822571D01*
X173467715Y-75822571D01*
X173728971Y-76025771D02*
X173845086Y-76025771D01*
X173903143Y-75996743D01*
X173932171Y-75967714D01*
X173990229Y-75880629D01*
X174019257Y-75764514D01*
X174019257Y-75532286D01*
X173990229Y-75474229D01*
X173961200Y-75445200D01*
X173903143Y-75416171D01*
X173787029Y-75416171D01*
X173728971Y-75445200D01*
X173699943Y-75474229D01*
X173670914Y-75532286D01*
X173670914Y-75677429D01*
X173699943Y-75735486D01*
X173728971Y-75764514D01*
X173787029Y-75793543D01*
X173903143Y-75793543D01*
X173961200Y-75764514D01*
X173990229Y-75735486D01*
X174019257Y-75677429D01*
X107358115Y-85025771D02*
X107154915Y-84735486D01*
X107009772Y-85025771D02*
X107009772Y-84416171D01*
X107242000Y-84416171D01*
X107300058Y-84445200D01*
X107329086Y-84474229D01*
X107358115Y-84532286D01*
X107358115Y-84619371D01*
X107329086Y-84677429D01*
X107300058Y-84706457D01*
X107242000Y-84735486D01*
X107009772Y-84735486D01*
X107909658Y-84416171D02*
X107619372Y-84416171D01*
X107590343Y-84706457D01*
X107619372Y-84677429D01*
X107677429Y-84648400D01*
X107822572Y-84648400D01*
X107880629Y-84677429D01*
X107909658Y-84706457D01*
X107938686Y-84764514D01*
X107938686Y-84909657D01*
X107909658Y-84967714D01*
X107880629Y-84996743D01*
X107822572Y-85025771D01*
X107677429Y-85025771D01*
X107619372Y-84996743D01*
X107590343Y-84967714D01*
X108316057Y-84416171D02*
X108374114Y-84416171D01*
X108432171Y-84445200D01*
X108461200Y-84474229D01*
X108490229Y-84532286D01*
X108519257Y-84648400D01*
X108519257Y-84793543D01*
X108490229Y-84909657D01*
X108461200Y-84967714D01*
X108432171Y-84996743D01*
X108374114Y-85025771D01*
X108316057Y-85025771D01*
X108258000Y-84996743D01*
X108228971Y-84967714D01*
X108199943Y-84909657D01*
X108170914Y-84793543D01*
X108170914Y-84648400D01*
X108199943Y-84532286D01*
X108228971Y-84474229D01*
X108258000Y-84445200D01*
X108316057Y-84416171D01*
X107608115Y-81775771D02*
X107404915Y-81485486D01*
X107259772Y-81775771D02*
X107259772Y-81166171D01*
X107492000Y-81166171D01*
X107550058Y-81195200D01*
X107579086Y-81224229D01*
X107608115Y-81282286D01*
X107608115Y-81369371D01*
X107579086Y-81427429D01*
X107550058Y-81456457D01*
X107492000Y-81485486D01*
X107259772Y-81485486D01*
X108159658Y-81166171D02*
X107869372Y-81166171D01*
X107840343Y-81456457D01*
X107869372Y-81427429D01*
X107927429Y-81398400D01*
X108072572Y-81398400D01*
X108130629Y-81427429D01*
X108159658Y-81456457D01*
X108188686Y-81514514D01*
X108188686Y-81659657D01*
X108159658Y-81717714D01*
X108130629Y-81746743D01*
X108072572Y-81775771D01*
X107927429Y-81775771D01*
X107869372Y-81746743D01*
X107840343Y-81717714D01*
X108769257Y-81775771D02*
X108420914Y-81775771D01*
X108595086Y-81775771D02*
X108595086Y-81166171D01*
X108537029Y-81253257D01*
X108478971Y-81311314D01*
X108420914Y-81340343D01*
X100358115Y-75775771D02*
X100154915Y-75485486D01*
X100009772Y-75775771D02*
X100009772Y-75166171D01*
X100242000Y-75166171D01*
X100300058Y-75195200D01*
X100329086Y-75224229D01*
X100358115Y-75282286D01*
X100358115Y-75369371D01*
X100329086Y-75427429D01*
X100300058Y-75456457D01*
X100242000Y-75485486D01*
X100009772Y-75485486D01*
X100909658Y-75166171D02*
X100619372Y-75166171D01*
X100590343Y-75456457D01*
X100619372Y-75427429D01*
X100677429Y-75398400D01*
X100822572Y-75398400D01*
X100880629Y-75427429D01*
X100909658Y-75456457D01*
X100938686Y-75514514D01*
X100938686Y-75659657D01*
X100909658Y-75717714D01*
X100880629Y-75746743D01*
X100822572Y-75775771D01*
X100677429Y-75775771D01*
X100619372Y-75746743D01*
X100590343Y-75717714D01*
X101141886Y-75166171D02*
X101519257Y-75166171D01*
X101316057Y-75398400D01*
X101403143Y-75398400D01*
X101461200Y-75427429D01*
X101490229Y-75456457D01*
X101519257Y-75514514D01*
X101519257Y-75659657D01*
X101490229Y-75717714D01*
X101461200Y-75746743D01*
X101403143Y-75775771D01*
X101228971Y-75775771D01*
X101170914Y-75746743D01*
X101141886Y-75717714D01*
X101108115Y-83275771D02*
X100904915Y-82985486D01*
X100759772Y-83275771D02*
X100759772Y-82666171D01*
X100992000Y-82666171D01*
X101050058Y-82695200D01*
X101079086Y-82724229D01*
X101108115Y-82782286D01*
X101108115Y-82869371D01*
X101079086Y-82927429D01*
X101050058Y-82956457D01*
X100992000Y-82985486D01*
X100759772Y-82985486D01*
X101659658Y-82666171D02*
X101369372Y-82666171D01*
X101340343Y-82956457D01*
X101369372Y-82927429D01*
X101427429Y-82898400D01*
X101572572Y-82898400D01*
X101630629Y-82927429D01*
X101659658Y-82956457D01*
X101688686Y-83014514D01*
X101688686Y-83159657D01*
X101659658Y-83217714D01*
X101630629Y-83246743D01*
X101572572Y-83275771D01*
X101427429Y-83275771D01*
X101369372Y-83246743D01*
X101340343Y-83217714D01*
X102240229Y-82666171D02*
X101949943Y-82666171D01*
X101920914Y-82956457D01*
X101949943Y-82927429D01*
X102008000Y-82898400D01*
X102153143Y-82898400D01*
X102211200Y-82927429D01*
X102240229Y-82956457D01*
X102269257Y-83014514D01*
X102269257Y-83159657D01*
X102240229Y-83217714D01*
X102211200Y-83246743D01*
X102153143Y-83275771D01*
X102008000Y-83275771D01*
X101949943Y-83246743D01*
X101920914Y-83217714D01*
X111108115Y-77525771D02*
X110904915Y-77235486D01*
X110759772Y-77525771D02*
X110759772Y-76916171D01*
X110992000Y-76916171D01*
X111050058Y-76945200D01*
X111079086Y-76974229D01*
X111108115Y-77032286D01*
X111108115Y-77119371D01*
X111079086Y-77177429D01*
X111050058Y-77206457D01*
X110992000Y-77235486D01*
X110759772Y-77235486D01*
X111659658Y-76916171D02*
X111369372Y-76916171D01*
X111340343Y-77206457D01*
X111369372Y-77177429D01*
X111427429Y-77148400D01*
X111572572Y-77148400D01*
X111630629Y-77177429D01*
X111659658Y-77206457D01*
X111688686Y-77264514D01*
X111688686Y-77409657D01*
X111659658Y-77467714D01*
X111630629Y-77496743D01*
X111572572Y-77525771D01*
X111427429Y-77525771D01*
X111369372Y-77496743D01*
X111340343Y-77467714D01*
X112211200Y-76916171D02*
X112095086Y-76916171D01*
X112037029Y-76945200D01*
X112008000Y-76974229D01*
X111949943Y-77061314D01*
X111920914Y-77177429D01*
X111920914Y-77409657D01*
X111949943Y-77467714D01*
X111978971Y-77496743D01*
X112037029Y-77525771D01*
X112153143Y-77525771D01*
X112211200Y-77496743D01*
X112240229Y-77467714D01*
X112269257Y-77409657D01*
X112269257Y-77264514D01*
X112240229Y-77206457D01*
X112211200Y-77177429D01*
X112153143Y-77148400D01*
X112037029Y-77148400D01*
X111978971Y-77177429D01*
X111949943Y-77206457D01*
X111920914Y-77264514D01*
X111358115Y-80275771D02*
X111154915Y-79985486D01*
X111009772Y-80275771D02*
X111009772Y-79666171D01*
X111242000Y-79666171D01*
X111300058Y-79695200D01*
X111329086Y-79724229D01*
X111358115Y-79782286D01*
X111358115Y-79869371D01*
X111329086Y-79927429D01*
X111300058Y-79956457D01*
X111242000Y-79985486D01*
X111009772Y-79985486D01*
X111909658Y-79666171D02*
X111619372Y-79666171D01*
X111590343Y-79956457D01*
X111619372Y-79927429D01*
X111677429Y-79898400D01*
X111822572Y-79898400D01*
X111880629Y-79927429D01*
X111909658Y-79956457D01*
X111938686Y-80014514D01*
X111938686Y-80159657D01*
X111909658Y-80217714D01*
X111880629Y-80246743D01*
X111822572Y-80275771D01*
X111677429Y-80275771D01*
X111619372Y-80246743D01*
X111590343Y-80217714D01*
X112141886Y-79666171D02*
X112548286Y-79666171D01*
X112287029Y-80275771D01*
X117608115Y-85025771D02*
X117404915Y-84735486D01*
X117259772Y-85025771D02*
X117259772Y-84416171D01*
X117492000Y-84416171D01*
X117550058Y-84445200D01*
X117579086Y-84474229D01*
X117608115Y-84532286D01*
X117608115Y-84619371D01*
X117579086Y-84677429D01*
X117550058Y-84706457D01*
X117492000Y-84735486D01*
X117259772Y-84735486D01*
X118159658Y-84416171D02*
X117869372Y-84416171D01*
X117840343Y-84706457D01*
X117869372Y-84677429D01*
X117927429Y-84648400D01*
X118072572Y-84648400D01*
X118130629Y-84677429D01*
X118159658Y-84706457D01*
X118188686Y-84764514D01*
X118188686Y-84909657D01*
X118159658Y-84967714D01*
X118130629Y-84996743D01*
X118072572Y-85025771D01*
X117927429Y-85025771D01*
X117869372Y-84996743D01*
X117840343Y-84967714D01*
X118537029Y-84677429D02*
X118478971Y-84648400D01*
X118449943Y-84619371D01*
X118420914Y-84561314D01*
X118420914Y-84532286D01*
X118449943Y-84474229D01*
X118478971Y-84445200D01*
X118537029Y-84416171D01*
X118653143Y-84416171D01*
X118711200Y-84445200D01*
X118740229Y-84474229D01*
X118769257Y-84532286D01*
X118769257Y-84561314D01*
X118740229Y-84619371D01*
X118711200Y-84648400D01*
X118653143Y-84677429D01*
X118537029Y-84677429D01*
X118478971Y-84706457D01*
X118449943Y-84735486D01*
X118420914Y-84793543D01*
X118420914Y-84909657D01*
X118449943Y-84967714D01*
X118478971Y-84996743D01*
X118537029Y-85025771D01*
X118653143Y-85025771D01*
X118711200Y-84996743D01*
X118740229Y-84967714D01*
X118769257Y-84909657D01*
X118769257Y-84793543D01*
X118740229Y-84735486D01*
X118711200Y-84706457D01*
X118653143Y-84677429D01*
X192108115Y-65875771D02*
X191904915Y-65585486D01*
X191759772Y-65875771D02*
X191759772Y-65266171D01*
X191992000Y-65266171D01*
X192050058Y-65295200D01*
X192079086Y-65324229D01*
X192108115Y-65382286D01*
X192108115Y-65469371D01*
X192079086Y-65527429D01*
X192050058Y-65556457D01*
X191992000Y-65585486D01*
X191759772Y-65585486D01*
X192630629Y-65266171D02*
X192514515Y-65266171D01*
X192456458Y-65295200D01*
X192427429Y-65324229D01*
X192369372Y-65411314D01*
X192340343Y-65527429D01*
X192340343Y-65759657D01*
X192369372Y-65817714D01*
X192398400Y-65846743D01*
X192456458Y-65875771D01*
X192572572Y-65875771D01*
X192630629Y-65846743D01*
X192659658Y-65817714D01*
X192688686Y-65759657D01*
X192688686Y-65614514D01*
X192659658Y-65556457D01*
X192630629Y-65527429D01*
X192572572Y-65498400D01*
X192456458Y-65498400D01*
X192398400Y-65527429D01*
X192369372Y-65556457D01*
X192340343Y-65614514D01*
X193269257Y-65875771D02*
X192920914Y-65875771D01*
X193095086Y-65875771D02*
X193095086Y-65266171D01*
X193037029Y-65353257D01*
X192978971Y-65411314D01*
X192920914Y-65440343D01*
X114358115Y-83275771D02*
X114154915Y-82985486D01*
X114009772Y-83275771D02*
X114009772Y-82666171D01*
X114242000Y-82666171D01*
X114300058Y-82695200D01*
X114329086Y-82724229D01*
X114358115Y-82782286D01*
X114358115Y-82869371D01*
X114329086Y-82927429D01*
X114300058Y-82956457D01*
X114242000Y-82985486D01*
X114009772Y-82985486D01*
X114880629Y-82666171D02*
X114764515Y-82666171D01*
X114706458Y-82695200D01*
X114677429Y-82724229D01*
X114619372Y-82811314D01*
X114590343Y-82927429D01*
X114590343Y-83159657D01*
X114619372Y-83217714D01*
X114648400Y-83246743D01*
X114706458Y-83275771D01*
X114822572Y-83275771D01*
X114880629Y-83246743D01*
X114909658Y-83217714D01*
X114938686Y-83159657D01*
X114938686Y-83014514D01*
X114909658Y-82956457D01*
X114880629Y-82927429D01*
X114822572Y-82898400D01*
X114706458Y-82898400D01*
X114648400Y-82927429D01*
X114619372Y-82956457D01*
X114590343Y-83014514D01*
X115461200Y-82869371D02*
X115461200Y-83275771D01*
X115316057Y-82637143D02*
X115170914Y-83072571D01*
X115548286Y-83072571D01*
X101358115Y-64375771D02*
X101154915Y-64085486D01*
X101009772Y-64375771D02*
X101009772Y-63766171D01*
X101242000Y-63766171D01*
X101300058Y-63795200D01*
X101329086Y-63824229D01*
X101358115Y-63882286D01*
X101358115Y-63969371D01*
X101329086Y-64027429D01*
X101300058Y-64056457D01*
X101242000Y-64085486D01*
X101009772Y-64085486D01*
X101880629Y-63766171D02*
X101764515Y-63766171D01*
X101706458Y-63795200D01*
X101677429Y-63824229D01*
X101619372Y-63911314D01*
X101590343Y-64027429D01*
X101590343Y-64259657D01*
X101619372Y-64317714D01*
X101648400Y-64346743D01*
X101706458Y-64375771D01*
X101822572Y-64375771D01*
X101880629Y-64346743D01*
X101909658Y-64317714D01*
X101938686Y-64259657D01*
X101938686Y-64114514D01*
X101909658Y-64056457D01*
X101880629Y-64027429D01*
X101822572Y-63998400D01*
X101706458Y-63998400D01*
X101648400Y-64027429D01*
X101619372Y-64056457D01*
X101590343Y-64114514D01*
X102461200Y-63766171D02*
X102345086Y-63766171D01*
X102287029Y-63795200D01*
X102258000Y-63824229D01*
X102199943Y-63911314D01*
X102170914Y-64027429D01*
X102170914Y-64259657D01*
X102199943Y-64317714D01*
X102228971Y-64346743D01*
X102287029Y-64375771D01*
X102403143Y-64375771D01*
X102461200Y-64346743D01*
X102490229Y-64317714D01*
X102519257Y-64259657D01*
X102519257Y-64114514D01*
X102490229Y-64056457D01*
X102461200Y-64027429D01*
X102403143Y-63998400D01*
X102287029Y-63998400D01*
X102228971Y-64027429D01*
X102199943Y-64056457D01*
X102170914Y-64114514D01*
X194608115Y-69025771D02*
X194404915Y-68735486D01*
X194259772Y-69025771D02*
X194259772Y-68416171D01*
X194492000Y-68416171D01*
X194550058Y-68445200D01*
X194579086Y-68474229D01*
X194608115Y-68532286D01*
X194608115Y-68619371D01*
X194579086Y-68677429D01*
X194550058Y-68706457D01*
X194492000Y-68735486D01*
X194259772Y-68735486D01*
X195130629Y-68416171D02*
X195014515Y-68416171D01*
X194956458Y-68445200D01*
X194927429Y-68474229D01*
X194869372Y-68561314D01*
X194840343Y-68677429D01*
X194840343Y-68909657D01*
X194869372Y-68967714D01*
X194898400Y-68996743D01*
X194956458Y-69025771D01*
X195072572Y-69025771D01*
X195130629Y-68996743D01*
X195159658Y-68967714D01*
X195188686Y-68909657D01*
X195188686Y-68764514D01*
X195159658Y-68706457D01*
X195130629Y-68677429D01*
X195072572Y-68648400D01*
X194956458Y-68648400D01*
X194898400Y-68677429D01*
X194869372Y-68706457D01*
X194840343Y-68764514D01*
X195537029Y-68677429D02*
X195478971Y-68648400D01*
X195449943Y-68619371D01*
X195420914Y-68561314D01*
X195420914Y-68532286D01*
X195449943Y-68474229D01*
X195478971Y-68445200D01*
X195537029Y-68416171D01*
X195653143Y-68416171D01*
X195711200Y-68445200D01*
X195740229Y-68474229D01*
X195769257Y-68532286D01*
X195769257Y-68561314D01*
X195740229Y-68619371D01*
X195711200Y-68648400D01*
X195653143Y-68677429D01*
X195537029Y-68677429D01*
X195478971Y-68706457D01*
X195449943Y-68735486D01*
X195420914Y-68793543D01*
X195420914Y-68909657D01*
X195449943Y-68967714D01*
X195478971Y-68996743D01*
X195537029Y-69025771D01*
X195653143Y-69025771D01*
X195711200Y-68996743D01*
X195740229Y-68967714D01*
X195769257Y-68909657D01*
X195769257Y-68793543D01*
X195740229Y-68735486D01*
X195711200Y-68706457D01*
X195653143Y-68677429D01*
X111108115Y-71025771D02*
X110904915Y-70735486D01*
X110759772Y-71025771D02*
X110759772Y-70416171D01*
X110992000Y-70416171D01*
X111050058Y-70445200D01*
X111079086Y-70474229D01*
X111108115Y-70532286D01*
X111108115Y-70619371D01*
X111079086Y-70677429D01*
X111050058Y-70706457D01*
X110992000Y-70735486D01*
X110759772Y-70735486D01*
X111630629Y-70416171D02*
X111514515Y-70416171D01*
X111456458Y-70445200D01*
X111427429Y-70474229D01*
X111369372Y-70561314D01*
X111340343Y-70677429D01*
X111340343Y-70909657D01*
X111369372Y-70967714D01*
X111398400Y-70996743D01*
X111456458Y-71025771D01*
X111572572Y-71025771D01*
X111630629Y-70996743D01*
X111659658Y-70967714D01*
X111688686Y-70909657D01*
X111688686Y-70764514D01*
X111659658Y-70706457D01*
X111630629Y-70677429D01*
X111572572Y-70648400D01*
X111456458Y-70648400D01*
X111398400Y-70677429D01*
X111369372Y-70706457D01*
X111340343Y-70764514D01*
X111978971Y-71025771D02*
X112095086Y-71025771D01*
X112153143Y-70996743D01*
X112182171Y-70967714D01*
X112240229Y-70880629D01*
X112269257Y-70764514D01*
X112269257Y-70532286D01*
X112240229Y-70474229D01*
X112211200Y-70445200D01*
X112153143Y-70416171D01*
X112037029Y-70416171D01*
X111978971Y-70445200D01*
X111949943Y-70474229D01*
X111920914Y-70532286D01*
X111920914Y-70677429D01*
X111949943Y-70735486D01*
X111978971Y-70764514D01*
X112037029Y-70793543D01*
X112153143Y-70793543D01*
X112211200Y-70764514D01*
X112240229Y-70735486D01*
X112269257Y-70677429D01*
X195608115Y-64525771D02*
X195404915Y-64235486D01*
X195259772Y-64525771D02*
X195259772Y-63916171D01*
X195492000Y-63916171D01*
X195550058Y-63945200D01*
X195579086Y-63974229D01*
X195608115Y-64032286D01*
X195608115Y-64119371D01*
X195579086Y-64177429D01*
X195550058Y-64206457D01*
X195492000Y-64235486D01*
X195259772Y-64235486D01*
X195811315Y-63916171D02*
X196217715Y-63916171D01*
X195956458Y-64525771D01*
X196566057Y-63916171D02*
X196624114Y-63916171D01*
X196682171Y-63945200D01*
X196711200Y-63974229D01*
X196740229Y-64032286D01*
X196769257Y-64148400D01*
X196769257Y-64293543D01*
X196740229Y-64409657D01*
X196711200Y-64467714D01*
X196682171Y-64496743D01*
X196624114Y-64525771D01*
X196566057Y-64525771D01*
X196508000Y-64496743D01*
X196478971Y-64467714D01*
X196449943Y-64409657D01*
X196420914Y-64293543D01*
X196420914Y-64148400D01*
X196449943Y-64032286D01*
X196478971Y-63974229D01*
X196508000Y-63945200D01*
X196566057Y-63916171D01*
X204608115Y-76775771D02*
X204404915Y-76485486D01*
X204259772Y-76775771D02*
X204259772Y-76166171D01*
X204492000Y-76166171D01*
X204550058Y-76195200D01*
X204579086Y-76224229D01*
X204608115Y-76282286D01*
X204608115Y-76369371D01*
X204579086Y-76427429D01*
X204550058Y-76456457D01*
X204492000Y-76485486D01*
X204259772Y-76485486D01*
X204811315Y-76166171D02*
X205217715Y-76166171D01*
X204956458Y-76775771D01*
X205769257Y-76775771D02*
X205420914Y-76775771D01*
X205595086Y-76775771D02*
X205595086Y-76166171D01*
X205537029Y-76253257D01*
X205478971Y-76311314D01*
X205420914Y-76340343D01*
X197608115Y-64525771D02*
X197404915Y-64235486D01*
X197259772Y-64525771D02*
X197259772Y-63916171D01*
X197492000Y-63916171D01*
X197550058Y-63945200D01*
X197579086Y-63974229D01*
X197608115Y-64032286D01*
X197608115Y-64119371D01*
X197579086Y-64177429D01*
X197550058Y-64206457D01*
X197492000Y-64235486D01*
X197259772Y-64235486D01*
X197811315Y-63916171D02*
X198217715Y-63916171D01*
X197956458Y-64525771D01*
X198391886Y-63916171D02*
X198769257Y-63916171D01*
X198566057Y-64148400D01*
X198653143Y-64148400D01*
X198711200Y-64177429D01*
X198740229Y-64206457D01*
X198769257Y-64264514D01*
X198769257Y-64409657D01*
X198740229Y-64467714D01*
X198711200Y-64496743D01*
X198653143Y-64525771D01*
X198478971Y-64525771D01*
X198420914Y-64496743D01*
X198391886Y-64467714D01*
X121358115Y-64525771D02*
X121154915Y-64235486D01*
X121009772Y-64525771D02*
X121009772Y-63916171D01*
X121242000Y-63916171D01*
X121300058Y-63945200D01*
X121329086Y-63974229D01*
X121358115Y-64032286D01*
X121358115Y-64119371D01*
X121329086Y-64177429D01*
X121300058Y-64206457D01*
X121242000Y-64235486D01*
X121009772Y-64235486D01*
X121561315Y-63916171D02*
X121967715Y-63916171D01*
X121706458Y-64525771D01*
X122490229Y-63916171D02*
X122199943Y-63916171D01*
X122170914Y-64206457D01*
X122199943Y-64177429D01*
X122258000Y-64148400D01*
X122403143Y-64148400D01*
X122461200Y-64177429D01*
X122490229Y-64206457D01*
X122519257Y-64264514D01*
X122519257Y-64409657D01*
X122490229Y-64467714D01*
X122461200Y-64496743D01*
X122403143Y-64525771D01*
X122258000Y-64525771D01*
X122199943Y-64496743D01*
X122170914Y-64467714D01*
X204608115Y-83775771D02*
X204404915Y-83485486D01*
X204259772Y-83775771D02*
X204259772Y-83166171D01*
X204492000Y-83166171D01*
X204550058Y-83195200D01*
X204579086Y-83224229D01*
X204608115Y-83282286D01*
X204608115Y-83369371D01*
X204579086Y-83427429D01*
X204550058Y-83456457D01*
X204492000Y-83485486D01*
X204259772Y-83485486D01*
X204811315Y-83166171D02*
X205217715Y-83166171D01*
X204956458Y-83775771D01*
X205711200Y-83166171D02*
X205595086Y-83166171D01*
X205537029Y-83195200D01*
X205508000Y-83224229D01*
X205449943Y-83311314D01*
X205420914Y-83427429D01*
X205420914Y-83659657D01*
X205449943Y-83717714D01*
X205478971Y-83746743D01*
X205537029Y-83775771D01*
X205653143Y-83775771D01*
X205711200Y-83746743D01*
X205740229Y-83717714D01*
X205769257Y-83659657D01*
X205769257Y-83514514D01*
X205740229Y-83456457D01*
X205711200Y-83427429D01*
X205653143Y-83398400D01*
X205537029Y-83398400D01*
X205478971Y-83427429D01*
X205449943Y-83456457D01*
X205420914Y-83514514D01*
X201608115Y-69875771D02*
X201404915Y-69585486D01*
X201259772Y-69875771D02*
X201259772Y-69266171D01*
X201492000Y-69266171D01*
X201550058Y-69295200D01*
X201579086Y-69324229D01*
X201608115Y-69382286D01*
X201608115Y-69469371D01*
X201579086Y-69527429D01*
X201550058Y-69556457D01*
X201492000Y-69585486D01*
X201259772Y-69585486D01*
X201811315Y-69266171D02*
X202217715Y-69266171D01*
X201956458Y-69875771D01*
X202391886Y-69266171D02*
X202798286Y-69266171D01*
X202537029Y-69875771D01*
X204608115Y-85525771D02*
X204404915Y-85235486D01*
X204259772Y-85525771D02*
X204259772Y-84916171D01*
X204492000Y-84916171D01*
X204550058Y-84945200D01*
X204579086Y-84974229D01*
X204608115Y-85032286D01*
X204608115Y-85119371D01*
X204579086Y-85177429D01*
X204550058Y-85206457D01*
X204492000Y-85235486D01*
X204259772Y-85235486D01*
X204811315Y-84916171D02*
X205217715Y-84916171D01*
X204956458Y-85525771D01*
X205537029Y-85177429D02*
X205478971Y-85148400D01*
X205449943Y-85119371D01*
X205420914Y-85061314D01*
X205420914Y-85032286D01*
X205449943Y-84974229D01*
X205478971Y-84945200D01*
X205537029Y-84916171D01*
X205653143Y-84916171D01*
X205711200Y-84945200D01*
X205740229Y-84974229D01*
X205769257Y-85032286D01*
X205769257Y-85061314D01*
X205740229Y-85119371D01*
X205711200Y-85148400D01*
X205653143Y-85177429D01*
X205537029Y-85177429D01*
X205478971Y-85206457D01*
X205449943Y-85235486D01*
X205420914Y-85293543D01*
X205420914Y-85409657D01*
X205449943Y-85467714D01*
X205478971Y-85496743D01*
X205537029Y-85525771D01*
X205653143Y-85525771D01*
X205711200Y-85496743D01*
X205740229Y-85467714D01*
X205769257Y-85409657D01*
X205769257Y-85293543D01*
X205740229Y-85235486D01*
X205711200Y-85206457D01*
X205653143Y-85177429D01*
X186108115Y-87025771D02*
X185904915Y-86735486D01*
X185759772Y-87025771D02*
X185759772Y-86416171D01*
X185992000Y-86416171D01*
X186050058Y-86445200D01*
X186079086Y-86474229D01*
X186108115Y-86532286D01*
X186108115Y-86619371D01*
X186079086Y-86677429D01*
X186050058Y-86706457D01*
X185992000Y-86735486D01*
X185759772Y-86735486D01*
X186456458Y-86677429D02*
X186398400Y-86648400D01*
X186369372Y-86619371D01*
X186340343Y-86561314D01*
X186340343Y-86532286D01*
X186369372Y-86474229D01*
X186398400Y-86445200D01*
X186456458Y-86416171D01*
X186572572Y-86416171D01*
X186630629Y-86445200D01*
X186659658Y-86474229D01*
X186688686Y-86532286D01*
X186688686Y-86561314D01*
X186659658Y-86619371D01*
X186630629Y-86648400D01*
X186572572Y-86677429D01*
X186456458Y-86677429D01*
X186398400Y-86706457D01*
X186369372Y-86735486D01*
X186340343Y-86793543D01*
X186340343Y-86909657D01*
X186369372Y-86967714D01*
X186398400Y-86996743D01*
X186456458Y-87025771D01*
X186572572Y-87025771D01*
X186630629Y-86996743D01*
X186659658Y-86967714D01*
X186688686Y-86909657D01*
X186688686Y-86793543D01*
X186659658Y-86735486D01*
X186630629Y-86706457D01*
X186572572Y-86677429D01*
X187269257Y-87025771D02*
X186920914Y-87025771D01*
X187095086Y-87025771D02*
X187095086Y-86416171D01*
X187037029Y-86503257D01*
X186978971Y-86561314D01*
X186920914Y-86590343D01*
X182608115Y-73275771D02*
X182404915Y-72985486D01*
X182259772Y-73275771D02*
X182259772Y-72666171D01*
X182492000Y-72666171D01*
X182550058Y-72695200D01*
X182579086Y-72724229D01*
X182608115Y-72782286D01*
X182608115Y-72869371D01*
X182579086Y-72927429D01*
X182550058Y-72956457D01*
X182492000Y-72985486D01*
X182259772Y-72985486D01*
X182956458Y-72927429D02*
X182898400Y-72898400D01*
X182869372Y-72869371D01*
X182840343Y-72811314D01*
X182840343Y-72782286D01*
X182869372Y-72724229D01*
X182898400Y-72695200D01*
X182956458Y-72666171D01*
X183072572Y-72666171D01*
X183130629Y-72695200D01*
X183159658Y-72724229D01*
X183188686Y-72782286D01*
X183188686Y-72811314D01*
X183159658Y-72869371D01*
X183130629Y-72898400D01*
X183072572Y-72927429D01*
X182956458Y-72927429D01*
X182898400Y-72956457D01*
X182869372Y-72985486D01*
X182840343Y-73043543D01*
X182840343Y-73159657D01*
X182869372Y-73217714D01*
X182898400Y-73246743D01*
X182956458Y-73275771D01*
X183072572Y-73275771D01*
X183130629Y-73246743D01*
X183159658Y-73217714D01*
X183188686Y-73159657D01*
X183188686Y-73043543D01*
X183159658Y-72985486D01*
X183130629Y-72956457D01*
X183072572Y-72927429D01*
X183711200Y-72666171D02*
X183595086Y-72666171D01*
X183537029Y-72695200D01*
X183508000Y-72724229D01*
X183449943Y-72811314D01*
X183420914Y-72927429D01*
X183420914Y-73159657D01*
X183449943Y-73217714D01*
X183478971Y-73246743D01*
X183537029Y-73275771D01*
X183653143Y-73275771D01*
X183711200Y-73246743D01*
X183740229Y-73217714D01*
X183769257Y-73159657D01*
X183769257Y-73014514D01*
X183740229Y-72956457D01*
X183711200Y-72927429D01*
X183653143Y-72898400D01*
X183537029Y-72898400D01*
X183478971Y-72927429D01*
X183449943Y-72956457D01*
X183420914Y-73014514D01*
X192108115Y-87025771D02*
X191904915Y-86735486D01*
X191759772Y-87025771D02*
X191759772Y-86416171D01*
X191992000Y-86416171D01*
X192050058Y-86445200D01*
X192079086Y-86474229D01*
X192108115Y-86532286D01*
X192108115Y-86619371D01*
X192079086Y-86677429D01*
X192050058Y-86706457D01*
X191992000Y-86735486D01*
X191759772Y-86735486D01*
X192456458Y-86677429D02*
X192398400Y-86648400D01*
X192369372Y-86619371D01*
X192340343Y-86561314D01*
X192340343Y-86532286D01*
X192369372Y-86474229D01*
X192398400Y-86445200D01*
X192456458Y-86416171D01*
X192572572Y-86416171D01*
X192630629Y-86445200D01*
X192659658Y-86474229D01*
X192688686Y-86532286D01*
X192688686Y-86561314D01*
X192659658Y-86619371D01*
X192630629Y-86648400D01*
X192572572Y-86677429D01*
X192456458Y-86677429D01*
X192398400Y-86706457D01*
X192369372Y-86735486D01*
X192340343Y-86793543D01*
X192340343Y-86909657D01*
X192369372Y-86967714D01*
X192398400Y-86996743D01*
X192456458Y-87025771D01*
X192572572Y-87025771D01*
X192630629Y-86996743D01*
X192659658Y-86967714D01*
X192688686Y-86909657D01*
X192688686Y-86793543D01*
X192659658Y-86735486D01*
X192630629Y-86706457D01*
X192572572Y-86677429D01*
X192891886Y-86416171D02*
X193298286Y-86416171D01*
X193037029Y-87025771D01*
X181858115Y-64775771D02*
X181654915Y-64485486D01*
X181509772Y-64775771D02*
X181509772Y-64166171D01*
X181742000Y-64166171D01*
X181800058Y-64195200D01*
X181829086Y-64224229D01*
X181858115Y-64282286D01*
X181858115Y-64369371D01*
X181829086Y-64427429D01*
X181800058Y-64456457D01*
X181742000Y-64485486D01*
X181509772Y-64485486D01*
X182206458Y-64427429D02*
X182148400Y-64398400D01*
X182119372Y-64369371D01*
X182090343Y-64311314D01*
X182090343Y-64282286D01*
X182119372Y-64224229D01*
X182148400Y-64195200D01*
X182206458Y-64166171D01*
X182322572Y-64166171D01*
X182380629Y-64195200D01*
X182409658Y-64224229D01*
X182438686Y-64282286D01*
X182438686Y-64311314D01*
X182409658Y-64369371D01*
X182380629Y-64398400D01*
X182322572Y-64427429D01*
X182206458Y-64427429D01*
X182148400Y-64456457D01*
X182119372Y-64485486D01*
X182090343Y-64543543D01*
X182090343Y-64659657D01*
X182119372Y-64717714D01*
X182148400Y-64746743D01*
X182206458Y-64775771D01*
X182322572Y-64775771D01*
X182380629Y-64746743D01*
X182409658Y-64717714D01*
X182438686Y-64659657D01*
X182438686Y-64543543D01*
X182409658Y-64485486D01*
X182380629Y-64456457D01*
X182322572Y-64427429D01*
X182728971Y-64775771D02*
X182845086Y-64775771D01*
X182903143Y-64746743D01*
X182932171Y-64717714D01*
X182990229Y-64630629D01*
X183019257Y-64514514D01*
X183019257Y-64282286D01*
X182990229Y-64224229D01*
X182961200Y-64195200D01*
X182903143Y-64166171D01*
X182787029Y-64166171D01*
X182728971Y-64195200D01*
X182699943Y-64224229D01*
X182670914Y-64282286D01*
X182670914Y-64427429D01*
X182699943Y-64485486D01*
X182728971Y-64514514D01*
X182787029Y-64543543D01*
X182903143Y-64543543D01*
X182961200Y-64514514D01*
X182990229Y-64485486D01*
X183019257Y-64427429D01*
X185275771Y-71391885D02*
X184985486Y-71595085D01*
X185275771Y-71740228D02*
X184666171Y-71740228D01*
X184666171Y-71508000D01*
X184695200Y-71449942D01*
X184724229Y-71420914D01*
X184782286Y-71391885D01*
X184869371Y-71391885D01*
X184927429Y-71420914D01*
X184956457Y-71449942D01*
X184985486Y-71508000D01*
X184985486Y-71740228D01*
X185275771Y-71101600D02*
X185275771Y-70985485D01*
X185246743Y-70927428D01*
X185217714Y-70898400D01*
X185130629Y-70840342D01*
X185014514Y-70811314D01*
X184782286Y-70811314D01*
X184724229Y-70840342D01*
X184695200Y-70869371D01*
X184666171Y-70927428D01*
X184666171Y-71043542D01*
X184695200Y-71101600D01*
X184724229Y-71130628D01*
X184782286Y-71159657D01*
X184927429Y-71159657D01*
X184985486Y-71130628D01*
X185014514Y-71101600D01*
X185043543Y-71043542D01*
X185043543Y-70927428D01*
X185014514Y-70869371D01*
X184985486Y-70840342D01*
X184927429Y-70811314D01*
X184666171Y-70608114D02*
X184666171Y-70230743D01*
X184898400Y-70433943D01*
X184898400Y-70346857D01*
X184927429Y-70288800D01*
X184956457Y-70259771D01*
X185014514Y-70230743D01*
X185159657Y-70230743D01*
X185217714Y-70259771D01*
X185246743Y-70288800D01*
X185275771Y-70346857D01*
X185275771Y-70521029D01*
X185246743Y-70579086D01*
X185217714Y-70608114D01*
X191525771Y-76641885D02*
X191235486Y-76845085D01*
X191525771Y-76990228D02*
X190916171Y-76990228D01*
X190916171Y-76758000D01*
X190945200Y-76699942D01*
X190974229Y-76670914D01*
X191032286Y-76641885D01*
X191119371Y-76641885D01*
X191177429Y-76670914D01*
X191206457Y-76699942D01*
X191235486Y-76758000D01*
X191235486Y-76990228D01*
X191525771Y-76351600D02*
X191525771Y-76235485D01*
X191496743Y-76177428D01*
X191467714Y-76148400D01*
X191380629Y-76090342D01*
X191264514Y-76061314D01*
X191032286Y-76061314D01*
X190974229Y-76090342D01*
X190945200Y-76119371D01*
X190916171Y-76177428D01*
X190916171Y-76293542D01*
X190945200Y-76351600D01*
X190974229Y-76380628D01*
X191032286Y-76409657D01*
X191177429Y-76409657D01*
X191235486Y-76380628D01*
X191264514Y-76351600D01*
X191293543Y-76293542D01*
X191293543Y-76177428D01*
X191264514Y-76119371D01*
X191235486Y-76090342D01*
X191177429Y-76061314D01*
X191119371Y-75538800D02*
X191525771Y-75538800D01*
X190887143Y-75683943D02*
X191322571Y-75829086D01*
X191322571Y-75451714D01*
X196108115Y-76025771D02*
X195904915Y-75735486D01*
X195759772Y-76025771D02*
X195759772Y-75416171D01*
X195992000Y-75416171D01*
X196050058Y-75445200D01*
X196079086Y-75474229D01*
X196108115Y-75532286D01*
X196108115Y-75619371D01*
X196079086Y-75677429D01*
X196050058Y-75706457D01*
X195992000Y-75735486D01*
X195759772Y-75735486D01*
X196398400Y-76025771D02*
X196514515Y-76025771D01*
X196572572Y-75996743D01*
X196601600Y-75967714D01*
X196659658Y-75880629D01*
X196688686Y-75764514D01*
X196688686Y-75532286D01*
X196659658Y-75474229D01*
X196630629Y-75445200D01*
X196572572Y-75416171D01*
X196456458Y-75416171D01*
X196398400Y-75445200D01*
X196369372Y-75474229D01*
X196340343Y-75532286D01*
X196340343Y-75677429D01*
X196369372Y-75735486D01*
X196398400Y-75764514D01*
X196456458Y-75793543D01*
X196572572Y-75793543D01*
X196630629Y-75764514D01*
X196659658Y-75735486D01*
X196688686Y-75677429D01*
X197211200Y-75416171D02*
X197095086Y-75416171D01*
X197037029Y-75445200D01*
X197008000Y-75474229D01*
X196949943Y-75561314D01*
X196920914Y-75677429D01*
X196920914Y-75909657D01*
X196949943Y-75967714D01*
X196978971Y-75996743D01*
X197037029Y-76025771D01*
X197153143Y-76025771D01*
X197211200Y-75996743D01*
X197240229Y-75967714D01*
X197269257Y-75909657D01*
X197269257Y-75764514D01*
X197240229Y-75706457D01*
X197211200Y-75677429D01*
X197153143Y-75648400D01*
X197037029Y-75648400D01*
X196978971Y-75677429D01*
X196949943Y-75706457D01*
X196920914Y-75764514D01*
X147525771Y-68641885D02*
X147235486Y-68845085D01*
X147525771Y-68990228D02*
X146916171Y-68990228D01*
X146916171Y-68758000D01*
X146945200Y-68699942D01*
X146974229Y-68670914D01*
X147032286Y-68641885D01*
X147119371Y-68641885D01*
X147177429Y-68670914D01*
X147206457Y-68699942D01*
X147235486Y-68758000D01*
X147235486Y-68990228D01*
X147525771Y-68351600D02*
X147525771Y-68235485D01*
X147496743Y-68177428D01*
X147467714Y-68148400D01*
X147380629Y-68090342D01*
X147264514Y-68061314D01*
X147032286Y-68061314D01*
X146974229Y-68090342D01*
X146945200Y-68119371D01*
X146916171Y-68177428D01*
X146916171Y-68293542D01*
X146945200Y-68351600D01*
X146974229Y-68380628D01*
X147032286Y-68409657D01*
X147177429Y-68409657D01*
X147235486Y-68380628D01*
X147264514Y-68351600D01*
X147293543Y-68293542D01*
X147293543Y-68177428D01*
X147264514Y-68119371D01*
X147235486Y-68090342D01*
X147177429Y-68061314D01*
X146916171Y-67858114D02*
X146916171Y-67451714D01*
X147525771Y-67712971D01*
X125108115Y-65775771D02*
X124904915Y-65485486D01*
X124759772Y-65775771D02*
X124759772Y-65166171D01*
X124992000Y-65166171D01*
X125050058Y-65195200D01*
X125079086Y-65224229D01*
X125108115Y-65282286D01*
X125108115Y-65369371D01*
X125079086Y-65427429D01*
X125050058Y-65456457D01*
X124992000Y-65485486D01*
X124759772Y-65485486D01*
X125398400Y-65775771D02*
X125514515Y-65775771D01*
X125572572Y-65746743D01*
X125601600Y-65717714D01*
X125659658Y-65630629D01*
X125688686Y-65514514D01*
X125688686Y-65282286D01*
X125659658Y-65224229D01*
X125630629Y-65195200D01*
X125572572Y-65166171D01*
X125456458Y-65166171D01*
X125398400Y-65195200D01*
X125369372Y-65224229D01*
X125340343Y-65282286D01*
X125340343Y-65427429D01*
X125369372Y-65485486D01*
X125398400Y-65514514D01*
X125456458Y-65543543D01*
X125572572Y-65543543D01*
X125630629Y-65514514D01*
X125659658Y-65485486D01*
X125688686Y-65427429D01*
X126037029Y-65427429D02*
X125978971Y-65398400D01*
X125949943Y-65369371D01*
X125920914Y-65311314D01*
X125920914Y-65282286D01*
X125949943Y-65224229D01*
X125978971Y-65195200D01*
X126037029Y-65166171D01*
X126153143Y-65166171D01*
X126211200Y-65195200D01*
X126240229Y-65224229D01*
X126269257Y-65282286D01*
X126269257Y-65311314D01*
X126240229Y-65369371D01*
X126211200Y-65398400D01*
X126153143Y-65427429D01*
X126037029Y-65427429D01*
X125978971Y-65456457D01*
X125949943Y-65485486D01*
X125920914Y-65543543D01*
X125920914Y-65659657D01*
X125949943Y-65717714D01*
X125978971Y-65746743D01*
X126037029Y-65775771D01*
X126153143Y-65775771D01*
X126211200Y-65746743D01*
X126240229Y-65717714D01*
X126269257Y-65659657D01*
X126269257Y-65543543D01*
X126240229Y-65485486D01*
X126211200Y-65456457D01*
X126153143Y-65427429D01*
X128608115Y-65275771D02*
X128404915Y-64985486D01*
X128259772Y-65275771D02*
X128259772Y-64666171D01*
X128492000Y-64666171D01*
X128550058Y-64695200D01*
X128579086Y-64724229D01*
X128608115Y-64782286D01*
X128608115Y-64869371D01*
X128579086Y-64927429D01*
X128550058Y-64956457D01*
X128492000Y-64985486D01*
X128259772Y-64985486D01*
X128898400Y-65275771D02*
X129014515Y-65275771D01*
X129072572Y-65246743D01*
X129101600Y-65217714D01*
X129159658Y-65130629D01*
X129188686Y-65014514D01*
X129188686Y-64782286D01*
X129159658Y-64724229D01*
X129130629Y-64695200D01*
X129072572Y-64666171D01*
X128956458Y-64666171D01*
X128898400Y-64695200D01*
X128869372Y-64724229D01*
X128840343Y-64782286D01*
X128840343Y-64927429D01*
X128869372Y-64985486D01*
X128898400Y-65014514D01*
X128956458Y-65043543D01*
X129072572Y-65043543D01*
X129130629Y-65014514D01*
X129159658Y-64985486D01*
X129188686Y-64927429D01*
X129478971Y-65275771D02*
X129595086Y-65275771D01*
X129653143Y-65246743D01*
X129682171Y-65217714D01*
X129740229Y-65130629D01*
X129769257Y-65014514D01*
X129769257Y-64782286D01*
X129740229Y-64724229D01*
X129711200Y-64695200D01*
X129653143Y-64666171D01*
X129537029Y-64666171D01*
X129478971Y-64695200D01*
X129449943Y-64724229D01*
X129420914Y-64782286D01*
X129420914Y-64927429D01*
X129449943Y-64985486D01*
X129478971Y-65014514D01*
X129537029Y-65043543D01*
X129653143Y-65043543D01*
X129711200Y-65014514D01*
X129740229Y-64985486D01*
X129769257Y-64927429D01*
X131567830Y-65275771D02*
X131364630Y-64985486D01*
X131219487Y-65275771D02*
X131219487Y-64666171D01*
X131451715Y-64666171D01*
X131509773Y-64695200D01*
X131538801Y-64724229D01*
X131567830Y-64782286D01*
X131567830Y-64869371D01*
X131538801Y-64927429D01*
X131509773Y-64956457D01*
X131451715Y-64985486D01*
X131219487Y-64985486D01*
X132148401Y-65275771D02*
X131800058Y-65275771D01*
X131974230Y-65275771D02*
X131974230Y-64666171D01*
X131916173Y-64753257D01*
X131858115Y-64811314D01*
X131800058Y-64840343D01*
X132525772Y-64666171D02*
X132583829Y-64666171D01*
X132641886Y-64695200D01*
X132670915Y-64724229D01*
X132699944Y-64782286D01*
X132728972Y-64898400D01*
X132728972Y-65043543D01*
X132699944Y-65159657D01*
X132670915Y-65217714D01*
X132641886Y-65246743D01*
X132583829Y-65275771D01*
X132525772Y-65275771D01*
X132467715Y-65246743D01*
X132438686Y-65217714D01*
X132409658Y-65159657D01*
X132380629Y-65043543D01*
X132380629Y-64898400D01*
X132409658Y-64782286D01*
X132438686Y-64724229D01*
X132467715Y-64695200D01*
X132525772Y-64666171D01*
X133106343Y-64666171D02*
X133164400Y-64666171D01*
X133222457Y-64695200D01*
X133251486Y-64724229D01*
X133280515Y-64782286D01*
X133309543Y-64898400D01*
X133309543Y-65043543D01*
X133280515Y-65159657D01*
X133251486Y-65217714D01*
X133222457Y-65246743D01*
X133164400Y-65275771D01*
X133106343Y-65275771D01*
X133048286Y-65246743D01*
X133019257Y-65217714D01*
X132990229Y-65159657D01*
X132961200Y-65043543D01*
X132961200Y-64898400D01*
X132990229Y-64782286D01*
X133019257Y-64724229D01*
X133048286Y-64695200D01*
X133106343Y-64666171D01*
X138317830Y-65275771D02*
X138114630Y-64985486D01*
X137969487Y-65275771D02*
X137969487Y-64666171D01*
X138201715Y-64666171D01*
X138259773Y-64695200D01*
X138288801Y-64724229D01*
X138317830Y-64782286D01*
X138317830Y-64869371D01*
X138288801Y-64927429D01*
X138259773Y-64956457D01*
X138201715Y-64985486D01*
X137969487Y-64985486D01*
X138898401Y-65275771D02*
X138550058Y-65275771D01*
X138724230Y-65275771D02*
X138724230Y-64666171D01*
X138666173Y-64753257D01*
X138608115Y-64811314D01*
X138550058Y-64840343D01*
X139275772Y-64666171D02*
X139333829Y-64666171D01*
X139391886Y-64695200D01*
X139420915Y-64724229D01*
X139449944Y-64782286D01*
X139478972Y-64898400D01*
X139478972Y-65043543D01*
X139449944Y-65159657D01*
X139420915Y-65217714D01*
X139391886Y-65246743D01*
X139333829Y-65275771D01*
X139275772Y-65275771D01*
X139217715Y-65246743D01*
X139188686Y-65217714D01*
X139159658Y-65159657D01*
X139130629Y-65043543D01*
X139130629Y-64898400D01*
X139159658Y-64782286D01*
X139188686Y-64724229D01*
X139217715Y-64695200D01*
X139275772Y-64666171D01*
X140059543Y-65275771D02*
X139711200Y-65275771D01*
X139885372Y-65275771D02*
X139885372Y-64666171D01*
X139827315Y-64753257D01*
X139769257Y-64811314D01*
X139711200Y-64840343D01*
X142567830Y-65275771D02*
X142364630Y-64985486D01*
X142219487Y-65275771D02*
X142219487Y-64666171D01*
X142451715Y-64666171D01*
X142509773Y-64695200D01*
X142538801Y-64724229D01*
X142567830Y-64782286D01*
X142567830Y-64869371D01*
X142538801Y-64927429D01*
X142509773Y-64956457D01*
X142451715Y-64985486D01*
X142219487Y-64985486D01*
X143148401Y-65275771D02*
X142800058Y-65275771D01*
X142974230Y-65275771D02*
X142974230Y-64666171D01*
X142916173Y-64753257D01*
X142858115Y-64811314D01*
X142800058Y-64840343D01*
X143525772Y-64666171D02*
X143583829Y-64666171D01*
X143641886Y-64695200D01*
X143670915Y-64724229D01*
X143699944Y-64782286D01*
X143728972Y-64898400D01*
X143728972Y-65043543D01*
X143699944Y-65159657D01*
X143670915Y-65217714D01*
X143641886Y-65246743D01*
X143583829Y-65275771D01*
X143525772Y-65275771D01*
X143467715Y-65246743D01*
X143438686Y-65217714D01*
X143409658Y-65159657D01*
X143380629Y-65043543D01*
X143380629Y-64898400D01*
X143409658Y-64782286D01*
X143438686Y-64724229D01*
X143467715Y-64695200D01*
X143525772Y-64666171D01*
X143961200Y-64724229D02*
X143990229Y-64695200D01*
X144048286Y-64666171D01*
X144193429Y-64666171D01*
X144251486Y-64695200D01*
X144280515Y-64724229D01*
X144309543Y-64782286D01*
X144309543Y-64840343D01*
X144280515Y-64927429D01*
X143932172Y-65275771D01*
X144309543Y-65275771D01*
X125125771Y-70182170D02*
X124835486Y-70385370D01*
X125125771Y-70530513D02*
X124516171Y-70530513D01*
X124516171Y-70298285D01*
X124545200Y-70240227D01*
X124574229Y-70211199D01*
X124632286Y-70182170D01*
X124719371Y-70182170D01*
X124777429Y-70211199D01*
X124806457Y-70240227D01*
X124835486Y-70298285D01*
X124835486Y-70530513D01*
X125125771Y-69601599D02*
X125125771Y-69949942D01*
X125125771Y-69775770D02*
X124516171Y-69775770D01*
X124603257Y-69833827D01*
X124661314Y-69891885D01*
X124690343Y-69949942D01*
X124516171Y-69224228D02*
X124516171Y-69166171D01*
X124545200Y-69108114D01*
X124574229Y-69079085D01*
X124632286Y-69050056D01*
X124748400Y-69021028D01*
X124893543Y-69021028D01*
X125009657Y-69050056D01*
X125067714Y-69079085D01*
X125096743Y-69108114D01*
X125125771Y-69166171D01*
X125125771Y-69224228D01*
X125096743Y-69282285D01*
X125067714Y-69311314D01*
X125009657Y-69340342D01*
X124893543Y-69369371D01*
X124748400Y-69369371D01*
X124632286Y-69340342D01*
X124574229Y-69311314D01*
X124545200Y-69282285D01*
X124516171Y-69224228D01*
X124516171Y-68817828D02*
X124516171Y-68440457D01*
X124748400Y-68643657D01*
X124748400Y-68556571D01*
X124777429Y-68498514D01*
X124806457Y-68469485D01*
X124864514Y-68440457D01*
X125009657Y-68440457D01*
X125067714Y-68469485D01*
X125096743Y-68498514D01*
X125125771Y-68556571D01*
X125125771Y-68730743D01*
X125096743Y-68788800D01*
X125067714Y-68817828D01*
X147525771Y-71682170D02*
X147235486Y-71885370D01*
X147525771Y-72030513D02*
X146916171Y-72030513D01*
X146916171Y-71798285D01*
X146945200Y-71740227D01*
X146974229Y-71711199D01*
X147032286Y-71682170D01*
X147119371Y-71682170D01*
X147177429Y-71711199D01*
X147206457Y-71740227D01*
X147235486Y-71798285D01*
X147235486Y-72030513D01*
X147525771Y-71101599D02*
X147525771Y-71449942D01*
X147525771Y-71275770D02*
X146916171Y-71275770D01*
X147003257Y-71333827D01*
X147061314Y-71391885D01*
X147090343Y-71449942D01*
X146916171Y-70724228D02*
X146916171Y-70666171D01*
X146945200Y-70608114D01*
X146974229Y-70579085D01*
X147032286Y-70550056D01*
X147148400Y-70521028D01*
X147293543Y-70521028D01*
X147409657Y-70550056D01*
X147467714Y-70579085D01*
X147496743Y-70608114D01*
X147525771Y-70666171D01*
X147525771Y-70724228D01*
X147496743Y-70782285D01*
X147467714Y-70811314D01*
X147409657Y-70840342D01*
X147293543Y-70869371D01*
X147148400Y-70869371D01*
X147032286Y-70840342D01*
X146974229Y-70811314D01*
X146945200Y-70782285D01*
X146916171Y-70724228D01*
X147119371Y-69998514D02*
X147525771Y-69998514D01*
X146887143Y-70143657D02*
X147322571Y-70288800D01*
X147322571Y-69911428D01*
X124525771Y-80182170D02*
X124235486Y-80385370D01*
X124525771Y-80530513D02*
X123916171Y-80530513D01*
X123916171Y-80298285D01*
X123945200Y-80240227D01*
X123974229Y-80211199D01*
X124032286Y-80182170D01*
X124119371Y-80182170D01*
X124177429Y-80211199D01*
X124206457Y-80240227D01*
X124235486Y-80298285D01*
X124235486Y-80530513D01*
X124525771Y-79601599D02*
X124525771Y-79949942D01*
X124525771Y-79775770D02*
X123916171Y-79775770D01*
X124003257Y-79833827D01*
X124061314Y-79891885D01*
X124090343Y-79949942D01*
X123916171Y-79224228D02*
X123916171Y-79166171D01*
X123945200Y-79108114D01*
X123974229Y-79079085D01*
X124032286Y-79050056D01*
X124148400Y-79021028D01*
X124293543Y-79021028D01*
X124409657Y-79050056D01*
X124467714Y-79079085D01*
X124496743Y-79108114D01*
X124525771Y-79166171D01*
X124525771Y-79224228D01*
X124496743Y-79282285D01*
X124467714Y-79311314D01*
X124409657Y-79340342D01*
X124293543Y-79369371D01*
X124148400Y-79369371D01*
X124032286Y-79340342D01*
X123974229Y-79311314D01*
X123945200Y-79282285D01*
X123916171Y-79224228D01*
X123916171Y-78498514D02*
X123916171Y-78614628D01*
X123945200Y-78672685D01*
X123974229Y-78701714D01*
X124061314Y-78759771D01*
X124177429Y-78788800D01*
X124409657Y-78788800D01*
X124467714Y-78759771D01*
X124496743Y-78730743D01*
X124525771Y-78672685D01*
X124525771Y-78556571D01*
X124496743Y-78498514D01*
X124467714Y-78469485D01*
X124409657Y-78440457D01*
X124264514Y-78440457D01*
X124206457Y-78469485D01*
X124177429Y-78498514D01*
X124148400Y-78556571D01*
X124148400Y-78672685D01*
X124177429Y-78730743D01*
X124206457Y-78759771D01*
X124264514Y-78788800D01*
X140067830Y-87275771D02*
X139864630Y-86985486D01*
X139719487Y-87275771D02*
X139719487Y-86666171D01*
X139951715Y-86666171D01*
X140009773Y-86695200D01*
X140038801Y-86724229D01*
X140067830Y-86782286D01*
X140067830Y-86869371D01*
X140038801Y-86927429D01*
X140009773Y-86956457D01*
X139951715Y-86985486D01*
X139719487Y-86985486D01*
X140648401Y-87275771D02*
X140300058Y-87275771D01*
X140474230Y-87275771D02*
X140474230Y-86666171D01*
X140416173Y-86753257D01*
X140358115Y-86811314D01*
X140300058Y-86840343D01*
X141025772Y-86666171D02*
X141083829Y-86666171D01*
X141141886Y-86695200D01*
X141170915Y-86724229D01*
X141199944Y-86782286D01*
X141228972Y-86898400D01*
X141228972Y-87043543D01*
X141199944Y-87159657D01*
X141170915Y-87217714D01*
X141141886Y-87246743D01*
X141083829Y-87275771D01*
X141025772Y-87275771D01*
X140967715Y-87246743D01*
X140938686Y-87217714D01*
X140909658Y-87159657D01*
X140880629Y-87043543D01*
X140880629Y-86898400D01*
X140909658Y-86782286D01*
X140938686Y-86724229D01*
X140967715Y-86695200D01*
X141025772Y-86666171D01*
X141519257Y-87275771D02*
X141635372Y-87275771D01*
X141693429Y-87246743D01*
X141722457Y-87217714D01*
X141780515Y-87130629D01*
X141809543Y-87014514D01*
X141809543Y-86782286D01*
X141780515Y-86724229D01*
X141751486Y-86695200D01*
X141693429Y-86666171D01*
X141577315Y-86666171D01*
X141519257Y-86695200D01*
X141490229Y-86724229D01*
X141461200Y-86782286D01*
X141461200Y-86927429D01*
X141490229Y-86985486D01*
X141519257Y-87014514D01*
X141577315Y-87043543D01*
X141693429Y-87043543D01*
X141751486Y-87014514D01*
X141780515Y-86985486D01*
X141809543Y-86927429D01*
X143067830Y-87275771D02*
X142864630Y-86985486D01*
X142719487Y-87275771D02*
X142719487Y-86666171D01*
X142951715Y-86666171D01*
X143009773Y-86695200D01*
X143038801Y-86724229D01*
X143067830Y-86782286D01*
X143067830Y-86869371D01*
X143038801Y-86927429D01*
X143009773Y-86956457D01*
X142951715Y-86985486D01*
X142719487Y-86985486D01*
X143648401Y-87275771D02*
X143300058Y-87275771D01*
X143474230Y-87275771D02*
X143474230Y-86666171D01*
X143416173Y-86753257D01*
X143358115Y-86811314D01*
X143300058Y-86840343D01*
X144228972Y-87275771D02*
X143880629Y-87275771D01*
X144054801Y-87275771D02*
X144054801Y-86666171D01*
X143996744Y-86753257D01*
X143938686Y-86811314D01*
X143880629Y-86840343D01*
X144606343Y-86666171D02*
X144664400Y-86666171D01*
X144722457Y-86695200D01*
X144751486Y-86724229D01*
X144780515Y-86782286D01*
X144809543Y-86898400D01*
X144809543Y-87043543D01*
X144780515Y-87159657D01*
X144751486Y-87217714D01*
X144722457Y-87246743D01*
X144664400Y-87275771D01*
X144606343Y-87275771D01*
X144548286Y-87246743D01*
X144519257Y-87217714D01*
X144490229Y-87159657D01*
X144461200Y-87043543D01*
X144461200Y-86898400D01*
X144490229Y-86782286D01*
X144519257Y-86724229D01*
X144548286Y-86695200D01*
X144606343Y-86666171D01*
X129225771Y-80432170D02*
X128935486Y-80635370D01*
X129225771Y-80780513D02*
X128616171Y-80780513D01*
X128616171Y-80548285D01*
X128645200Y-80490227D01*
X128674229Y-80461199D01*
X128732286Y-80432170D01*
X128819371Y-80432170D01*
X128877429Y-80461199D01*
X128906457Y-80490227D01*
X128935486Y-80548285D01*
X128935486Y-80780513D01*
X129225771Y-79851599D02*
X129225771Y-80199942D01*
X129225771Y-80025770D02*
X128616171Y-80025770D01*
X128703257Y-80083827D01*
X128761314Y-80141885D01*
X128790343Y-80199942D01*
X129225771Y-79271028D02*
X129225771Y-79619371D01*
X129225771Y-79445199D02*
X128616171Y-79445199D01*
X128703257Y-79503256D01*
X128761314Y-79561314D01*
X128790343Y-79619371D01*
X128674229Y-79038800D02*
X128645200Y-79009771D01*
X128616171Y-78951714D01*
X128616171Y-78806571D01*
X128645200Y-78748514D01*
X128674229Y-78719485D01*
X128732286Y-78690457D01*
X128790343Y-78690457D01*
X128877429Y-78719485D01*
X129225771Y-79067828D01*
X129225771Y-78690457D01*
X135025771Y-83182170D02*
X134735486Y-83385370D01*
X135025771Y-83530513D02*
X134416171Y-83530513D01*
X134416171Y-83298285D01*
X134445200Y-83240227D01*
X134474229Y-83211199D01*
X134532286Y-83182170D01*
X134619371Y-83182170D01*
X134677429Y-83211199D01*
X134706457Y-83240227D01*
X134735486Y-83298285D01*
X134735486Y-83530513D01*
X135025771Y-82601599D02*
X135025771Y-82949942D01*
X135025771Y-82775770D02*
X134416171Y-82775770D01*
X134503257Y-82833827D01*
X134561314Y-82891885D01*
X134590343Y-82949942D01*
X135025771Y-82021028D02*
X135025771Y-82369371D01*
X135025771Y-82195199D02*
X134416171Y-82195199D01*
X134503257Y-82253256D01*
X134561314Y-82311314D01*
X134590343Y-82369371D01*
X134416171Y-81817828D02*
X134416171Y-81440457D01*
X134648400Y-81643657D01*
X134648400Y-81556571D01*
X134677429Y-81498514D01*
X134706457Y-81469485D01*
X134764514Y-81440457D01*
X134909657Y-81440457D01*
X134967714Y-81469485D01*
X134996743Y-81498514D01*
X135025771Y-81556571D01*
X135025771Y-81730743D01*
X134996743Y-81788800D01*
X134967714Y-81817828D01*
X133525771Y-83182170D02*
X133235486Y-83385370D01*
X133525771Y-83530513D02*
X132916171Y-83530513D01*
X132916171Y-83298285D01*
X132945200Y-83240227D01*
X132974229Y-83211199D01*
X133032286Y-83182170D01*
X133119371Y-83182170D01*
X133177429Y-83211199D01*
X133206457Y-83240227D01*
X133235486Y-83298285D01*
X133235486Y-83530513D01*
X133525771Y-82601599D02*
X133525771Y-82949942D01*
X133525771Y-82775770D02*
X132916171Y-82775770D01*
X133003257Y-82833827D01*
X133061314Y-82891885D01*
X133090343Y-82949942D01*
X133525771Y-82021028D02*
X133525771Y-82369371D01*
X133525771Y-82195199D02*
X132916171Y-82195199D01*
X133003257Y-82253256D01*
X133061314Y-82311314D01*
X133090343Y-82369371D01*
X132916171Y-81498514D02*
X132916171Y-81614628D01*
X132945200Y-81672685D01*
X132974229Y-81701714D01*
X133061314Y-81759771D01*
X133177429Y-81788800D01*
X133409657Y-81788800D01*
X133467714Y-81759771D01*
X133496743Y-81730743D01*
X133525771Y-81672685D01*
X133525771Y-81556571D01*
X133496743Y-81498514D01*
X133467714Y-81469485D01*
X133409657Y-81440457D01*
X133264514Y-81440457D01*
X133206457Y-81469485D01*
X133177429Y-81498514D01*
X133148400Y-81556571D01*
X133148400Y-81672685D01*
X133177429Y-81730743D01*
X133206457Y-81759771D01*
X133264514Y-81788800D01*
X158317830Y-87075771D02*
X158114630Y-86785486D01*
X157969487Y-87075771D02*
X157969487Y-86466171D01*
X158201715Y-86466171D01*
X158259773Y-86495200D01*
X158288801Y-86524229D01*
X158317830Y-86582286D01*
X158317830Y-86669371D01*
X158288801Y-86727429D01*
X158259773Y-86756457D01*
X158201715Y-86785486D01*
X157969487Y-86785486D01*
X158898401Y-87075771D02*
X158550058Y-87075771D01*
X158724230Y-87075771D02*
X158724230Y-86466171D01*
X158666173Y-86553257D01*
X158608115Y-86611314D01*
X158550058Y-86640343D01*
X159478972Y-87075771D02*
X159130629Y-87075771D01*
X159304801Y-87075771D02*
X159304801Y-86466171D01*
X159246744Y-86553257D01*
X159188686Y-86611314D01*
X159130629Y-86640343D01*
X159769257Y-87075771D02*
X159885372Y-87075771D01*
X159943429Y-87046743D01*
X159972457Y-87017714D01*
X160030515Y-86930629D01*
X160059543Y-86814514D01*
X160059543Y-86582286D01*
X160030515Y-86524229D01*
X160001486Y-86495200D01*
X159943429Y-86466171D01*
X159827315Y-86466171D01*
X159769257Y-86495200D01*
X159740229Y-86524229D01*
X159711200Y-86582286D01*
X159711200Y-86727429D01*
X159740229Y-86785486D01*
X159769257Y-86814514D01*
X159827315Y-86843543D01*
X159943429Y-86843543D01*
X160001486Y-86814514D01*
X160030515Y-86785486D01*
X160059543Y-86727429D01*
X97730743Y-75666171D02*
X98079086Y-75666171D01*
X97904915Y-76275771D02*
X97904915Y-75666171D01*
X98630629Y-76217714D02*
X98601600Y-76246743D01*
X98514514Y-76275771D01*
X98456457Y-76275771D01*
X98369372Y-76246743D01*
X98311314Y-76188686D01*
X98282286Y-76130629D01*
X98253257Y-76014514D01*
X98253257Y-75927429D01*
X98282286Y-75811314D01*
X98311314Y-75753257D01*
X98369372Y-75695200D01*
X98456457Y-75666171D01*
X98514514Y-75666171D01*
X98601600Y-75695200D01*
X98630629Y-75724229D01*
X99211200Y-76275771D02*
X98862857Y-76275771D01*
X99037029Y-76275771D02*
X99037029Y-75666171D01*
X98978972Y-75753257D01*
X98920914Y-75811314D01*
X98862857Y-75840343D01*
X121666171Y-76519257D02*
X121666171Y-76170914D01*
X122275771Y-76345085D02*
X121666171Y-76345085D01*
X122217714Y-75619371D02*
X122246743Y-75648400D01*
X122275771Y-75735486D01*
X122275771Y-75793543D01*
X122246743Y-75880628D01*
X122188686Y-75938686D01*
X122130629Y-75967714D01*
X122014514Y-75996743D01*
X121927429Y-75996743D01*
X121811314Y-75967714D01*
X121753257Y-75938686D01*
X121695200Y-75880628D01*
X121666171Y-75793543D01*
X121666171Y-75735486D01*
X121695200Y-75648400D01*
X121724229Y-75619371D01*
X121724229Y-75387143D02*
X121695200Y-75358114D01*
X121666171Y-75300057D01*
X121666171Y-75154914D01*
X121695200Y-75096857D01*
X121724229Y-75067828D01*
X121782286Y-75038800D01*
X121840343Y-75038800D01*
X121927429Y-75067828D01*
X122275771Y-75416171D01*
X122275771Y-75038800D01*
D17*
X81035543Y-77666171D02*
X81035543Y-78159657D01*
X81064571Y-78217714D01*
X81093600Y-78246743D01*
X81151657Y-78275771D01*
X81267771Y-78275771D01*
X81325829Y-78246743D01*
X81354857Y-78217714D01*
X81383886Y-78159657D01*
X81383886Y-77666171D01*
X81993486Y-78275771D02*
X81645143Y-78275771D01*
X81819315Y-78275771D02*
X81819315Y-77666171D01*
X81761258Y-77753257D01*
X81703200Y-77811314D01*
X81645143Y-77840343D01*
D11*
X166035543Y-67166171D02*
X166035543Y-67659657D01*
X166064571Y-67717714D01*
X166093600Y-67746743D01*
X166151657Y-67775771D01*
X166267771Y-67775771D01*
X166325829Y-67746743D01*
X166354857Y-67717714D01*
X166383886Y-67659657D01*
X166383886Y-67166171D01*
X166645143Y-67224229D02*
X166674172Y-67195200D01*
X166732229Y-67166171D01*
X166877372Y-67166171D01*
X166935429Y-67195200D01*
X166964458Y-67224229D01*
X166993486Y-67282286D01*
X166993486Y-67340343D01*
X166964458Y-67427429D01*
X166616115Y-67775771D01*
X166993486Y-67775771D01*
X176166171Y-74714457D02*
X176659657Y-74714457D01*
X176717714Y-74685429D01*
X176746743Y-74656400D01*
X176775771Y-74598343D01*
X176775771Y-74482229D01*
X176746743Y-74424171D01*
X176717714Y-74395143D01*
X176659657Y-74366114D01*
X176166171Y-74366114D01*
X176166171Y-74133885D02*
X176166171Y-73756514D01*
X176398400Y-73959714D01*
X176398400Y-73872628D01*
X176427429Y-73814571D01*
X176456457Y-73785542D01*
X176514514Y-73756514D01*
X176659657Y-73756514D01*
X176717714Y-73785542D01*
X176746743Y-73814571D01*
X176775771Y-73872628D01*
X176775771Y-74046800D01*
X176746743Y-74104857D01*
X176717714Y-74133885D01*
D19*
X81785543Y-64416171D02*
X81785543Y-64909657D01*
X81814571Y-64967714D01*
X81843600Y-64996743D01*
X81901657Y-65025771D01*
X82017771Y-65025771D01*
X82075829Y-64996743D01*
X82104857Y-64967714D01*
X82133886Y-64909657D01*
X82133886Y-64416171D01*
X82685429Y-64619371D02*
X82685429Y-65025771D01*
X82540286Y-64387143D02*
X82395143Y-64822571D01*
X82772515Y-64822571D01*
D11*
X91035543Y-77666171D02*
X91035543Y-78159657D01*
X91064571Y-78217714D01*
X91093600Y-78246743D01*
X91151657Y-78275771D01*
X91267771Y-78275771D01*
X91325829Y-78246743D01*
X91354857Y-78217714D01*
X91383886Y-78159657D01*
X91383886Y-77666171D01*
X91964458Y-77666171D02*
X91674172Y-77666171D01*
X91645143Y-77956457D01*
X91674172Y-77927429D01*
X91732229Y-77898400D01*
X91877372Y-77898400D01*
X91935429Y-77927429D01*
X91964458Y-77956457D01*
X91993486Y-78014514D01*
X91993486Y-78159657D01*
X91964458Y-78217714D01*
X91935429Y-78246743D01*
X91877372Y-78275771D01*
X91732229Y-78275771D01*
X91674172Y-78246743D01*
X91645143Y-78217714D01*
X90785543Y-64416171D02*
X90785543Y-64909657D01*
X90814571Y-64967714D01*
X90843600Y-64996743D01*
X90901657Y-65025771D01*
X91017771Y-65025771D01*
X91075829Y-64996743D01*
X91104857Y-64967714D01*
X91133886Y-64909657D01*
X91133886Y-64416171D01*
X91685429Y-64416171D02*
X91569315Y-64416171D01*
X91511258Y-64445200D01*
X91482229Y-64474229D01*
X91424172Y-64561314D01*
X91395143Y-64677429D01*
X91395143Y-64909657D01*
X91424172Y-64967714D01*
X91453200Y-64996743D01*
X91511258Y-65025771D01*
X91627372Y-65025771D01*
X91685429Y-64996743D01*
X91714458Y-64967714D01*
X91743486Y-64909657D01*
X91743486Y-64764514D01*
X91714458Y-64706457D01*
X91685429Y-64677429D01*
X91627372Y-64648400D01*
X91511258Y-64648400D01*
X91453200Y-64677429D01*
X91424172Y-64706457D01*
X91395143Y-64764514D01*
X175535543Y-83416171D02*
X175535543Y-83909657D01*
X175564571Y-83967714D01*
X175593600Y-83996743D01*
X175651657Y-84025771D01*
X175767771Y-84025771D01*
X175825829Y-83996743D01*
X175854857Y-83967714D01*
X175883886Y-83909657D01*
X175883886Y-83416171D01*
X176116115Y-83416171D02*
X176522515Y-83416171D01*
X176261258Y-84025771D01*
D17*
X105035543Y-77666171D02*
X105035543Y-78159657D01*
X105064571Y-78217714D01*
X105093600Y-78246743D01*
X105151657Y-78275771D01*
X105267771Y-78275771D01*
X105325829Y-78246743D01*
X105354857Y-78217714D01*
X105383886Y-78159657D01*
X105383886Y-77666171D01*
X105761258Y-77927429D02*
X105703200Y-77898400D01*
X105674172Y-77869371D01*
X105645143Y-77811314D01*
X105645143Y-77782286D01*
X105674172Y-77724229D01*
X105703200Y-77695200D01*
X105761258Y-77666171D01*
X105877372Y-77666171D01*
X105935429Y-77695200D01*
X105964458Y-77724229D01*
X105993486Y-77782286D01*
X105993486Y-77811314D01*
X105964458Y-77869371D01*
X105935429Y-77898400D01*
X105877372Y-77927429D01*
X105761258Y-77927429D01*
X105703200Y-77956457D01*
X105674172Y-77985486D01*
X105645143Y-78043543D01*
X105645143Y-78159657D01*
X105674172Y-78217714D01*
X105703200Y-78246743D01*
X105761258Y-78275771D01*
X105877372Y-78275771D01*
X105935429Y-78246743D01*
X105964458Y-78217714D01*
X105993486Y-78159657D01*
X105993486Y-78043543D01*
X105964458Y-77985486D01*
X105935429Y-77956457D01*
X105877372Y-77927429D01*
D11*
X105785543Y-64166171D02*
X105785543Y-64659657D01*
X105814571Y-64717714D01*
X105843600Y-64746743D01*
X105901657Y-64775771D01*
X106017771Y-64775771D01*
X106075829Y-64746743D01*
X106104857Y-64717714D01*
X106133886Y-64659657D01*
X106133886Y-64166171D01*
X106453200Y-64775771D02*
X106569315Y-64775771D01*
X106627372Y-64746743D01*
X106656400Y-64717714D01*
X106714458Y-64630629D01*
X106743486Y-64514514D01*
X106743486Y-64282286D01*
X106714458Y-64224229D01*
X106685429Y-64195200D01*
X106627372Y-64166171D01*
X106511258Y-64166171D01*
X106453200Y-64195200D01*
X106424172Y-64224229D01*
X106395143Y-64282286D01*
X106395143Y-64427429D01*
X106424172Y-64485486D01*
X106453200Y-64514514D01*
X106511258Y-64543543D01*
X106627372Y-64543543D01*
X106685429Y-64514514D01*
X106714458Y-64485486D01*
X106743486Y-64427429D01*
X115245258Y-77416171D02*
X115245258Y-77909657D01*
X115274286Y-77967714D01*
X115303315Y-77996743D01*
X115361372Y-78025771D01*
X115477486Y-78025771D01*
X115535544Y-77996743D01*
X115564572Y-77967714D01*
X115593601Y-77909657D01*
X115593601Y-77416171D01*
X116203201Y-78025771D02*
X115854858Y-78025771D01*
X116029030Y-78025771D02*
X116029030Y-77416171D01*
X115970973Y-77503257D01*
X115912915Y-77561314D01*
X115854858Y-77590343D01*
X116580572Y-77416171D02*
X116638629Y-77416171D01*
X116696686Y-77445200D01*
X116725715Y-77474229D01*
X116754744Y-77532286D01*
X116783772Y-77648400D01*
X116783772Y-77793543D01*
X116754744Y-77909657D01*
X116725715Y-77967714D01*
X116696686Y-77996743D01*
X116638629Y-78025771D01*
X116580572Y-78025771D01*
X116522515Y-77996743D01*
X116493486Y-77967714D01*
X116464458Y-77909657D01*
X116435429Y-77793543D01*
X116435429Y-77648400D01*
X116464458Y-77532286D01*
X116493486Y-77474229D01*
X116522515Y-77445200D01*
X116580572Y-77416171D01*
X188995258Y-67166171D02*
X188995258Y-67659657D01*
X189024286Y-67717714D01*
X189053315Y-67746743D01*
X189111372Y-67775771D01*
X189227486Y-67775771D01*
X189285544Y-67746743D01*
X189314572Y-67717714D01*
X189343601Y-67659657D01*
X189343601Y-67166171D01*
X189953201Y-67775771D02*
X189604858Y-67775771D01*
X189779030Y-67775771D02*
X189779030Y-67166171D01*
X189720973Y-67253257D01*
X189662915Y-67311314D01*
X189604858Y-67340343D01*
X190533772Y-67775771D02*
X190185429Y-67775771D01*
X190359601Y-67775771D02*
X190359601Y-67166171D01*
X190301544Y-67253257D01*
X190243486Y-67311314D01*
X190185429Y-67340343D01*
X197995258Y-72916171D02*
X197995258Y-73409657D01*
X198024286Y-73467714D01*
X198053315Y-73496743D01*
X198111372Y-73525771D01*
X198227486Y-73525771D01*
X198285544Y-73496743D01*
X198314572Y-73467714D01*
X198343601Y-73409657D01*
X198343601Y-72916171D01*
X198953201Y-73525771D02*
X198604858Y-73525771D01*
X198779030Y-73525771D02*
X198779030Y-72916171D01*
X198720973Y-73003257D01*
X198662915Y-73061314D01*
X198604858Y-73090343D01*
X199185429Y-72974229D02*
X199214458Y-72945200D01*
X199272515Y-72916171D01*
X199417658Y-72916171D01*
X199475715Y-72945200D01*
X199504744Y-72974229D01*
X199533772Y-73032286D01*
X199533772Y-73090343D01*
X199504744Y-73177429D01*
X199156401Y-73525771D01*
X199533772Y-73525771D01*
X114745258Y-64166171D02*
X114745258Y-64659657D01*
X114774286Y-64717714D01*
X114803315Y-64746743D01*
X114861372Y-64775771D01*
X114977486Y-64775771D01*
X115035544Y-64746743D01*
X115064572Y-64717714D01*
X115093601Y-64659657D01*
X115093601Y-64166171D01*
X115703201Y-64775771D02*
X115354858Y-64775771D01*
X115529030Y-64775771D02*
X115529030Y-64166171D01*
X115470973Y-64253257D01*
X115412915Y-64311314D01*
X115354858Y-64340343D01*
X115906401Y-64166171D02*
X116283772Y-64166171D01*
X116080572Y-64398400D01*
X116167658Y-64398400D01*
X116225715Y-64427429D01*
X116254744Y-64456457D01*
X116283772Y-64514514D01*
X116283772Y-64659657D01*
X116254744Y-64717714D01*
X116225715Y-64746743D01*
X116167658Y-64775771D01*
X115993486Y-64775771D01*
X115935429Y-64746743D01*
X115906401Y-64717714D01*
X198245258Y-83416171D02*
X198245258Y-83909657D01*
X198274286Y-83967714D01*
X198303315Y-83996743D01*
X198361372Y-84025771D01*
X198477486Y-84025771D01*
X198535544Y-83996743D01*
X198564572Y-83967714D01*
X198593601Y-83909657D01*
X198593601Y-83416171D01*
X199203201Y-84025771D02*
X198854858Y-84025771D01*
X199029030Y-84025771D02*
X199029030Y-83416171D01*
X198970973Y-83503257D01*
X198912915Y-83561314D01*
X198854858Y-83590343D01*
X199725715Y-83619371D02*
X199725715Y-84025771D01*
X199580572Y-83387143D02*
X199435429Y-83822571D01*
X199812801Y-83822571D01*
X127745258Y-84666171D02*
X127745258Y-85159657D01*
X127774286Y-85217714D01*
X127803315Y-85246743D01*
X127861372Y-85275771D01*
X127977486Y-85275771D01*
X128035544Y-85246743D01*
X128064572Y-85217714D01*
X128093601Y-85159657D01*
X128093601Y-84666171D01*
X128703201Y-85275771D02*
X128354858Y-85275771D01*
X128529030Y-85275771D02*
X128529030Y-84666171D01*
X128470973Y-84753257D01*
X128412915Y-84811314D01*
X128354858Y-84840343D01*
X129254744Y-84666171D02*
X128964458Y-84666171D01*
X128935429Y-84956457D01*
X128964458Y-84927429D01*
X129022515Y-84898400D01*
X129167658Y-84898400D01*
X129225715Y-84927429D01*
X129254744Y-84956457D01*
X129283772Y-85014514D01*
X129283772Y-85159657D01*
X129254744Y-85217714D01*
X129225715Y-85246743D01*
X129167658Y-85275771D01*
X129022515Y-85275771D01*
X128964458Y-85246743D01*
X128935429Y-85217714D01*
X139495258Y-83416171D02*
X139495258Y-83909657D01*
X139524286Y-83967714D01*
X139553315Y-83996743D01*
X139611372Y-84025771D01*
X139727486Y-84025771D01*
X139785544Y-83996743D01*
X139814572Y-83967714D01*
X139843601Y-83909657D01*
X139843601Y-83416171D01*
X140453201Y-84025771D02*
X140104858Y-84025771D01*
X140279030Y-84025771D02*
X140279030Y-83416171D01*
X140220973Y-83503257D01*
X140162915Y-83561314D01*
X140104858Y-83590343D01*
X140975715Y-83416171D02*
X140859601Y-83416171D01*
X140801544Y-83445200D01*
X140772515Y-83474229D01*
X140714458Y-83561314D01*
X140685429Y-83677429D01*
X140685429Y-83909657D01*
X140714458Y-83967714D01*
X140743486Y-83996743D01*
X140801544Y-84025771D01*
X140917658Y-84025771D01*
X140975715Y-83996743D01*
X141004744Y-83967714D01*
X141033772Y-83909657D01*
X141033772Y-83764514D01*
X141004744Y-83706457D01*
X140975715Y-83677429D01*
X140917658Y-83648400D01*
X140801544Y-83648400D01*
X140743486Y-83677429D01*
X140714458Y-83706457D01*
X140685429Y-83764514D01*
X130495258Y-76666171D02*
X130495258Y-77159657D01*
X130524286Y-77217714D01*
X130553315Y-77246743D01*
X130611372Y-77275771D01*
X130727486Y-77275771D01*
X130785544Y-77246743D01*
X130814572Y-77217714D01*
X130843601Y-77159657D01*
X130843601Y-76666171D01*
X131453201Y-77275771D02*
X131104858Y-77275771D01*
X131279030Y-77275771D02*
X131279030Y-76666171D01*
X131220973Y-76753257D01*
X131162915Y-76811314D01*
X131104858Y-76840343D01*
X131656401Y-76666171D02*
X132062801Y-76666171D01*
X131801544Y-77275771D01*
X140245258Y-76666171D02*
X140245258Y-77159657D01*
X140274286Y-77217714D01*
X140303315Y-77246743D01*
X140361372Y-77275771D01*
X140477486Y-77275771D01*
X140535544Y-77246743D01*
X140564572Y-77217714D01*
X140593601Y-77159657D01*
X140593601Y-76666171D01*
X141203201Y-77275771D02*
X140854858Y-77275771D01*
X141029030Y-77275771D02*
X141029030Y-76666171D01*
X140970973Y-76753257D01*
X140912915Y-76811314D01*
X140854858Y-76840343D01*
X141551544Y-76927429D02*
X141493486Y-76898400D01*
X141464458Y-76869371D01*
X141435429Y-76811314D01*
X141435429Y-76782286D01*
X141464458Y-76724229D01*
X141493486Y-76695200D01*
X141551544Y-76666171D01*
X141667658Y-76666171D01*
X141725715Y-76695200D01*
X141754744Y-76724229D01*
X141783772Y-76782286D01*
X141783772Y-76811314D01*
X141754744Y-76869371D01*
X141725715Y-76898400D01*
X141667658Y-76927429D01*
X141551544Y-76927429D01*
X141493486Y-76956457D01*
X141464458Y-76985486D01*
X141435429Y-77043543D01*
X141435429Y-77159657D01*
X141464458Y-77217714D01*
X141493486Y-77246743D01*
X141551544Y-77275771D01*
X141667658Y-77275771D01*
X141725715Y-77246743D01*
X141754744Y-77217714D01*
X141783772Y-77159657D01*
X141783772Y-77043543D01*
X141754744Y-76985486D01*
X141725715Y-76956457D01*
X141667658Y-76927429D01*
X151495258Y-66666171D02*
X151495258Y-67159657D01*
X151524286Y-67217714D01*
X151553315Y-67246743D01*
X151611372Y-67275771D01*
X151727486Y-67275771D01*
X151785544Y-67246743D01*
X151814572Y-67217714D01*
X151843601Y-67159657D01*
X151843601Y-66666171D01*
X152453201Y-67275771D02*
X152104858Y-67275771D01*
X152279030Y-67275771D02*
X152279030Y-66666171D01*
X152220973Y-66753257D01*
X152162915Y-66811314D01*
X152104858Y-66840343D01*
X152743486Y-67275771D02*
X152859601Y-67275771D01*
X152917658Y-67246743D01*
X152946686Y-67217714D01*
X153004744Y-67130629D01*
X153033772Y-67014514D01*
X153033772Y-66782286D01*
X153004744Y-66724229D01*
X152975715Y-66695200D01*
X152917658Y-66666171D01*
X152801544Y-66666171D01*
X152743486Y-66695200D01*
X152714458Y-66724229D01*
X152685429Y-66782286D01*
X152685429Y-66927429D01*
X152714458Y-66985486D01*
X152743486Y-67014514D01*
X152801544Y-67043543D01*
X152917658Y-67043543D01*
X152975715Y-67014514D01*
X153004744Y-66985486D01*
X153033772Y-66927429D01*
X149495258Y-84416171D02*
X149495258Y-84909657D01*
X149524286Y-84967714D01*
X149553315Y-84996743D01*
X149611372Y-85025771D01*
X149727486Y-85025771D01*
X149785544Y-84996743D01*
X149814572Y-84967714D01*
X149843601Y-84909657D01*
X149843601Y-84416171D01*
X150104858Y-84474229D02*
X150133887Y-84445200D01*
X150191944Y-84416171D01*
X150337087Y-84416171D01*
X150395144Y-84445200D01*
X150424173Y-84474229D01*
X150453201Y-84532286D01*
X150453201Y-84590343D01*
X150424173Y-84677429D01*
X150075830Y-85025771D01*
X150453201Y-85025771D01*
X150830572Y-84416171D02*
X150888629Y-84416171D01*
X150946686Y-84445200D01*
X150975715Y-84474229D01*
X151004744Y-84532286D01*
X151033772Y-84648400D01*
X151033772Y-84793543D01*
X151004744Y-84909657D01*
X150975715Y-84967714D01*
X150946686Y-84996743D01*
X150888629Y-85025771D01*
X150830572Y-85025771D01*
X150772515Y-84996743D01*
X150743486Y-84967714D01*
X150714458Y-84909657D01*
X150685429Y-84793543D01*
X150685429Y-84648400D01*
X150714458Y-84532286D01*
X150743486Y-84474229D01*
X150772515Y-84445200D01*
X150830572Y-84416171D01*
%LPC*%
D20*
X91420500Y-74000000D03*
X93579500Y-74000000D03*
D21*
X88750000Y-83500000D03*
X87048200Y-83500000D03*
X180100900Y-74750000D03*
X178399100Y-74750000D03*
X96298200Y-81250000D03*
X98000000Y-81250000D03*
D22*
X173250000Y-71600900D03*
X173250000Y-69899100D03*
X169500000Y-72899100D03*
X169500000Y-74600900D03*
D21*
X88850900Y-74250000D03*
X87149100Y-74250000D03*
X95850900Y-69500000D03*
X94149100Y-69500000D03*
X99100900Y-69500000D03*
X97399100Y-69500000D03*
X158899100Y-76250000D03*
X160600900Y-76250000D03*
D20*
X115420500Y-73750000D03*
X117579500Y-73750000D03*
D21*
X113100900Y-83250000D03*
X111399100Y-83250000D03*
X120649100Y-81000000D03*
X122350900Y-81000000D03*
X112850900Y-74000000D03*
X111149100Y-74000000D03*
X119850900Y-69250000D03*
X118149100Y-69250000D03*
X203350900Y-74750000D03*
X201649100Y-74750000D03*
X123100900Y-69250000D03*
X121399100Y-69250000D03*
D22*
X196500000Y-71600900D03*
X196500000Y-69899100D03*
X192750000Y-72899100D03*
X192750000Y-74600900D03*
D21*
X182149100Y-76250000D03*
X183850900Y-76250000D03*
D22*
X126250000Y-74649100D03*
X126250000Y-76350900D03*
X131250000Y-78899100D03*
X131250000Y-80600900D03*
X140000000Y-78899100D03*
X140000000Y-80600900D03*
X145750000Y-73399100D03*
X145750000Y-75100900D03*
X150250000Y-80600900D03*
X150250000Y-78899100D03*
X157750000Y-81899100D03*
X157750000Y-83600900D03*
D23*
X81500000Y-71980000D03*
X82452500Y-74520000D03*
X80547500Y-74520000D03*
X105500000Y-71730000D03*
X106452500Y-74270000D03*
X104547500Y-74270000D03*
X92500000Y-69980000D03*
X93452500Y-72520000D03*
X91547500Y-72520000D03*
D24*
X177730000Y-79250000D03*
X180270000Y-78297500D03*
X180270000Y-80202500D03*
D25*
X93297560Y-76647700D03*
X93297560Y-76000000D03*
X93297560Y-75352300D03*
X91702440Y-75352300D03*
X91702440Y-76000000D03*
X91702440Y-76647700D03*
D26*
X162102300Y-76797560D03*
X162750000Y-76797560D03*
X163397700Y-76797560D03*
X163397700Y-75202440D03*
X162750000Y-75202440D03*
X162102300Y-75202440D03*
X165102300Y-76797560D03*
X165750000Y-76797560D03*
X166397700Y-76797560D03*
X166397700Y-75202440D03*
X165750000Y-75202440D03*
X165102300Y-75202440D03*
D23*
X116500000Y-69730000D03*
X117452500Y-72270000D03*
X115547500Y-72270000D03*
D25*
X117297560Y-76397700D03*
X117297560Y-75750000D03*
X117297560Y-75102300D03*
X115702440Y-75102300D03*
X115702440Y-75750000D03*
X115702440Y-76397700D03*
D24*
X200980000Y-79250000D03*
X203520000Y-78297500D03*
X203520000Y-80202500D03*
D26*
X185352300Y-76797560D03*
X186000000Y-76797560D03*
X186647700Y-76797560D03*
X186647700Y-75202440D03*
X186000000Y-75202440D03*
X185352300Y-75202440D03*
X188352300Y-76797560D03*
X189000000Y-76797560D03*
X189647700Y-76797560D03*
X189647700Y-75202440D03*
X189000000Y-75202440D03*
X188352300Y-75202440D03*
D25*
X155452440Y-84602300D03*
X155452440Y-85250000D03*
X155452440Y-85897700D03*
X157047560Y-85897700D03*
X157047560Y-85250000D03*
X157047560Y-84602300D03*
D21*
X168399100Y-67000000D03*
X170100900Y-67000000D03*
X82350900Y-83500000D03*
X80649100Y-83500000D03*
X83500000Y-83500000D03*
X85201800Y-83500000D03*
X80649100Y-81750000D03*
X82350900Y-81750000D03*
X170100900Y-68750000D03*
X168399100Y-68750000D03*
X95899100Y-74250000D03*
X97600900Y-74250000D03*
D22*
X173000000Y-65399100D03*
X173000000Y-67100900D03*
D21*
X180100900Y-76500000D03*
X178399100Y-76500000D03*
X77149100Y-74250000D03*
X78850900Y-74250000D03*
X78850900Y-72500000D03*
X77149100Y-72500000D03*
D22*
X78250000Y-83600900D03*
X78250000Y-81899100D03*
D21*
X180100900Y-72750000D03*
X178399100Y-72750000D03*
X88850900Y-76000000D03*
X87149100Y-76000000D03*
D22*
X174750000Y-65399100D03*
X174750000Y-67100900D03*
D21*
X88750000Y-81750000D03*
X87048200Y-81750000D03*
X93399100Y-83500000D03*
X95100900Y-83500000D03*
X84149100Y-74250000D03*
X85850900Y-74250000D03*
X78850900Y-68750000D03*
X77149100Y-68750000D03*
X178399100Y-83500000D03*
X180100900Y-83500000D03*
X95100900Y-81250000D03*
X93399100Y-81250000D03*
X178399100Y-71000000D03*
X180100900Y-71000000D03*
X85850900Y-72500000D03*
X84149100Y-72500000D03*
X91600900Y-81750000D03*
X89899100Y-81750000D03*
X180100900Y-85250000D03*
X178399100Y-85250000D03*
X178399100Y-81750000D03*
X180100900Y-81750000D03*
X95899100Y-71500000D03*
X97600900Y-71500000D03*
X77149100Y-65750000D03*
X78850900Y-65750000D03*
X78850900Y-70500000D03*
X77149100Y-70500000D03*
X87149100Y-72500000D03*
X88850900Y-72500000D03*
X164600900Y-85250000D03*
X162899100Y-85250000D03*
D22*
X163000000Y-80600900D03*
X163000000Y-78899100D03*
X161250000Y-80600900D03*
X161250000Y-78899100D03*
X159500000Y-80600900D03*
X159500000Y-78899100D03*
D21*
X89149100Y-69500000D03*
X90850900Y-69500000D03*
X97399100Y-66000000D03*
X99100900Y-66000000D03*
X158899100Y-74500000D03*
X160600900Y-74500000D03*
X99100900Y-67750000D03*
X97399100Y-67750000D03*
X170600900Y-85250000D03*
X168899100Y-85250000D03*
D22*
X169500000Y-78899100D03*
X169500000Y-80600900D03*
D21*
X160600900Y-66000000D03*
X158899100Y-66000000D03*
D22*
X167750000Y-78899100D03*
X167750000Y-80600900D03*
X166000000Y-78899100D03*
X166000000Y-80600900D03*
D21*
X168399100Y-70500000D03*
X170100900Y-70500000D03*
X158899100Y-71000000D03*
X160600900Y-71000000D03*
D22*
X169500000Y-77600900D03*
X169500000Y-75899100D03*
X171500000Y-72899100D03*
X171500000Y-74600900D03*
D21*
X106350900Y-83250000D03*
X104649100Y-83250000D03*
D22*
X173250000Y-74600900D03*
X173250000Y-72899100D03*
D21*
X107399100Y-83250000D03*
X109100900Y-83250000D03*
X104649100Y-81500000D03*
X106350900Y-81500000D03*
X119899100Y-73750000D03*
X121600900Y-73750000D03*
X100899100Y-74000000D03*
X102600900Y-74000000D03*
X102600900Y-72250000D03*
X100899100Y-72250000D03*
X100649100Y-81500000D03*
X102350900Y-81500000D03*
X112850900Y-75750000D03*
X111149100Y-75750000D03*
X113100900Y-81500000D03*
X111399100Y-81500000D03*
X117649100Y-83250000D03*
X119350900Y-83250000D03*
X108149100Y-74000000D03*
X109850900Y-74000000D03*
X102600900Y-68500000D03*
X100899100Y-68500000D03*
X191649100Y-67000000D03*
X193350900Y-67000000D03*
X119350900Y-81000000D03*
X117649100Y-81000000D03*
X109850900Y-72250000D03*
X108149100Y-72250000D03*
X115850900Y-81500000D03*
X114149100Y-81500000D03*
X119899100Y-71250000D03*
X121600900Y-71250000D03*
X100899100Y-65500000D03*
X102600900Y-65500000D03*
X102600900Y-70250000D03*
X100899100Y-70250000D03*
X193350900Y-68750000D03*
X191649100Y-68750000D03*
X111149100Y-72250000D03*
X112850900Y-72250000D03*
D22*
X196250000Y-65399100D03*
X196250000Y-67100900D03*
D21*
X203350900Y-76500000D03*
X201649100Y-76500000D03*
X203350900Y-72750000D03*
X201649100Y-72750000D03*
D22*
X198000000Y-65399100D03*
X198000000Y-67100900D03*
D21*
X113149100Y-69250000D03*
X114850900Y-69250000D03*
X121399100Y-65750000D03*
X123100900Y-65750000D03*
X203350900Y-83500000D03*
X201649100Y-83500000D03*
X201649100Y-71000000D03*
X203350900Y-71000000D03*
X201649100Y-85250000D03*
X203350900Y-85250000D03*
X203350900Y-81750000D03*
X201649100Y-81750000D03*
X123100900Y-67500000D03*
X121399100Y-67500000D03*
X187850900Y-85250000D03*
X186149100Y-85250000D03*
D22*
X186250000Y-80600900D03*
X186250000Y-78899100D03*
X184500000Y-80600900D03*
X184500000Y-78899100D03*
X182750000Y-80600900D03*
X182750000Y-78899100D03*
D21*
X182149100Y-74500000D03*
X183850900Y-74500000D03*
X193850900Y-85250000D03*
X192149100Y-85250000D03*
D22*
X192750000Y-78899100D03*
X192750000Y-80600900D03*
D21*
X183850900Y-66000000D03*
X182149100Y-66000000D03*
D22*
X191000000Y-78899100D03*
X191000000Y-80600900D03*
X189250000Y-78899100D03*
X189250000Y-80600900D03*
D21*
X191649100Y-70500000D03*
X193350900Y-70500000D03*
X182149100Y-71000000D03*
X183850900Y-71000000D03*
D22*
X192750000Y-77600900D03*
X192750000Y-75899100D03*
X194750000Y-72899100D03*
X194750000Y-74600900D03*
X196500000Y-74600900D03*
X196500000Y-72899100D03*
X145750000Y-67399100D03*
X145750000Y-69100900D03*
D21*
X124899100Y-67000000D03*
X126600900Y-67000000D03*
X128649100Y-66500000D03*
X130350900Y-66500000D03*
X133600900Y-66500000D03*
X131899100Y-66500000D03*
X138399100Y-66500000D03*
X140100900Y-66500000D03*
X143350900Y-66500000D03*
X141649100Y-66500000D03*
D22*
X126250000Y-70350900D03*
X126250000Y-68649100D03*
X145750000Y-70149100D03*
X145750000Y-71850900D03*
X124250000Y-71649100D03*
X124250000Y-73350900D03*
X125750000Y-78899100D03*
X125750000Y-80600900D03*
X135750000Y-78899100D03*
X135750000Y-80600900D03*
X144000000Y-78899100D03*
X144000000Y-80600900D03*
D21*
X141850900Y-85500000D03*
X140149100Y-85500000D03*
X144850900Y-85500000D03*
X143149100Y-85500000D03*
D22*
X126250000Y-71649100D03*
X126250000Y-73350900D03*
X127500000Y-80600900D03*
X127500000Y-78899100D03*
X137500000Y-80600900D03*
X137500000Y-78899100D03*
X145750000Y-76149100D03*
X145750000Y-77850900D03*
X124250000Y-76350900D03*
X124250000Y-74649100D03*
X133250000Y-80600900D03*
X133250000Y-78899100D03*
X142250000Y-80600900D03*
X142250000Y-78899100D03*
X145750000Y-80600900D03*
X145750000Y-78899100D03*
D20*
X158420500Y-85250000D03*
X160579500Y-85250000D03*
D22*
X153000000Y-78899100D03*
X153000000Y-80600900D03*
X156000000Y-83600900D03*
X156000000Y-81899100D03*
X148500000Y-80600900D03*
X148500000Y-78899100D03*
X156500000Y-78899100D03*
X156500000Y-80600900D03*
X154750000Y-78899100D03*
X154750000Y-80600900D03*
X159500000Y-83600900D03*
X159500000Y-81899100D03*
D20*
X96829500Y-76000000D03*
X94670500Y-76000000D03*
X120829500Y-75750000D03*
X118670500Y-75750000D03*
D27*
X78550000Y-76050000D03*
X78550000Y-76700000D03*
X78550000Y-77350000D03*
X78550000Y-78000000D03*
X78550000Y-78650000D03*
X78550000Y-79300000D03*
X78550000Y-79950000D03*
X84450000Y-79950000D03*
X84450000Y-79300000D03*
X84450000Y-78650000D03*
X84450000Y-78000000D03*
X84450000Y-77350000D03*
X84450000Y-76700000D03*
X84450000Y-76050000D03*
D28*
X163050000Y-71700000D03*
X163700000Y-71700000D03*
X164350000Y-71700000D03*
X165000000Y-71700000D03*
X165650000Y-71700000D03*
X166300000Y-71700000D03*
X166950000Y-71700000D03*
X166950000Y-65800000D03*
X166300000Y-65800000D03*
X165650000Y-65800000D03*
X165000000Y-65800000D03*
X164350000Y-65800000D03*
X163700000Y-65800000D03*
X163050000Y-65800000D03*
D29*
X174794600Y-77194000D03*
X175429600Y-77194000D03*
X176090000Y-77194000D03*
X176725000Y-77194000D03*
X176725000Y-71606000D03*
X176077300Y-71606000D03*
X175429600Y-71606000D03*
X174781900Y-71606000D03*
D30*
X86294000Y-69655000D03*
X86294000Y-68385000D03*
X86294000Y-67115000D03*
X86294000Y-65845000D03*
X80706000Y-65845000D03*
X80706000Y-67115000D03*
X80706000Y-68385000D03*
X80706000Y-69655000D03*
D31*
X95194000Y-79705400D03*
X95194000Y-79070400D03*
X95194000Y-78410000D03*
X95194000Y-77775000D03*
X89606000Y-77775000D03*
X89606000Y-78422700D03*
X89606000Y-79070400D03*
X89606000Y-79718100D03*
X95194000Y-67705400D03*
X95194000Y-67070400D03*
X95194000Y-66410000D03*
X95194000Y-65775000D03*
X89606000Y-65775000D03*
X89606000Y-66422700D03*
X89606000Y-67070400D03*
X89606000Y-67718100D03*
D32*
X171975000Y-85200000D03*
X172625000Y-85200000D03*
X173275000Y-85200000D03*
X173925000Y-85200000D03*
X174575000Y-85200000D03*
X175225000Y-85200000D03*
X175875000Y-85200000D03*
X176525000Y-85200000D03*
X176525000Y-79300000D03*
X175875000Y-79300000D03*
X175225000Y-79300000D03*
X174575000Y-79300000D03*
X173925000Y-79300000D03*
X173275000Y-79300000D03*
X172625000Y-79300000D03*
X171975000Y-79300000D03*
D27*
X102550000Y-76050000D03*
X102550000Y-76700000D03*
X102550000Y-77350000D03*
X102550000Y-78000000D03*
X102550000Y-78650000D03*
X102550000Y-79300000D03*
X102550000Y-79950000D03*
X108450000Y-79950000D03*
X108450000Y-79300000D03*
X108450000Y-78650000D03*
X108450000Y-78000000D03*
X108450000Y-77350000D03*
X108450000Y-76700000D03*
X108450000Y-76050000D03*
D30*
X110294000Y-69405000D03*
X110294000Y-68135000D03*
X110294000Y-66865000D03*
X110294000Y-65595000D03*
X104706000Y-65595000D03*
X104706000Y-66865000D03*
X104706000Y-68135000D03*
X104706000Y-69405000D03*
D31*
X119444000Y-79455400D03*
X119444000Y-78820400D03*
X119444000Y-78160000D03*
X119444000Y-77525000D03*
X113856000Y-77525000D03*
X113856000Y-78172700D03*
X113856000Y-78820400D03*
X113856000Y-79468100D03*
D28*
X186300000Y-71700000D03*
X186950000Y-71700000D03*
X187600000Y-71700000D03*
X188250000Y-71700000D03*
X188900000Y-71700000D03*
X189550000Y-71700000D03*
X190200000Y-71700000D03*
X190200000Y-65800000D03*
X189550000Y-65800000D03*
X188900000Y-65800000D03*
X188250000Y-65800000D03*
X187600000Y-65800000D03*
X186950000Y-65800000D03*
X186300000Y-65800000D03*
D29*
X198044600Y-77194000D03*
X198679600Y-77194000D03*
X199340000Y-77194000D03*
X199975000Y-77194000D03*
X199975000Y-71606000D03*
X199327300Y-71606000D03*
X198679600Y-71606000D03*
X198031900Y-71606000D03*
D31*
X119194000Y-67455400D03*
X119194000Y-66820400D03*
X119194000Y-66160000D03*
X119194000Y-65525000D03*
X113606000Y-65525000D03*
X113606000Y-66172700D03*
X113606000Y-66820400D03*
X113606000Y-67468100D03*
D32*
X195225000Y-85200000D03*
X195875000Y-85200000D03*
X196525000Y-85200000D03*
X197175000Y-85200000D03*
X197825000Y-85200000D03*
X198475000Y-85200000D03*
X199125000Y-85200000D03*
X199775000Y-85200000D03*
X199775000Y-79300000D03*
X199125000Y-79300000D03*
X198475000Y-79300000D03*
X197825000Y-79300000D03*
X197175000Y-79300000D03*
X196525000Y-79300000D03*
X195875000Y-79300000D03*
X195225000Y-79300000D03*
D31*
X130194000Y-83955400D03*
X130194000Y-83320400D03*
X130194000Y-82660000D03*
X130194000Y-82025000D03*
X124606000Y-82025000D03*
X124606000Y-82672700D03*
X124606000Y-83320400D03*
X124606000Y-83968100D03*
X143694000Y-83955400D03*
X143694000Y-83320400D03*
X143694000Y-82660000D03*
X143694000Y-82025000D03*
X138106000Y-82025000D03*
X138106000Y-82672700D03*
X138106000Y-83320400D03*
X138106000Y-83968100D03*
D33*
X128651580Y-68305000D03*
X128651580Y-69575000D03*
X128651580Y-70845000D03*
X128651580Y-72115000D03*
X128651580Y-73385000D03*
X128651580Y-74655000D03*
X128651580Y-75925000D03*
X128651580Y-77195000D03*
X133848420Y-77195000D03*
X133848420Y-75925000D03*
X133848420Y-74655000D03*
X133848420Y-73385000D03*
X133848420Y-72115000D03*
X133848420Y-70845000D03*
X133848420Y-69575000D03*
X133848420Y-68305000D03*
X138401580Y-68305000D03*
X138401580Y-69575000D03*
X138401580Y-70845000D03*
X138401580Y-72115000D03*
X138401580Y-73385000D03*
X138401580Y-74655000D03*
X138401580Y-75925000D03*
X138401580Y-77195000D03*
X143598420Y-77195000D03*
X143598420Y-75925000D03*
X143598420Y-74655000D03*
X143598420Y-73385000D03*
X143598420Y-72115000D03*
X143598420Y-70845000D03*
X143598420Y-69575000D03*
X143598420Y-68305000D03*
X149651580Y-68055000D03*
X149651580Y-69325000D03*
X149651580Y-70595000D03*
X149651580Y-71865000D03*
X149651580Y-73135000D03*
X149651580Y-74405000D03*
X149651580Y-75675000D03*
X149651580Y-76945000D03*
X154848420Y-76945000D03*
X154848420Y-75675000D03*
X154848420Y-74405000D03*
X154848420Y-73135000D03*
X154848420Y-71865000D03*
X154848420Y-70595000D03*
X154848420Y-69325000D03*
X154848420Y-68055000D03*
D31*
X148556000Y-81794600D03*
X148556000Y-82429600D03*
X148556000Y-83090000D03*
X148556000Y-83725000D03*
X154144000Y-83725000D03*
X154144000Y-83077300D03*
X154144000Y-82429600D03*
X154144000Y-81781900D03*
D34*
X177675000Y-89150000D03*
X176675000Y-89150000D03*
X175675000Y-89150000D03*
X174675000Y-89150000D03*
X173675000Y-89150000D03*
X172675000Y-89150000D03*
X171675000Y-89150000D03*
X170675000Y-89150000D03*
X169675000Y-89150000D03*
X168675000Y-89150000D03*
X167675000Y-89150000D03*
X166675000Y-89150000D03*
X165675000Y-89150000D03*
X164675000Y-89150000D03*
X163675000Y-89150000D03*
X162675000Y-89150000D03*
X145675000Y-89150000D03*
X144675000Y-89150000D03*
X143675000Y-89150000D03*
X142675000Y-89150000D03*
X141675000Y-89150000D03*
X140675000Y-89150000D03*
X139675000Y-89150000D03*
X138675000Y-89150000D03*
X137675000Y-89150000D03*
X136675000Y-89150000D03*
X135675000Y-89150000D03*
X134675000Y-89150000D03*
X133675000Y-89150000D03*
X132675000Y-89150000D03*
X131675000Y-89150000D03*
X130675000Y-89150000D03*
X146675000Y-89150000D03*
X147675000Y-89150000D03*
X148675000Y-89150000D03*
X149675000Y-89150000D03*
X150675000Y-89150000D03*
X151675000Y-89150000D03*
X152675000Y-89150000D03*
X153675000Y-89150000D03*
X154675000Y-89150000D03*
X155675000Y-89150000D03*
X156675000Y-89150000D03*
X157675000Y-89150000D03*
X158675000Y-89150000D03*
X159675000Y-89150000D03*
X160675000Y-89150000D03*
X161675000Y-89150000D03*
X109675000Y-89150000D03*
X108675000Y-89150000D03*
X107675000Y-89150000D03*
X106675000Y-89150000D03*
X105675000Y-89150000D03*
X104675000Y-89150000D03*
X103675000Y-89150000D03*
X102675000Y-89150000D03*
X101675000Y-89150000D03*
X100675000Y-89150000D03*
X99675000Y-89150000D03*
X98675000Y-89150000D03*
X97675000Y-89150000D03*
X96675000Y-89150000D03*
X95675000Y-89150000D03*
X94675000Y-89150000D03*
X163675000Y-89150000D03*
X162675000Y-89150000D03*
X161675000Y-89150000D03*
X160675000Y-89150000D03*
X159675000Y-89150000D03*
X158675000Y-89150000D03*
X157675000Y-89150000D03*
X156675000Y-89150000D03*
X155675000Y-89150000D03*
X154675000Y-89150000D03*
X153675000Y-89150000D03*
X190675000Y-89150000D03*
X191675000Y-89150000D03*
X192675000Y-89150000D03*
X193675000Y-89150000D03*
X194675000Y-89150000D03*
X195675000Y-89150000D03*
X196675000Y-89150000D03*
X197675000Y-89150000D03*
X198675000Y-89150000D03*
X199675000Y-89150000D03*
X200675000Y-89150000D03*
X164675000Y-89150000D03*
X165675000Y-89150000D03*
X166675000Y-89150000D03*
X167675000Y-89150000D03*
X168675000Y-89150000D03*
X169675000Y-89150000D03*
X170675000Y-89150000D03*
X171675000Y-89150000D03*
X172675000Y-89150000D03*
X173675000Y-89150000D03*
X174675000Y-89150000D03*
X189675000Y-89150000D03*
X188675000Y-89150000D03*
X187675000Y-89150000D03*
X186675000Y-89150000D03*
X185675000Y-89150000D03*
X184675000Y-89150000D03*
X183675000Y-89150000D03*
X182675000Y-89150000D03*
X181675000Y-89150000D03*
X180675000Y-89150000D03*
X179675000Y-89150000D03*
X175675000Y-89150000D03*
X176675000Y-89150000D03*
X177675000Y-89150000D03*
X178675000Y-89150000D03*
X103675000Y-89150000D03*
X102675000Y-89150000D03*
X101675000Y-89150000D03*
X100675000Y-89150000D03*
X104675000Y-89150000D03*
X105675000Y-89150000D03*
X106675000Y-89150000D03*
X107675000Y-89150000D03*
X108675000Y-89150000D03*
X109675000Y-89150000D03*
X110675000Y-89150000D03*
X111675000Y-89150000D03*
X112675000Y-89150000D03*
X113675000Y-89150000D03*
X114675000Y-89150000D03*
X99675000Y-89150000D03*
X98675000Y-89150000D03*
X97675000Y-89150000D03*
X96675000Y-89150000D03*
X95675000Y-89150000D03*
X94675000Y-89150000D03*
X93675000Y-89150000D03*
X92675000Y-89150000D03*
X91675000Y-89150000D03*
X90675000Y-89150000D03*
X89675000Y-89150000D03*
X125675000Y-89150000D03*
X130675000Y-89150000D03*
X124675000Y-89150000D03*
X123675000Y-89150000D03*
X122675000Y-89150000D03*
X121675000Y-89150000D03*
X120675000Y-89150000D03*
X119675000Y-89150000D03*
X118675000Y-89150000D03*
X117675000Y-89150000D03*
X116675000Y-89150000D03*
X115675000Y-89150000D03*
X78675000Y-89150000D03*
X79675000Y-89150000D03*
X80675000Y-89150000D03*
X81675000Y-89150000D03*
X82675000Y-89150000D03*
X83675000Y-89150000D03*
X84675000Y-89150000D03*
X85675000Y-89150000D03*
X86675000Y-89150000D03*
X87675000Y-89150000D03*
X88675000Y-89150000D03*
X201675000Y-89150000D03*
X131675000Y-89150000D03*
X132675000Y-89150000D03*
X133675000Y-89150000D03*
X134675000Y-89150000D03*
X135675000Y-89150000D03*
X136675000Y-89150000D03*
X137675000Y-89150000D03*
X138675000Y-89150000D03*
X139675000Y-89150000D03*
X140675000Y-89150000D03*
X141675000Y-89150000D03*
X142675000Y-89150000D03*
X143675000Y-89150000D03*
X144675000Y-89150000D03*
X145675000Y-89150000D03*
X146675000Y-89150000D03*
X147675000Y-89150000D03*
X148675000Y-89150000D03*
X149675000Y-89150000D03*
X150675000Y-89150000D03*
X151675000Y-89150000D03*
X152675000Y-89150000D03*
X78675000Y-89150000D03*
X79675000Y-89150000D03*
X80675000Y-89150000D03*
X81675000Y-89150000D03*
X82675000Y-89150000D03*
X83675000Y-89150000D03*
X84675000Y-89150000D03*
X85675000Y-89150000D03*
X86675000Y-89150000D03*
X87675000Y-89150000D03*
X88675000Y-89150000D03*
X89675000Y-89150000D03*
X90675000Y-89150000D03*
X91675000Y-89150000D03*
X92675000Y-89150000D03*
X93675000Y-89150000D03*
X110675000Y-89150000D03*
X111675000Y-89150000D03*
X112675000Y-89150000D03*
X113675000Y-89150000D03*
X114675000Y-89150000D03*
X115675000Y-89150000D03*
X116675000Y-89150000D03*
X117675000Y-89150000D03*
X118675000Y-89150000D03*
X119675000Y-89150000D03*
X120675000Y-89150000D03*
X121675000Y-89150000D03*
X122675000Y-89150000D03*
X123675000Y-89150000D03*
X124675000Y-89150000D03*
X125675000Y-89150000D03*
X178675000Y-89150000D03*
X179675000Y-89150000D03*
X180675000Y-89150000D03*
X181675000Y-89150000D03*
X182675000Y-89150000D03*
X183675000Y-89150000D03*
X184675000Y-89150000D03*
X185675000Y-89150000D03*
X186675000Y-89150000D03*
X187675000Y-89150000D03*
X188675000Y-89150000D03*
X189675000Y-89150000D03*
X190675000Y-89150000D03*
X191675000Y-89150000D03*
X192675000Y-89150000D03*
X193675000Y-89150000D03*
X194675000Y-89150000D03*
X195675000Y-89150000D03*
X196675000Y-89150000D03*
X197675000Y-89150000D03*
X198675000Y-89150000D03*
X199675000Y-89150000D03*
X200675000Y-89150000D03*
X201675000Y-89150000D03*
D35*
X89000000Y-64500000D03*
X113000000Y-64500000D03*
D36*
X184250000Y-68500000D03*
X182250000Y-68500000D03*
X190750000Y-83000000D03*
X193250000Y-83000000D03*
X188250000Y-83000000D03*
X185750000Y-83000000D03*
X161000000Y-68500000D03*
X158500000Y-68500000D03*
X167500000Y-83000000D03*
X170000000Y-83000000D03*
X165000000Y-83000000D03*
X162500000Y-83000000D03*
M02*
