G04 #@! TF.FileFunction,Soldermask,Bot*
%FSLAX46Y46*%
G04 Gerber Fmt 4.6, Leading zero omitted, Abs format (unit mm)*
G04 Created by KiCad (PCBNEW (2015-11-11 BZR 6310, Git 8f79b4f)-product) date 2016-01-24 6:08:41 PM*
%MOMM*%
G01*
G04 APERTURE LIST*
%ADD10C,0.100000*%
%ADD11R,0.812800X1.143000*%
%ADD12C,1.500000*%
%ADD13R,0.800000X2.300000*%
G04 APERTURE END LIST*
D10*
D11*
X91350900Y-78000000D03*
X89649100Y-78000000D03*
X94949100Y-79000000D03*
X96650900Y-79000000D03*
X115550900Y-77900000D03*
X113849100Y-77900000D03*
X118949100Y-78700000D03*
X120650900Y-78700000D03*
X167201800Y-73000000D03*
X165500000Y-73000000D03*
X161749100Y-65900000D03*
X163450900Y-65900000D03*
X186450900Y-70800000D03*
X184749100Y-70800000D03*
X184749100Y-65900000D03*
X186450900Y-65900000D03*
X79899100Y-79250000D03*
X81600900Y-79250000D03*
X84850900Y-76750000D03*
X83149100Y-76750000D03*
X103849100Y-76600000D03*
X105550900Y-76600000D03*
X109950900Y-75700000D03*
X108249100Y-75700000D03*
X153350900Y-80400000D03*
X151649100Y-80400000D03*
X143549100Y-83900000D03*
X145250900Y-83900000D03*
D12*
X184250000Y-68500000D03*
X182250000Y-68500000D03*
X190750000Y-83000000D03*
X193250000Y-83000000D03*
X188250000Y-83000000D03*
X185750000Y-83000000D03*
X161000000Y-68500000D03*
X158500000Y-68500000D03*
X167500000Y-83000000D03*
X170000000Y-83000000D03*
X165000000Y-83000000D03*
X162500000Y-83000000D03*
D13*
X177675000Y-89150000D03*
X176675000Y-89150000D03*
X175675000Y-89150000D03*
X174675000Y-89150000D03*
X173675000Y-89150000D03*
X172675000Y-89150000D03*
X171675000Y-89150000D03*
X170675000Y-89150000D03*
X169675000Y-89150000D03*
X168675000Y-89150000D03*
X167675000Y-89150000D03*
X166675000Y-89150000D03*
X165675000Y-89150000D03*
X164675000Y-89150000D03*
X163675000Y-89150000D03*
X162675000Y-89150000D03*
X145675000Y-89150000D03*
X144675000Y-89150000D03*
X143675000Y-89150000D03*
X142675000Y-89150000D03*
X141675000Y-89150000D03*
X140675000Y-89150000D03*
X139675000Y-89150000D03*
X138675000Y-89150000D03*
X137675000Y-89150000D03*
X136675000Y-89150000D03*
X135675000Y-89150000D03*
X134675000Y-89150000D03*
X133675000Y-89150000D03*
X132675000Y-89150000D03*
X131675000Y-89150000D03*
X130675000Y-89150000D03*
X146675000Y-89150000D03*
X147675000Y-89150000D03*
X148675000Y-89150000D03*
X149675000Y-89150000D03*
X150675000Y-89150000D03*
X151675000Y-89150000D03*
X152675000Y-89150000D03*
X153675000Y-89150000D03*
X154675000Y-89150000D03*
X155675000Y-89150000D03*
X156675000Y-89150000D03*
X157675000Y-89150000D03*
X158675000Y-89150000D03*
X159675000Y-89150000D03*
X160675000Y-89150000D03*
X161675000Y-89150000D03*
X109675000Y-89150000D03*
X108675000Y-89150000D03*
X107675000Y-89150000D03*
X106675000Y-89150000D03*
X105675000Y-89150000D03*
X104675000Y-89150000D03*
X103675000Y-89150000D03*
X102675000Y-89150000D03*
X101675000Y-89150000D03*
X100675000Y-89150000D03*
X99675000Y-89150000D03*
X98675000Y-89150000D03*
X97675000Y-89150000D03*
X96675000Y-89150000D03*
X95675000Y-89150000D03*
X94675000Y-89150000D03*
X78675000Y-89150000D03*
X79675000Y-89150000D03*
X80675000Y-89150000D03*
X81675000Y-89150000D03*
X82675000Y-89150000D03*
X83675000Y-89150000D03*
X84675000Y-89150000D03*
X85675000Y-89150000D03*
X86675000Y-89150000D03*
X87675000Y-89150000D03*
X88675000Y-89150000D03*
X89675000Y-89150000D03*
X90675000Y-89150000D03*
X91675000Y-89150000D03*
X92675000Y-89150000D03*
X93675000Y-89150000D03*
X110675000Y-89150000D03*
X111675000Y-89150000D03*
X112675000Y-89150000D03*
X113675000Y-89150000D03*
X114675000Y-89150000D03*
X115675000Y-89150000D03*
X116675000Y-89150000D03*
X117675000Y-89150000D03*
X118675000Y-89150000D03*
X119675000Y-89150000D03*
X120675000Y-89150000D03*
X121675000Y-89150000D03*
X122675000Y-89150000D03*
X123675000Y-89150000D03*
X124675000Y-89150000D03*
X125675000Y-89150000D03*
X178675000Y-89150000D03*
X179675000Y-89150000D03*
X180675000Y-89150000D03*
X181675000Y-89150000D03*
X182675000Y-89150000D03*
X183675000Y-89150000D03*
X184675000Y-89150000D03*
X185675000Y-89150000D03*
X186675000Y-89150000D03*
X187675000Y-89150000D03*
X188675000Y-89150000D03*
X189675000Y-89150000D03*
X190675000Y-89150000D03*
X191675000Y-89150000D03*
X192675000Y-89150000D03*
X193675000Y-89150000D03*
X194675000Y-89150000D03*
X195675000Y-89150000D03*
X196675000Y-89150000D03*
X197675000Y-89150000D03*
X198675000Y-89150000D03*
X199675000Y-89150000D03*
X200675000Y-89150000D03*
X201675000Y-89150000D03*
M02*
